<svg width="0" height="0" class="hidden">
  <symbol xmlns="http://www.w3.org/2000/svg" viewBox="0 0 10 10" id="arw-down">
    <path d="m2 4 3 2 3-2" stroke="#FFF" stroke-width="1.2" fill="none" fill-rule="evenodd" stroke-linecap="round" stroke-linejoin="round"></path>
  </symbol>
  <symbol xmlns="http://www.w3.org/2000/svg" viewBox="0 0 24 24" id="language">
    <g fill-rule="nonzero" fill="none">
      <path stroke="#FFF" stroke-width="2" stroke-linecap="round" stroke-linejoin="round" d="M4 15h5v5H4zM9 15h5v5H9zM14 15h5v5h-5zM14 5h5v5h-5zM14 10h5v5h-5zM9 10h5v5H9zM4 10h5v5H4z"></path>
    </g>
  </symbol>
  <symbol fill="none" xmlns="http://www.w3.org/2000/svg" viewBox="0 0 101 101" id="logo">
    <g clip-path="url(#clip0_821_740)">
      <g clip-path="url(#clip1_821_740)">
        <g clip-path="url(#clip2_821_740)">
          <path d="M0.73291 19.9406H20.0162V0.657227H0.73291V19.9406ZM7.14124 3.69056H14.0496V5.21556H8.75791V9.15723H13.8662V10.6822H8.75791V14.7156H14.2246V16.2406H7.14124V3.69056Z" fill="white"></path>
          <path d="M20.9163 19.9406H40.1996V0.657227H20.9163V19.9406ZM26.3663 3.69056H27.9829L32.4829 11.9406C32.7496 12.4239 33.1246 13.2489 33.1246 13.2489C33.1246 13.2489 33.0913 12.3906 33.0913 11.9406V3.69056H34.7079V16.2406H33.0913L28.5913 7.99056C28.3246 7.50723 27.9496 6.68223 27.9496 6.68223C27.9496 6.68223 27.9829 7.54056 27.9829 7.99056V16.2406H26.3663V3.69056Z" fill="white"></path>
          <path d="M41.0912 19.9406H60.3745V0.657227H41.0912V19.9406ZM46.4829 3.69056H54.9079V5.21556H51.4995V16.2406H49.8829V5.21556H46.4829V3.69056Z" fill="white"></path>
          <path d="M61.2745 19.9406H80.5579V0.657227H61.2745V19.9406ZM67.6412 3.69056H74.5495V5.21556H69.2579V9.15723H74.3662V10.6822H69.2579V14.7156H74.7245V16.2406H67.6412V3.69056Z" fill="white"></path>
          <path d="M81.4496 0.657227V19.9406H100.733V0.657227H81.4496ZM94.6996 12.5406L94.7496 13.4406C94.8246 14.4989 94.8413 15.5906 95.0579 16.0239V16.0989H93.4413C93.1746 15.3489 93.1913 13.9656 93.1163 12.9239C93.0663 12.0822 92.8329 11.5989 92.5246 11.2906C92.1996 10.9822 91.7746 10.8989 91.1079 10.8989H88.5996V16.0989H86.9829V3.54056H91.1996C92.5412 3.54056 93.4079 3.93223 94.0163 4.58223C94.6663 5.24889 95.0579 6.18223 95.0579 7.21556C95.0579 8.68223 94.3579 9.64056 93.3329 10.1739C94.0746 10.4822 94.6163 11.1239 94.6996 12.5406Z" fill="white"></path>
          <path d="M91.1162 5.06543H88.6079V9.37376H91.1162C92.1162 9.37376 92.6579 9.09043 92.9996 8.62376C93.2829 8.24876 93.4496 7.76543 93.4496 7.22376C93.4496 6.6821 93.2912 6.19876 92.9996 5.82376C92.6579 5.34876 92.1162 5.06543 91.1162 5.06543Z" fill="white"></path>
          <path d="M12.658 29.0823C12.983 28.6906 13.1996 28.1823 13.1996 27.6323C13.1996 27.074 12.983 26.574 12.658 26.1823C12.2413 25.699 11.633 25.3906 10.5913 25.3906H8.53296V29.874H10.5913C11.6413 29.874 12.2496 29.574 12.658 29.0823Z" fill="white"></path>
          <path d="M0.73291 40.1153H20.0162V20.8403H0.73291V40.1153ZM6.92458 23.8653H10.6912C11.9329 23.8653 12.7329 24.1737 13.3829 24.6737C14.2412 25.357 14.8162 26.432 14.8162 27.632C14.8162 28.832 14.2412 29.907 13.3829 30.5903C12.7412 31.0903 11.9329 31.3987 10.6912 31.3987H8.53291V36.4237H6.92458V23.8653Z" fill="white"></path>
          <path d="M20.9163 40.1153H40.1996V20.8403H20.9163V40.1153ZM26.6329 23.8653H30.8496C32.1913 23.8653 33.0579 24.257 33.6663 24.907C34.3163 25.5737 34.7079 26.507 34.7079 27.5403C34.7079 29.007 34.0079 29.9653 32.9829 30.4987C33.7163 30.807 34.2579 31.4487 34.3496 32.8653L34.3996 33.7653C34.4746 34.8237 34.4913 35.9153 34.7079 36.3487V36.4237H33.0913C32.8246 35.6737 32.8413 34.2903 32.7663 33.2487C32.7163 32.407 32.4829 31.9237 32.1746 31.6153C31.8496 31.307 31.4246 31.2237 30.7579 31.2237H28.2496V36.4237H26.6329V23.8653Z" fill="white"></path>
          <path d="M32.6413 28.9406C32.9246 28.5656 33.0913 28.0823 33.0913 27.5406C33.0913 26.999 32.933 26.5156 32.6413 26.1406C32.2996 25.674 31.7663 25.3906 30.758 25.3906H28.2496V29.699H30.758C31.7663 29.699 32.308 29.4073 32.6413 28.9406Z" fill="white"></path>
          <path d="M41.0912 40.1153H60.3745V20.8403H41.0912V40.1153ZM49.8912 23.8653H51.5079V36.4153H49.8912V23.8653Z" fill="white"></path>
          <path d="M61.2745 40.1153H80.5579V20.8403H61.2745V40.1153ZM67.0079 31.8153L68.6245 31.6737C68.4995 32.0903 68.4079 32.482 68.4079 32.982C68.4079 34.3987 69.6829 35.207 71.0245 35.207C72.2245 35.207 73.4079 34.507 73.4079 33.0903C73.4079 31.4737 71.6662 30.957 70.4662 30.5653C68.7829 30.007 67.1829 29.2237 67.1829 26.9987C67.1829 24.957 68.8829 23.607 70.9495 23.607C72.8829 23.607 74.6579 24.882 74.6579 26.9987C74.6579 27.307 74.5829 27.7487 74.5162 27.982L72.8995 28.1403C72.9912 27.8903 73.0745 27.457 73.0745 27.0987C73.0745 25.8653 72.1745 25.0903 70.9412 25.0903C69.8329 25.0903 68.7495 25.757 68.7495 26.9903C68.7495 28.582 70.3079 28.8737 71.8495 29.4653C73.2995 30.0237 74.9662 30.7737 74.9662 33.107C74.9662 35.257 73.1579 36.6903 70.9829 36.6903C68.9245 36.6903 66.8079 35.382 66.8079 33.107C66.8329 32.582 66.9162 32.082 67.0079 31.8153Z" fill="white"></path>
          <path d="M81.4496 40.1153H100.733V20.8403H81.4496V40.1153ZM87.6663 23.7153H94.5746V25.2403H89.2829V29.182H94.3913V30.707H89.2829V34.7403H94.7496V36.2653H87.6663V23.7153Z" fill="white"></path>
          <path d="M0.73291 60.299H20.0162V41.0156H0.73291V60.299ZM9.56624 44.049H11.1829V56.599H9.56624V44.049Z" fill="white"></path>
          <path d="M20.9163 60.299H40.1996V41.0156H20.9163V60.299ZM29.7329 44.049H31.3496V56.599H29.7329V44.049Z" fill="white"></path>
          <path d="M41.0912 60.299H60.3745V41.0156H41.0912V60.299ZM49.8912 44.049H51.5079V56.599H49.8912V44.049Z" fill="white"></path>
          <path d="M61.2745 60.299H80.5579V41.0156H61.2745V60.299ZM70.0579 44.049H71.6745V56.599H70.0579V44.049Z" fill="white"></path>
          <path d="M81.4496 60.299H100.733V41.0156H81.4496V60.299ZM90.0829 43.899H91.6996V56.449H90.0829V43.899Z" fill="white"></path>
          <path d="M12.2746 69.1574C12.6163 68.799 12.7913 68.299 12.7913 67.724C12.7913 67.149 12.6163 66.649 12.2746 66.2907C11.9663 65.949 11.5246 65.749 10.6413 65.749H8.13293V69.6907H10.6413C11.5246 69.699 11.9663 69.499 12.2746 69.1574Z" fill="white"></path>
          <path d="M0.73291 80.4737H20.0162V61.1987H0.73291V80.4737ZM6.51624 64.2237H10.7329C12.0579 64.2237 12.8829 64.6154 13.4746 65.2487C14.0662 65.8737 14.4079 66.7571 14.4079 67.7237C14.4079 68.8321 13.8329 69.8071 13.0246 70.3571C14.0079 70.8404 14.7662 71.9737 14.7662 73.2404C14.7662 74.0321 14.5329 74.7654 14.1246 75.3571C13.5329 76.2154 12.5662 76.7737 11.0412 76.7737H6.51624V64.2237Z" fill="white"></path>
          <path d="M12.6829 74.6237C12.9913 74.2653 13.1496 73.782 13.1496 73.2403C13.1496 72.6987 12.9913 72.2153 12.6829 71.857C12.3579 71.4653 11.8746 71.2153 10.9413 71.2153H8.13293V75.2487H10.9496C11.8829 75.257 12.3663 75.0237 12.6829 74.6237Z" fill="white"></path>
          <path d="M20.9163 80.4737H40.1996V61.1987H20.9163V80.4737ZM27.4413 64.2237H29.0579V75.2571H34.5246V76.7821H27.4413V64.2237Z" fill="white"></path>
          <path d="M41.0912 80.4737H60.3745V61.1987H41.0912V80.4737ZM50.6995 63.9571C53.7495 63.9571 55.4495 66.5571 55.4495 70.4987C55.4495 74.4404 53.7495 77.0487 50.6995 77.0487C47.6495 77.0487 45.9495 74.4487 45.9495 70.4987C45.9495 66.5571 47.6495 63.9571 50.6995 63.9571Z" fill="white"></path>
          <path d="M50.6995 75.5241C52.7579 75.5241 53.8412 73.5491 53.8412 70.4991C53.8412 67.4491 52.7662 65.4741 50.6995 65.4741C48.6329 65.4741 47.5579 67.4491 47.5579 70.4991C47.5662 73.5491 48.6412 75.5241 50.6995 75.5241Z" fill="white"></path>
          <path d="M61.2745 80.4737H80.5579V61.1987H61.2745V80.4737ZM71.1745 63.9571C73.4912 63.9571 75.0829 65.6821 75.0829 67.7904C75.0829 68.0071 75.0829 68.2071 75.0495 68.4404L73.4162 68.6154C73.4495 68.4404 73.4662 68.1821 73.4662 67.9321C73.4662 66.5654 72.6245 65.4737 71.1745 65.4737C68.7162 65.4737 67.9995 68.2737 67.9995 70.4987C68.0912 72.6321 68.6662 75.5237 71.1579 75.5237C73.2912 75.5237 73.8329 73.7154 73.8329 72.1904V72.0321L75.4495 72.2154V72.3404C75.4495 74.9071 74.0329 77.0571 71.1662 77.0571C67.5829 77.0571 66.3995 73.4154 66.3995 70.5071C66.3829 67.4737 67.5662 63.9571 71.1745 63.9571Z" fill="white"></path>
          <path d="M81.4496 80.4737H100.733V61.1987H81.4496V80.4737ZM87.3079 64.0737H88.9246V70.4737L93.4829 64.0737H95.3829L91.5079 69.4321L95.3829 76.6237H93.6246L90.5412 70.7404L88.9246 72.9654V76.6237H87.3079V64.0737Z" fill="white"></path>
          <path d="M0.73291 100.657H20.0162V81.374H0.73291V100.657ZM10.6746 84.1324C12.9912 84.1324 14.5829 85.8574 14.5829 87.9657C14.5829 88.1824 14.5829 88.3824 14.5496 88.6157L12.9162 88.7907C12.9496 88.6157 12.9662 88.3574 12.9662 88.1074C12.9662 86.7407 12.1246 85.649 10.6746 85.649C8.21624 85.649 7.49958 88.449 7.49958 90.674C7.59124 92.8074 8.16624 95.699 10.6579 95.699C12.7912 95.699 13.3329 93.8907 13.3329 92.3657V92.2074L14.9496 92.3907V92.5157C14.9496 95.0824 13.5329 97.2324 10.6662 97.2324C7.08291 97.2324 5.89958 93.5907 5.89958 90.6824C5.89124 87.649 7.07458 84.1324 10.6746 84.1324Z" fill="white"></path>
          <path d="M20.9163 100.657H40.1996V81.374H20.9163V100.657ZM26.1413 84.4074H27.7579V89.874H33.3163V84.4074H34.9329V96.9574H33.3163V91.399H27.7579V96.9574H26.1413V84.4074Z" fill="white"></path>
          <path d="M41.0912 100.657H60.3745V81.374H41.0912V100.657ZM49.8912 84.4074H51.5079L55.5412 96.9574H53.8745L52.9579 94.0907H48.4412L47.5245 96.9574H45.8579L49.8912 84.4074Z" fill="white"></path>
          <path d="M50.9912 87.8156C50.8162 87.2573 50.7079 86.7739 50.7079 86.7739C50.7079 86.7739 50.5995 87.2573 50.4245 87.8156L48.9329 92.5656H52.4829L50.9912 87.8156Z" fill="white"></path>
          <path d="M61.2745 100.657H80.5579V81.374H61.2745V100.657ZM70.0579 84.4074H71.6745V96.9574H70.0579V84.4074Z" fill="white"></path>
          <path d="M81.4496 100.657H100.733V81.374H81.4496V100.657ZM86.7246 84.2574H88.3412L92.8412 92.5074C93.1079 92.9907 93.4829 93.8157 93.4829 93.8157C93.4829 93.8157 93.4496 92.9574 93.4496 92.5074V84.2574H95.0662V96.8074H93.4496L88.9496 88.5574C88.6829 88.074 88.3079 87.249 88.3079 87.249C88.3079 87.249 88.3412 88.1074 88.3412 88.5574V96.8074H86.7246V84.2574Z" fill="white"></path>
        </g>
      </g>
    </g>
    <defs>
      <clipPath id="clip0_821_740">
        <rect width="100" height="100" fill="white" transform="translate(0.73291 0.657227)"></rect>
      </clipPath>
      <clipPath id="clip1_821_740">
        <rect width="100" height="100" fill="white" transform="translate(0.73291 0.657227)"></rect>
      </clipPath>
      <clipPath id="clip2_821_740">
        <rect width="100" height="100" fill="white" transform="translate(0.73291 0.657227)"></rect>
      </clipPath>
    </defs>
  </symbol>
  <symbol xmlns="http://www.w3.org/2000/svg" viewBox="0 0 40 40" id="scroll-down">
    <g fill="none" fill-rule="evenodd">
      <path d="M40 40V0H0v40z"></path>
      <g stroke="#FFF" stroke-width="2">
        <path d="M20 31.18V6.566M31.429 21.29 20 32.72 8.571 21.29"></path>
      </g>
    </g>
  </symbol>
</svg>