<svg width="65" height="16" viewBox="0 0 65 16" fill="none" xmlns="http://www.w3.org/2000/svg">
<path d="M5.14676 15.4129C7.19049 15.4129 8.81995 14.5015 9.8142 13.2587H9.86944C10.0904 14.4463 10.7532 15.1091 12.5208 15.1091C13.156 15.1091 14.0674 15.0263 14.9512 14.8606V12.7616C14.7854 12.7892 14.7026 12.7892 14.5921 12.7892C14.1502 12.7892 14.0674 12.4578 14.0674 11.7121V6.24375C14.0674 1.90772 11.9408 0.361115 8.10188 0.361115C3.32397 0.361115 1.33547 2.68103 1.19738 5.38759H5.39532C5.53341 4.00669 6.2791 3.34386 7.90856 3.34386C9.17899 3.34386 9.78658 3.84098 9.78658 4.61429C9.78658 6.02281 7.60476 6.24375 6.05815 6.57517C3.04779 7.21038 0.64502 8.34272 0.64502 11.2702C0.64502 13.7835 2.38495 15.4129 5.14676 15.4129ZM6.99716 12.375C5.86482 12.375 5.17437 11.8778 5.17437 10.8007C5.17437 9.80648 5.75435 9.11603 7.38382 8.72937C8.54377 8.45319 9.2066 8.28749 9.78658 8.06654V9.25412C9.78658 10.8836 8.76472 12.375 6.99716 12.375Z" fill="#DFE3E8"/>
<path d="M15.8231 0.830621V14.971H20.2419V8.39796C20.2419 5.8571 22.0647 4.61429 24.0532 4.61429C24.357 4.61429 24.6056 4.64191 24.9646 4.69714V0.830621C24.4675 0.720149 24.1361 0.720149 23.7494 0.720149C22.2028 0.720149 20.9876 1.65916 20.2972 3.15053H20.2419V0.830621H15.8231Z" fill="#DFE3E8"/>
<path d="M34.7869 6.10566H39.2334C38.8744 2.7915 36.3888 0.361115 32.3013 0.361115C27.9377 0.361115 25.1206 3.50957 25.1206 7.90083C25.1206 12.3197 27.9377 15.4406 32.4118 15.4406C36.4716 15.4406 39.0125 13.0102 39.2334 9.64077H34.7869C34.6488 10.9388 34.1241 12.1264 32.3842 12.1264C30.5338 12.1264 29.65 10.5522 29.65 7.90083C29.65 5.2495 30.5614 3.67528 32.3842 3.67528C34.1517 3.67528 34.6488 4.94571 34.7869 6.10566Z" fill="#DFE3E8"/>
<path d="M40.0007 0.830621V14.971H44.4196V8.39796C44.4196 5.8571 46.2424 4.61429 48.2309 4.61429C48.5347 4.61429 48.7832 4.64191 49.1423 4.69714V0.830621C48.6451 0.720149 48.3137 0.720149 47.9271 0.720149C46.3805 0.720149 45.1653 1.65916 44.4748 3.15053H44.4196V0.830621H40.0007Z" fill="#DFE3E8"/>
<path d="M57.1822 14.9219C61.5607 14.9219 64.302 12.1806 64.302 7.82121C64.302 3.44277 61.5607 0.701477 57.1822 0.701477C52.8038 0.701477 50.0625 3.44277 50.0625 7.82121C50.0625 12.1806 52.8038 14.9219 57.1822 14.9219ZM57.1822 13.5513C53.7556 13.5513 51.7377 11.3811 51.7377 7.82121C51.7377 4.26135 53.7556 2.07212 57.1822 2.07212C60.6088 2.07212 62.6267 4.26135 62.6267 7.82121C62.6267 11.3811 60.6088 13.5513 57.1822 13.5513ZM57.2965 12.0854C59.5999 12.0854 60.8944 10.6958 61.0086 8.81112H58.5529C58.4767 9.53452 58.2102 10.2008 57.2013 10.2008C56.1543 10.2008 55.6593 9.32512 55.6593 7.82121C55.6593 6.29828 56.1543 5.42259 57.2013 5.42259C58.2102 5.42259 58.4767 6.14598 58.5529 6.79323H61.0086C60.8183 4.92763 59.4857 3.53795 57.1442 3.53795C54.6694 3.53795 53.1465 5.3274 53.1465 7.82121C53.1465 10.3341 54.7455 12.0854 57.2965 12.0854Z" fill="#DFE3E8"/>
</svg>
