<svg width="184" height="184" viewBox="0 0 184 184" fill="none" xmlns="http://www.w3.org/2000/svg">
<circle cx="92.1436" cy="91.7148" r="90.8819" fill="#23272D" stroke="#DFE3E8"/>
<mask id="mask0_85_311" style="mask-type:alpha" maskUnits="userSpaceOnUse" x="0" y="0" width="184" height="184">
<circle cx="92.1436" cy="91.7148" r="90.8819" fill="#23272D" stroke="#DFE3E8"/>
</mask>
<g mask="url(#mask0_85_311)">
<line x1="-0.0117188" y1="62.3809" x2="200.997" y2="62.3809" stroke="#DFE3E8"/>
<line x1="-0.0117188" y1="128.729" x2="200.997" y2="128.729" stroke="#DFE3E8"/>
<line x1="19.7255" y1="20.2793" x2="167.923" y2="156.082" stroke="#DFE3E8"/>
<line x1="-0.0117188" y1="147.404" x2="200.997" y2="147.404" stroke="#DFE3E8"/>
<line x1="66.3643" y1="207.126" x2="66.3643" y2="6.11667" stroke="#DFE3E8"/>
<line x1="136.644" y1="207.126" x2="136.644" y2="6.11667" stroke="#DFE3E8"/>
<line x1="43.7568" y1="207.126" x2="43.7568" y2="6.11667" stroke="#DFE3E8"/>
<circle cx="64.7957" cy="57.4795" r="71.3504" stroke="#DFE3E8"/>
<path d="M-43.4473 200.479V200.979H-42.9473H-22.0472H-21.5472V200.479V97.143L41.175 200.738L41.3209 200.979H41.6027H65.5427H66.0427V200.479V62.8782V62.3782H65.5427H44.4528H43.9528V62.8782V167.963L-18.5792 64.371L-18.725 64.1294H-19.0073H-42.9473H-43.4473V64.6294V200.479ZM174.191 106.723L174.274 107.119H174.68H196.53H197.126L197.022 106.533C194.725 93.515 188.879 82.463 179.173 74.669C169.469 66.8763 155.955 62.3782 138.39 62.3782C118.879 62.3782 102.828 69.6135 91.6584 82.0155C80.4938 94.4123 74.2399 111.934 74.2399 132.459C74.2399 153.063 79.7245 170.856 90.196 183.508C100.677 196.172 116.118 203.639 135.92 203.639C146.337 203.639 154.78 201.728 161.802 198.049C168.658 194.456 174.128 189.195 178.749 182.444L183.889 200.616L183.992 200.979H184.37H198.62H199.12V200.479V129.419V128.919H198.62H137.44H136.94V129.419V146.899V147.399H137.44H176.837C176.576 169.427 159.075 184.589 137.06 184.589C121.366 184.589 111.362 177.932 105.256 168.129C99.1273 158.291 96.9 145.241 96.9 132.459C96.9 119.796 99.8314 106.793 106.457 96.9716C113.067 87.173 123.367 80.5194 138.2 80.5194C148.193 80.5194 156.299 82.8761 162.343 87.3101C168.382 91.74 172.407 98.2758 174.191 106.723Z" stroke="#DFE3E8"/>
<circle cx="92.1436" cy="91.7148" r="90.8819" stroke="#DFE3E8"/>
</g>
</svg>
