<svg width="149" height="149" viewBox="0 0 149 149" fill="none" xmlns="http://www.w3.org/2000/svg">
<path d="M5.09299 74.7117L5.11883 75.9833C5.15502 76.8207 5.11884 78.051 5.27392 79.6897C5.56387 84.3794 6.34349 89.0259 7.60007 93.5535C9.53013 100.611 12.5304 107.332 16.4963 113.481C24.653 126.151 36.5886 135.935 50.6132 141.446C56.0675 143.577 61.7639 145.027 67.5734 145.763C69.0724 145.975 70.5612 146.057 72.0809 146.202C73.6317 146.238 75.2496 146.378 76.7332 146.331C78.2168 146.285 79.8348 146.3 81.4114 146.171C82.988 146.042 84.5491 145.892 86.1257 145.721C89.3151 145.296 92.4721 144.655 95.575 143.804C97.1258 143.421 98.6766 142.863 100.258 142.372C101.809 141.782 103.36 141.265 104.864 140.568C117.772 135.064 128.778 125.889 136.513 114.181C144.248 102.474 148.373 88.7515 148.373 74.7195C148.373 60.6874 144.248 46.9649 136.513 35.2576C128.778 23.5503 117.772 14.3747 104.864 8.87133C103.36 8.17348 101.763 7.65657 100.258 7.06728C98.7076 6.55035 97.1568 6.03342 95.575 5.63539C92.4726 4.78305 89.3154 4.14405 86.1257 3.72281C84.5491 3.55222 82.9776 3.32994 81.4217 3.26791C80.6411 3.22656 79.8709 3.15419 79.0904 3.13868L76.7177 3.10764C75.1928 3.06111 73.6162 3.20068 72.1119 3.23687C70.5612 3.3816 69.0673 3.4643 67.5734 3.67624C61.7639 4.41178 56.0675 5.86156 50.6132 7.99259C36.5886 13.5043 24.653 23.2878 16.4963 35.9581C12.5313 42.1039 9.53112 48.8208 7.60007 55.8751C6.34529 60.3925 5.56568 65.0285 5.27392 69.7079C5.12401 71.2586 5.15502 72.613 5.11883 73.4659C5.08265 74.3188 5.09299 74.7737 5.09299 74.7737V74.7117ZM0.647461 74.6548C0.647461 74.6548 0.647465 74.2051 0.683649 73.3418C0.719834 72.4786 0.683652 71.2328 0.864575 69.4598C1.76607 56.6867 5.97171 44.3673 13.0691 33.7095C18.6372 25.346 25.8479 18.2021 34.2629 12.7121C39.0565 9.6131 44.1839 7.06407 49.5483 5.1133C55.279 3.04797 61.2429 1.6989 67.3046 1.0968C68.8553 0.915878 70.432 0.869348 72.0086 0.765963C73.6007 0.765963 75.1721 0.672917 76.8004 0.765963L79.1679 0.859037C79.964 0.900391 80.7859 0.993444 81.5923 1.06064C83.2258 1.1692 84.8282 1.43284 86.4514 1.65512C89.71 2.18297 92.9291 2.93075 96.0868 3.89337C97.6944 4.33275 99.2555 4.92719 100.842 5.49064C102.393 6.13679 103.985 6.70544 105.495 7.46014C116.718 12.6063 126.475 20.4782 133.878 30.3589C141.282 40.2397 146.096 51.8154 147.882 64.0321C148.896 71.1348 148.896 78.3454 147.882 85.4482C146.083 97.6611 141.264 109.232 133.863 119.111C126.461 128.991 116.71 136.867 105.495 142.025C103.975 142.775 102.393 143.349 100.842 143.99C99.2555 144.538 97.6944 145.147 96.0868 145.592C92.9237 146.55 89.6994 147.293 86.4359 147.815C84.8179 148.037 83.2051 148.301 81.5923 148.414C79.9795 148.528 78.3719 148.657 76.7694 148.704C75.1669 148.75 73.6007 148.704 72.0241 148.704C70.4423 148.601 68.8398 148.549 67.2891 148.373C61.2283 147.766 55.2649 146.417 49.5328 144.357C44.174 142.398 39.052 139.844 34.2629 136.742C25.8479 131.252 18.6372 124.108 13.0691 115.745C5.98024 105.091 1.77847 92.7799 0.874908 80.0153C0.709493 78.2991 0.735336 76.9707 0.693982 76.0816C0.652628 75.1924 0.662968 74.7117 0.662968 74.7117L0.647461 74.6548Z" fill="#DFE3E8"/>
<path d="M38.8377 19.5768C31.5261 24.6398 25.2776 31.0868 20.4456 38.553C16.8271 44.167 14.0705 50.2916 12.2679 56.7228L12.149 57.1519C11.562 59.2817 11.0841 61.4401 10.7171 63.6186C10.5586 64.5904 10.4276 65.5018 10.3242 66.353C10.2002 67.3559 10.1123 68.2812 10.0503 69.1083C10.0244 69.4391 10.0037 69.7596 9.98307 70.0594C9.8435 71.5275 9.87452 72.7836 9.83834 73.5745C9.83834 73.8536 9.83834 74.0914 9.83834 74.262C9.83834 74.6083 9.83834 74.7789 9.83834 74.7789V74.7272C9.83834 74.7272 9.83833 75.1304 9.86418 75.9109C9.89002 76.6915 9.86417 77.8598 10.0089 79.3692C10.1537 80.8786 10.2674 82.7137 10.5879 84.8589C10.9705 87.3712 11.5021 89.8586 12.18 92.3077C13.9709 98.8966 16.7601 105.172 20.4507 110.917C28.0626 122.747 39.1996 131.886 52.288 137.042C57.2563 138.993 62.4426 140.334 67.7336 141.038L68.1213 141.09C69.517 141.291 70.9127 141.369 72.3342 141.508C73.7661 141.545 75.291 141.674 76.6712 141.632C78.0514 141.591 79.5815 141.632 81.0444 141.488C82.5072 141.343 83.9753 141.229 85.4485 141.069C88.4286 140.678 91.3784 140.084 94.2776 139.291C95.7508 138.929 97.193 138.412 98.6559 137.957C100.088 137.404 101.556 136.923 102.962 136.277C114.812 131.247 124.949 122.886 132.142 112.209C135.858 106.757 138.723 100.771 140.64 94.4581C144.628 81.5958 144.628 67.8276 140.64 54.9653C138.723 48.6727 135.863 42.7069 132.158 37.271C124.962 26.5866 114.817 18.2232 102.957 13.198C101.551 12.5466 100.077 12.0659 98.6455 11.518C97.1827 11.0579 95.7456 10.541 94.2672 10.1792C91.4654 9.41362 88.6161 8.83342 85.738 8.44231L85.4434 8.40091C83.9701 8.24067 82.5021 8.0391 81.0495 7.98224C80.3207 7.94605 79.6021 7.88403 78.8681 7.86336H76.6505C75.229 7.822 73.7764 7.95122 72.3497 7.98224C70.9282 8.12181 69.5118 8.19931 68.1161 8.40091C62.6919 9.09342 57.3739 10.4529 52.2828 12.4485C47.5473 14.3115 43.0371 16.7027 38.8377 19.5768ZM17.008 36.2941C22.2111 28.4852 28.9446 21.8132 36.801 16.682C38.0003 15.9066 39.2357 15.1588 40.5073 14.4386C43.8902 12.5307 47.424 10.9038 51.0732 9.57434C56.4248 7.64086 61.9945 6.37516 67.6561 5.80595C69.1034 5.63537 70.5767 5.58885 72.0499 5.49064C73.5386 5.49064 75.0067 5.39759 76.5265 5.49064L78.7492 5.57336C79.4936 5.60955 80.2638 5.69741 81.0237 5.75427C82.2902 5.83698 83.5359 6.02307 84.7869 6.19882L85.5829 6.30742C87.8988 6.70028 90.2352 7.16032 92.5355 7.77546C93.2385 7.96672 93.9416 8.16828 94.6394 8.38539C96.1488 8.79893 97.6169 9.36755 99.1108 9.8793C100.563 10.4841 102.057 11.0217 103.484 11.7247C105.035 12.4226 106.518 13.1773 107.997 13.994C117.966 19.5096 126.442 27.3712 132.69 36.8988C138.186 45.2946 141.781 54.7895 143.225 64.7196C144.169 71.3631 144.169 78.1068 143.225 84.7503C141.662 95.38 137.652 105.502 131.512 114.318C125.372 123.135 117.269 130.406 107.842 135.559C106.415 136.344 104.964 137.073 103.489 137.745C102.057 138.453 100.563 138.986 99.1056 139.591C97.6169 140.108 96.1488 140.671 94.6394 141.085C91.6709 141.978 88.6451 142.669 85.5829 143.152C84.0632 143.359 82.5538 143.602 81.0392 143.705C79.5246 143.809 78.0204 143.928 76.5213 143.974C75.0222 144.021 73.5593 143.974 72.0861 143.974C70.6077 143.876 69.1086 143.824 67.6561 143.659C61.9953 143.085 56.4262 141.819 51.0732 139.89C47.431 138.558 43.9026 136.933 40.5228 135.031C39.2443 134.308 38.0037 133.556 36.801 132.778C28.9446 127.646 22.2111 120.974 17.008 113.166C11.4779 104.846 7.8038 95.4331 6.23539 85.5671C5.86837 83.2564 5.68228 81.2714 5.57373 79.669C5.46517 78.0665 5.43934 76.8104 5.40315 75.9781C5.36697 75.1459 5.36696 74.7169 5.36696 74.7169V74.6548C5.36696 74.6548 5.36697 74.2361 5.40315 73.4297C5.43934 72.6233 5.40314 71.4551 5.57373 69.8113C5.62025 69.0721 5.68746 68.2605 5.77534 67.3869C5.88389 66.353 6.02862 65.2107 6.21988 63.9804C7.78282 54.0847 11.4626 44.6428 17.008 36.2992V36.2941Z" fill="#DFE3E8"/>
<path d="M41.4585 23.5002C34.677 28.2112 28.8822 34.2028 24.4 41.1376C21.0439 46.3552 18.4878 52.0458 16.8168 58.0203C16.7806 58.1547 16.7392 58.2891 16.7031 58.4183C16.1572 60.3977 15.7155 62.4044 15.3797 64.4301C15.2298 65.3296 15.1058 66.1773 15.0127 66.963C14.8938 67.8935 14.8163 68.7568 14.7594 69.5477C14.7336 69.8578 14.7181 70.1524 14.6974 70.4316C14.5682 71.8014 14.594 72.9645 14.563 73.6986C14.563 73.957 14.563 74.1741 14.563 74.3344V74.7944V74.7117C14.563 74.7117 14.563 75.0839 14.594 75.8076C14.625 76.5313 14.594 77.6168 14.7233 79.0228C14.8525 80.4288 14.961 82.1243 15.266 84.1197C15.5991 86.4552 16.0738 88.7684 16.6876 91.0464C18.3555 97.1603 20.9495 102.983 24.3794 108.312C31.4377 119.31 41.7763 127.809 53.9318 132.607C58.5463 134.421 63.3625 135.672 68.2764 136.334L68.6382 136.386C69.9357 136.572 71.2228 136.649 72.5565 136.773C73.8902 136.81 75.3065 136.934 76.5833 136.897C77.8601 136.861 79.2868 136.897 80.6463 136.768C82.0058 136.639 83.3705 136.53 84.7404 136.381C87.5105 136.02 90.253 135.473 92.9491 134.742C94.3241 134.406 95.6577 133.93 97.0224 133.501C98.3509 132.984 99.7207 132.545 101.029 131.95C112.056 127.283 121.491 119.515 128.188 109.588C131.649 104.518 134.319 98.9508 136.107 93.078C139.815 81.1092 139.815 68.2986 136.107 56.3299C134.32 50.4763 131.657 44.9271 128.208 39.8711C121.511 29.9447 112.077 22.1762 101.049 17.5091C99.7414 16.9094 98.3716 16.4752 97.0379 15.9583C95.6784 15.5293 94.3344 15.0537 92.9646 14.7177C90.3584 14.0068 87.7076 13.4715 85.0298 13.1152L84.7559 13.0791C83.3912 12.9292 82.0265 12.7431 80.6773 12.6966C79.995 12.6604 79.3333 12.6035 78.6458 12.588H76.5781C75.26 12.5518 73.9108 12.6707 72.5875 12.7069C71.2642 12.831 69.946 12.9137 68.6486 13.0998C63.6093 13.748 58.6697 15.0172 53.9421 16.8784C49.5467 18.6126 45.3594 20.8338 41.4585 23.5002ZM20.9573 38.8838C25.7964 31.6271 32.0545 25.4253 39.3546 20.652C40.4711 19.9283 41.6187 19.2391 42.7973 18.5843C45.9424 16.81 49.2272 15.2956 52.6188 14.0561C57.5893 12.2537 62.7631 11.0713 68.0231 10.5358C69.3723 10.3756 70.7369 10.3291 72.1068 10.236C73.4921 10.236 74.8568 10.143 76.2422 10.236L78.3099 10.3136C79.0077 10.3446 79.7262 10.4221 80.4344 10.4789C81.613 10.5565 82.776 10.7219 83.9546 10.8873L84.6938 10.9907C86.8546 11.3525 89.0256 11.7713 91.1915 12.3502C91.848 12.526 92.5097 12.712 93.161 12.9136C94.5722 13.2962 95.9472 13.8234 97.3378 14.3042C98.6973 14.8676 100.093 15.369 101.427 16.0255C102.853 16.6768 104.261 17.3833 105.65 18.1449C114.968 23.2903 122.888 30.6352 128.72 39.5403C133.837 47.3587 137.188 56.198 138.542 65.4433C139.424 71.6271 139.424 77.9049 138.542 84.0887C137.085 94.0036 133.345 103.445 127.617 111.667C121.888 119.89 114.327 126.669 105.531 131.47C104.197 132.199 102.838 132.881 101.458 133.506C100.077 134.132 98.7283 134.664 97.3636 135.228C95.9679 135.703 94.5929 136.262 93.1817 136.618C90.4077 137.451 87.5806 138.095 84.7197 138.546C83.2981 138.738 81.887 138.96 80.4758 139.063C79.0646 139.167 77.6585 139.27 76.2577 139.306C74.8568 139.342 73.5076 139.306 72.1223 139.306C70.7473 139.213 69.3516 139.162 67.9869 139.006C62.7254 138.467 57.5502 137.283 52.5775 135.481C49.1856 134.244 45.9008 132.731 42.7559 130.958C41.567 130.293 40.4143 129.604 39.2977 128.89C31.9977 124.115 25.7396 117.911 20.9005 110.653C17.117 105.027 14.2666 98.8269 12.4591 92.2922C11.7756 89.8743 11.2353 87.4181 10.8412 84.9364C10.5052 82.7809 10.3242 80.9303 10.226 79.4364C10.1278 77.9425 10.102 76.7639 10.0658 75.9885C10.0296 75.2131 10.0296 74.8151 10.0296 74.8151V74.7479C10.0296 74.7479 10.0296 74.3602 10.0658 73.6055C10.102 72.8508 10.0658 71.7704 10.2209 70.23C10.2725 69.5373 10.3294 68.7929 10.4121 67.9658C10.5155 66.994 10.6499 65.9344 10.8308 64.7868C11.2196 62.271 11.7634 59.7815 12.4591 57.3328C14.2754 50.764 17.1454 44.5333 20.9573 38.8838Z" fill="#DFE3E8"/>
<path d="M44.0844 27.4288C37.8258 31.782 32.4787 37.317 28.3441 43.7222C25.2476 48.5439 22.8869 53.8001 21.3399 59.3177C21.3088 59.4418 21.2727 59.5658 21.2416 59.6899C20.7358 61.5159 20.3269 63.3674 20.0165 65.2365C19.8821 66.067 19.7684 66.8475 19.6754 67.5781C19.572 68.431 19.4996 69.2323 19.4479 69.9405C19.4479 70.23 19.4066 70.5039 19.3911 70.7624C19.2773 72.0288 19.298 73.104 19.267 73.7812C19.267 74.0259 19.267 74.2223 19.267 74.3705C19.267 74.6496 19.267 74.7685 19.267 74.7685V74.7117C19.267 74.7117 19.267 75.0528 19.267 75.7455C19.267 76.4382 19.267 77.4152 19.3859 78.7178C19.5048 80.0205 19.6082 81.5816 19.9028 83.4166C20.2251 85.57 20.6774 87.7019 21.2571 89.8006C22.7959 95.4389 25.1857 100.809 28.3441 105.727C34.8562 115.884 44.3944 123.739 55.6118 128.182C59.8718 129.863 64.3181 131.028 68.8553 131.651L69.1913 131.692C70.3854 131.868 71.5899 131.94 72.8098 132.059C74.0452 132.095 75.353 132.209 76.5265 132.173C77.6999 132.137 79.0284 132.173 80.2845 132.059C81.5406 131.945 82.8019 131.847 84.0683 131.708C86.6296 131.382 89.1652 130.88 91.6568 130.203C92.9284 129.898 94.1638 129.459 95.4251 129.066C96.6554 128.596 97.9219 128.182 99.1315 127.629C109.338 123.319 118.072 116.136 124.269 106.952C127.474 102.261 129.947 97.1109 131.605 91.677C135.04 80.6065 135.04 68.7548 131.605 57.6843C129.946 52.2683 127.478 47.134 124.285 42.4557C118.087 33.2721 109.354 26.0883 99.147 21.7788C97.9322 21.2257 96.6709 20.8122 95.4355 20.3418C94.2 19.8714 92.9336 19.5096 91.6619 19.1994C89.2527 18.5456 86.8021 18.0551 84.3268 17.7314L84.0787 17.7003C82.8174 17.5607 81.5561 17.3954 80.3052 17.3488C79.6797 17.3178 79.0645 17.2661 78.4287 17.2506H76.5213C75.3065 17.2196 74.0607 17.3333 72.8356 17.3695C71.6157 17.4832 70.3958 17.5608 69.2172 17.7314C64.5642 18.3416 60.0036 19.5204 55.6376 21.2413C51.5668 22.8642 47.6914 24.9398 44.0844 27.4288ZM24.9066 41.4684C29.3836 34.7655 35.166 29.0341 41.9082 24.6167C42.942 23.9499 43.9759 23.3038 45.0924 22.6886C47.997 21.046 51.0311 19.6439 54.1644 18.4964C58.7529 16.8281 63.5288 15.7292 68.3849 15.2243C69.6359 15.0744 70.8972 15.0278 72.1636 14.94C73.4404 14.94 74.7069 14.8521 76.0147 14.94L77.9428 15.0072C78.589 15.0382 79.2558 15.1054 79.9123 15.1571C81.0082 15.2243 82.0937 15.3793 83.1896 15.5241L83.8771 15.6223C85.8827 15.9583 87.8987 16.3408 89.9199 16.8784C90.535 17.0387 91.145 17.2093 91.755 17.3953C93.068 17.752 94.3396 18.2379 95.6371 18.6876C96.9345 19.1374 98.2217 19.6749 99.4416 20.2797C100.768 20.8828 102.078 21.5376 103.37 22.2441C112.039 27.0213 119.405 33.851 124.822 42.1352C129.548 49.3771 132.639 57.5622 133.879 66.1204C134.692 71.845 134.692 77.6559 133.879 83.3805C132.639 91.9387 129.548 100.124 124.822 107.366C119.377 115.691 111.965 122.548 103.241 127.329C101.995 128.006 100.734 128.642 99.4519 129.221C98.17 129.8 96.9087 130.296 95.6371 130.813C94.3654 131.33 93.0525 131.749 91.7498 132.106C89.1686 132.875 86.5384 133.469 83.8771 133.884C82.5538 134.054 81.2459 134.261 79.933 134.349C78.62 134.437 77.3174 134.53 76.0199 134.561C74.7224 134.592 73.4766 134.561 72.2101 134.561C70.9385 134.473 69.6256 134.421 68.3953 134.277C63.5338 133.771 58.7527 132.67 54.1592 130.999C51.0319 129.851 48.0031 128.451 45.1027 126.812C44.0069 126.195 42.942 125.551 41.9082 124.879C35.166 120.462 29.3836 114.73 24.9066 108.027C21.3895 102.801 18.7414 97.0408 17.0649 90.9688C16.4264 88.7271 15.9258 86.4484 15.5658 84.1455C15.2505 82.145 15.0799 80.4288 14.992 79.0383C14.9042 77.6478 14.8732 76.5571 14.8421 75.8386C14.8111 75.1201 14.8111 74.753 14.8111 74.753V74.6806C14.8111 74.6806 14.8111 74.3239 14.8421 73.6468C14.8732 72.9696 14.8421 71.9461 14.9869 70.5452C15.0334 69.9094 15.0851 69.2168 15.1678 68.4466C15.2608 67.542 15.3849 66.5598 15.5503 65.495C15.9133 63.1607 16.4191 60.8509 17.0649 58.5786C18.7372 52.489 21.3855 46.7106 24.9066 41.4684Z" fill="#DFE3E8"/>
<path d="M46.7052 31.3575C40.9749 35.3582 36.0797 40.4378 32.2934 46.312C29.4609 50.735 27.304 55.5558 25.8939 60.6152L25.8009 60.9564C25.3386 62.6326 24.9659 64.3322 24.6843 66.0481C24.5551 66.808 24.4569 67.5265 24.369 68.1933C24.2708 68.9739 24.2139 69.713 24.1622 70.3592C24.1622 70.6228 24.1261 70.8762 24.1105 71.1139C24.0072 72.2822 24.0227 73.2695 23.9968 73.8846C23.9968 74.1069 23.9968 74.2878 23.9968 74.4016C23.9968 74.6497 23.9968 74.7428 23.9968 74.7428V74.7117C23.9968 74.7117 23.9968 75.0219 23.9968 75.6318C23.9968 76.2418 23.9968 77.1826 24.1054 78.356C24.2139 79.5294 24.307 80.982 24.5654 82.6671C24.8575 84.6398 25.2719 86.5923 25.8061 88.5135C27.2105 93.6919 29.3982 98.6252 32.2934 103.142C38.2518 112.467 46.9916 119.683 57.2763 123.768C61.1817 125.315 65.2582 126.389 69.4188 126.967L69.7289 127.009C70.8196 127.164 71.9258 127.236 73.0527 127.345C74.1796 127.453 75.3841 127.484 76.4593 127.458C77.5345 127.433 78.7544 127.458 79.9071 127.36C81.0599 127.262 82.2178 127.174 83.3809 127.045C85.7324 126.75 88.0606 126.292 90.349 125.675C91.5172 125.391 92.6544 124.993 93.8123 124.641C94.9702 124.29 96.1023 123.835 97.2188 123.333C106.601 119.392 114.633 112.806 120.336 104.378C123.283 100.068 125.559 95.3362 127.087 90.3434C130.247 80.1671 130.247 69.2718 127.087 59.0955C125.566 54.1186 123.3 49.4007 120.367 45.1024C114.662 36.658 106.617 30.0614 97.2188 26.121C96.1023 25.6041 94.9392 25.2319 93.8072 24.808C92.6751 24.3841 91.5069 24.043 90.3386 23.7742C88.1316 23.1771 85.8864 22.7316 83.6186 22.4405L83.386 22.4044C82.2333 22.2803 81.0754 22.1304 79.9278 22.089C79.3489 22.089 78.7854 22.0167 78.2013 22.0063H76.4489C75.3375 22.0063 74.1951 22.0839 73.0734 22.1201C71.9517 22.1562 70.83 22.301 69.7341 22.4612C65.4681 23.0289 61.2877 24.1173 57.2866 25.7023C53.5588 27.185 50.0094 29.082 46.7052 31.3575ZM28.8559 44.053C32.9695 37.9044 38.2765 32.645 44.4618 28.5868C45.406 27.9699 46.3796 27.3789 47.3824 26.8137C50.0474 25.3047 52.8307 24.0151 55.7048 22.9575C59.9142 21.4209 64.2958 20.4053 68.7519 19.9335C69.8995 19.7939 71.0574 19.7474 72.2205 19.6647C73.3836 19.582 74.557 19.5768 75.7563 19.6336L77.5396 19.6905C78.1392 19.6905 78.7492 19.7784 79.3592 19.8249C80.393 19.8869 81.37 20.0213 82.3883 20.1557L83.019 20.2436C84.8748 20.5486 86.7357 20.8949 88.6121 21.3912C89.1807 21.5411 89.7441 21.6962 90.3076 21.8668C91.5224 22.1976 92.7061 22.6421 93.926 23.0557C95.146 23.4692 96.2987 23.9655 97.4463 24.5238C98.6766 25.082 99.8827 25.6851 101.065 26.333C109.081 30.7479 115.888 37.0657 120.889 44.7302C125.227 51.3968 128.065 58.9262 129.206 66.7976C129.57 69.4288 129.758 72.0814 129.769 74.7376C129.758 77.3923 129.568 80.0432 129.201 82.6723C128.819 85.294 128.25 87.8852 127.5 90.4262C125.974 95.4805 123.749 100.297 120.889 104.735C115.862 112.432 109.011 118.767 100.946 123.178C99.7914 123.806 98.6214 124.388 97.436 124.926C96.2832 125.484 95.084 125.918 93.9054 126.394C92.7268 126.869 91.5224 127.252 90.2869 127.583C87.8988 128.288 85.4653 128.83 83.0035 129.206C81.7887 129.366 80.5791 129.552 79.385 129.63C78.1909 129.707 76.971 129.795 75.7666 129.821C74.5621 129.847 73.4353 129.821 72.2722 129.79C71.1091 129.759 69.915 129.661 68.7675 129.521C64.3063 129.046 59.9197 128.029 55.7048 126.492C52.8346 125.435 50.0548 124.147 47.3927 122.641C46.3865 122.072 45.4095 121.479 44.4618 120.863C38.2765 116.804 32.9695 111.545 28.8559 105.396C25.613 100.584 23.1692 95.279 21.619 89.6869C21.0305 87.6184 20.5696 85.5158 20.2388 83.3908C19.9442 81.5454 19.7839 79.9637 19.7219 78.6817C19.6599 77.3997 19.6133 76.3865 19.5823 75.7249L19.5513 74.7272V74.6497C19.5513 74.6497 19.5513 74.3189 19.5823 73.683C19.6133 73.0472 19.5823 72.1322 19.7167 70.8089C19.7581 70.2196 19.8046 69.5838 19.8821 68.8705C19.97 68.0382 20.0837 67.1285 20.2388 66.1463C20.5726 63.9917 21.0387 61.8596 21.6345 59.7623C23.181 54.1715 25.6194 48.8669 28.8559 44.053Z" fill="#DFE3E8"/>
<path d="M49.3312 35.2808C44.1265 38.9275 39.6811 43.5521 36.2427 48.8966C33.6713 52.9244 31.7148 57.313 30.4377 61.9179C30.4067 62.0212 30.3808 62.1246 30.3498 62.228C29.9297 63.7593 29.5932 65.3124 29.3418 66.8803C29.2229 67.573 29.1299 68.2243 29.0523 68.8291C28.9645 69.5373 28.9128 70.2144 28.8662 70.8037C28.8662 71.0415 28.8507 71.269 28.8197 71.4861C28.7267 72.5613 28.7422 73.4556 28.7163 74.0139C28.7163 74.2206 28.7163 74.3808 28.7163 74.4997C28.7163 74.7168 28.7163 74.7841 28.7163 74.7841V74.7117C28.7163 74.7117 28.7163 74.996 28.7163 75.5439C28.7163 76.0919 28.7163 76.9396 28.8197 78.0252C28.8917 79.3374 29.0298 80.6451 29.2332 81.9434C29.5012 83.7338 29.8758 85.5065 30.355 87.2522C31.6309 91.9532 33.6144 96.4327 36.2376 100.537C41.651 109.02 49.59 115.59 58.9356 119.322C62.4876 120.738 66.1961 121.723 69.9822 122.258L70.2614 122.3C71.2539 122.439 72.2618 122.506 73.2854 122.61C74.3089 122.713 75.4099 122.739 76.3869 122.718C77.3639 122.698 78.4546 122.718 79.5298 122.636C80.605 122.553 81.6336 122.47 82.6933 122.351C84.8367 122.087 86.9593 121.676 89.0463 121.121C90.0801 120.863 91.145 120.501 92.1995 120.175C93.2541 119.849 94.2672 119.441 95.3011 118.986C103.862 115.412 111.194 109.417 116.397 101.736C119.088 97.8065 121.167 93.4911 122.564 88.9374C125.452 79.6594 125.452 69.7227 122.564 60.4446C121.168 55.9039 119.092 51.6008 116.407 47.6818C111.2 40.0046 103.87 34.0105 95.3114 30.4321C94.2776 29.9772 93.2437 29.6309 92.2099 29.2432C91.176 28.8555 90.1112 28.5557 89.0463 28.2972C87.0312 27.756 84.981 27.3554 82.9104 27.098L82.7037 27.0669C81.6698 26.9532 80.5998 26.8189 79.5556 26.7827C79.0387 26.7827 78.5218 26.7206 77.979 26.7103H76.3869C75.353 26.7103 74.3192 26.7878 73.2854 26.824C72.2515 26.8602 71.2177 26.9894 70.251 27.1341C66.3697 27.6643 62.5668 28.6623 58.9253 30.1065C55.5451 31.4699 52.3273 33.2054 49.3312 35.2808ZM32.7897 46.6531C36.5395 41.057 41.371 36.2676 46.9999 32.567C47.8649 32.0018 48.7505 31.4625 49.6569 30.949C52.0831 29.5718 54.6175 28.3945 57.2349 27.4288C61.0698 26.0217 65.0626 25.0894 69.1241 24.653C70.158 24.5237 71.2228 24.4772 72.2825 24.3997C73.3422 24.3221 74.4122 24.3169 75.5081 24.3583L77.1416 24.41C77.6895 24.41 78.253 24.4875 78.8112 24.5237C79.7365 24.5806 80.6567 24.6995 81.5923 24.8235L82.1712 24.9011C83.8771 25.1802 85.5778 25.4852 87.3095 25.9349C87.8264 26.0693 88.3433 26.2089 88.8602 26.3691C89.9768 26.6638 91.0623 27.0721 92.1634 27.4495C93.2644 27.8268 94.3396 28.2869 95.3941 28.7935C96.4486 29.3001 97.6375 29.8584 98.7334 30.4528C106.108 34.4859 112.373 40.2781 116.97 47.3148C120.931 53.4038 123.516 60.2839 124.543 67.4748C125.238 72.2744 125.238 77.149 124.543 81.9486C123.518 89.14 120.933 96.0205 116.97 102.109C112.359 109.18 106.066 114.998 98.6559 119.043C97.6221 119.617 96.521 120.154 95.4251 120.645C94.3293 121.136 93.2644 121.555 92.1788 121.989C91.0933 122.424 89.9871 122.77 88.8706 123.07C86.678 123.717 84.4429 124.211 82.1816 124.548C81.065 124.693 79.9536 124.858 78.8423 124.926C77.7309 124.993 76.6299 125.07 75.534 125.091C74.4381 125.112 73.4042 125.091 72.3497 125.055C71.2952 125.019 70.1993 124.931 69.15 124.801C65.0888 124.36 61.0965 123.426 57.2608 122.02C54.6493 121.054 52.1202 119.879 49.6982 118.505C48.7815 117.988 47.8924 117.447 47.0309 116.882C41.4009 113.183 36.5691 108.393 32.8207 102.796C29.8417 98.3948 27.5999 93.5376 26.1834 88.4153C25.637 86.5232 25.2123 84.598 24.9118 82.6516C24.643 80.9613 24.4931 79.5139 24.4259 78.3353C24.3587 77.1567 24.3225 76.2314 24.2966 75.6215L24.2656 74.7169V74.6341C24.2656 74.6341 24.2656 74.3343 24.2915 73.7502C24.3173 73.1661 24.2915 72.3235 24.4155 71.1294C24.4569 70.6125 24.4931 70.0129 24.5654 69.3564C24.6481 68.5913 24.7567 67.7591 24.8963 66.8597C25.1974 64.8853 25.6256 62.9324 26.1782 61.0132C27.5937 55.8956 29.8318 51.042 32.8052 46.6428L32.7897 46.6531Z" fill="#DFE3E8"/>
<path d="M51.952 39.2094C47.2744 42.5022 43.2806 46.6716 40.192 51.4863C37.8803 55.1145 36.1241 59.0679 34.9814 63.2153C34.9508 63.307 34.9249 63.4002 34.9039 63.4945C34.5221 64.8667 34.2184 66.2595 33.9941 67.666C33.8907 68.2863 33.808 68.8756 33.7357 69.4184C33.6529 70.049 33.6116 70.6642 33.5702 71.1966C33.5702 71.4085 33.5444 71.6153 33.5289 71.8118C33.4462 72.7887 33.4565 73.5952 33.4358 74.0914C33.4358 74.2827 33.4358 74.4274 33.4358 74.5256C33.4358 74.7117 33.4358 74.753 33.4358 74.753C33.4358 74.753 33.4358 75.0063 33.4358 75.4974C33.4358 75.9885 33.4358 76.7535 33.5289 77.7305C33.5921 78.913 33.7163 80.0914 33.9011 81.2611C34.1393 82.8706 34.476 84.464 34.9091 86.0323C36.0564 90.2567 37.8376 94.2828 40.192 97.9732C45.0635 105.62 52.2101 111.546 60.6259 114.918C63.8233 116.199 67.1621 117.095 70.5715 117.585L70.8196 117.621C71.7139 117.751 72.6289 117.818 73.5542 117.906C74.4795 117.994 75.4719 118.03 76.3404 118.014C77.2088 117.999 78.2271 118.014 79.1731 117.947C80.1191 117.88 81.0754 117.802 82.0265 117.694C83.9612 117.467 85.8771 117.1 87.7592 116.598C88.7155 116.37 89.6563 116.045 90.6074 115.75C91.5586 115.455 92.4942 115.094 93.4143 114.685C101.152 111.475 107.782 106.072 112.489 99.1414C114.925 95.5938 116.807 91.6965 118.071 87.5831C120.691 79.2002 120.691 70.2179 118.071 61.8351C116.808 57.7327 114.929 53.8459 112.499 50.3078C107.793 43.3774 101.162 37.9744 93.4246 34.7639C92.5045 34.3556 91.543 34.0403 90.6074 33.6939C89.6718 33.3476 88.7103 33.0788 87.7488 32.8462C85.9196 32.3703 84.0593 32.0231 82.1816 31.8071L81.9903 31.7761C81.0547 31.6727 80.1036 31.559 79.1524 31.5332C78.682 31.5332 78.2116 31.4763 77.736 31.4711H76.2938C75.3892 31.4711 74.4484 31.5435 73.5283 31.5797C72.6082 31.6159 71.6881 31.7399 70.7886 31.8692C64.0143 32.8021 57.5583 35.3303 51.952 39.2457V39.2094ZM36.7545 49.2274C40.1434 44.1861 44.499 39.8674 49.569 36.5215C50.3443 36.0045 51.1197 35.529 51.9675 35.0638C54.1524 33.8201 56.4343 32.7552 58.7909 31.8795C62.2416 30.6111 65.8325 29.7624 69.486 29.3518C70.4268 29.2329 71.3779 29.1864 72.3342 29.114C73.2905 29.0416 74.2572 29.0312 75.2445 29.0674L76.7332 29.1088C77.2501 29.1088 77.7671 29.176 78.253 29.207C79.0955 29.2535 79.9278 29.3621 80.7859 29.4706L81.3028 29.543C82.8786 29.7761 84.4417 30.0884 85.9861 30.4787C86.4669 30.5976 86.9373 30.7268 87.4128 30.8664C88.4467 31.1352 89.4237 31.5021 90.4213 31.8433C91.419 32.1845 92.4063 32.6032 93.3678 33.0633C94.3293 33.5234 95.4096 34.0299 96.4124 34.5675C103.132 38.2395 108.835 43.5218 113.011 49.9408C115.364 53.6203 117.197 57.6073 118.459 61.7886C119.077 63.8874 119.543 66.0278 119.855 68.1933C120.482 72.5388 120.482 76.9518 119.855 81.2973C119.543 83.4645 119.077 85.6066 118.459 87.7071C117.197 91.8769 115.367 95.8532 113.021 99.5239C108.827 105.969 103.094 111.268 96.3401 114.944C95.3752 115.468 94.393 115.953 93.3936 116.401C92.427 116.862 91.419 117.229 90.4316 117.616C89.4443 118.004 88.4312 118.324 87.4077 118.598C85.4092 119.181 83.3728 119.625 81.3132 119.927C80.2793 120.056 79.2868 120.201 78.2737 120.263C77.2605 120.325 76.2628 120.387 75.2652 120.402C74.2675 120.418 73.3474 120.371 72.3963 120.361C71.4451 120.351 70.4526 120.237 69.5067 120.118C65.8453 119.711 62.2471 118.86 58.7909 117.585C56.4365 116.71 54.1564 115.647 51.9727 114.406C51.1508 113.936 50.3443 113.45 49.569 112.943C44.499 109.597 40.1434 105.279 36.7545 100.237C34.048 96.2424 32.0089 91.8342 30.7168 87.185C30.2215 85.4659 29.8364 83.7168 29.5641 81.9486C29.3496 80.6509 29.2012 79.3431 29.1195 78.0303C29.0213 76.9448 29.0265 76.1125 29.0006 75.5594C28.9748 75.0063 28.9748 74.7427 28.9748 74.7427V74.6548C28.9748 74.6548 28.9748 74.386 29.0006 73.8587C29.0265 73.3315 29.0006 72.5665 29.1144 71.4913C29.1506 70.9743 29.1816 70.4574 29.2488 69.8733C29.3263 69.1858 29.4245 68.4259 29.5486 67.6092C29.8239 65.8147 30.2141 64.0397 30.7168 62.2952C32.0083 57.641 34.0474 53.2276 36.7545 49.2274Z" fill="#DFE3E8"/>
<path d="M54.5779 43.1381C50.4263 46.075 46.8823 49.7875 44.1413 54.071C42.0928 57.3038 40.5354 60.8228 39.52 64.5128L39.4528 64.7661C39.1171 65.9857 38.8496 67.2231 38.6516 68.4725C38.5585 69.0256 38.481 69.5477 38.4189 70.0232C38.3569 70.4988 38.3104 71.1295 38.2742 71.574C38.2742 71.7704 38.2742 71.9513 38.238 72.1271C38.1657 73.0007 38.176 73.7192 38.1553 74.1586C38.1553 74.3292 38.1553 74.4584 38.1553 74.5411C38.1553 74.6238 38.1553 74.7117 38.1553 74.7117C38.1553 74.7117 38.1553 74.934 38.1553 75.3682C38.1553 75.8024 38.1553 76.4847 38.238 77.3583C38.2928 78.4076 38.4033 79.4533 38.5689 80.4909C38.7799 81.9225 39.0785 83.3398 39.4631 84.7348C40.4721 88.4908 42.0404 92.0735 44.1154 95.3627C48.4278 102.174 54.7684 107.46 62.2439 110.478C65.0861 111.628 68.0551 112.437 71.0884 112.886L71.3107 112.917C72.1068 113.031 72.9235 113.093 73.7506 113.176C74.5777 113.259 75.4564 113.29 76.2266 113.279C76.9969 113.269 77.9066 113.279 78.7492 113.228C79.5918 113.176 80.4447 113.103 81.2925 113.01C83.0175 112.813 84.726 112.492 86.4048 112.049C87.2578 111.842 88.1003 111.563 88.9481 111.299C89.7958 111.036 90.6333 110.715 91.4552 110.353C94.8359 108.945 98.004 107.073 100.868 104.791C103.793 102.409 106.365 99.6246 108.508 96.5206C110.688 93.3474 112.374 89.8615 113.507 86.1822C115.847 78.6965 115.847 70.6751 113.507 63.1895C112.371 59.5252 110.687 56.0536 108.514 52.8924C106.369 49.7896 103.797 47.0051 100.873 44.6217C98.0079 42.3415 94.8401 40.4697 91.4604 39.0596C90.6384 38.6977 89.7804 38.4186 88.9429 38.1136C88.1055 37.8086 87.2474 37.5657 86.3583 37.3589C84.7362 36.9352 83.0867 36.6243 81.4217 36.4284H81.2563C80.424 36.3354 79.5763 36.2424 78.7286 36.2165C78.3047 36.2165 77.886 36.17 77.4621 36.1648H76.175C75.3737 36.1648 74.5363 36.2372 73.7144 36.2734C72.8925 36.3096 72.0758 36.4181 71.2797 36.537C68.1695 36.9761 65.1247 37.7937 62.2129 38.9717C59.5204 40.0713 56.9595 41.4688 54.5779 43.1381ZM40.7038 51.8172C43.728 47.3259 47.6105 43.4769 52.1277 40.4915C52.817 40.0435 53.5269 39.6093 54.2574 39.1888C59.0538 36.4381 64.3602 34.6934 69.853 34.0609C70.6904 33.9524 71.5382 33.9007 72.3911 33.8387C73.244 33.7767 74.1073 33.7611 74.9757 33.787L76.3197 33.818C76.7694 33.818 77.2295 33.8697 77.6844 33.9007C78.4442 33.9421 79.1989 34.0299 79.9743 34.123L80.4499 34.1902C81.8727 34.3929 83.284 34.6689 84.6783 35.0172C85.1125 35.1258 85.5416 35.2395 85.9655 35.3636C86.8908 35.6065 87.785 35.9322 88.6845 36.2423C89.5839 36.5525 90.4782 36.9195 91.3466 37.333C92.215 37.7466 93.192 38.2015 94.0966 38.6823C100.171 41.9865 105.324 46.7555 109.087 52.5564C111.18 55.8441 112.813 59.4025 113.941 63.1326C114.489 65.0121 114.903 66.9277 115.182 68.8653C115.747 72.751 115.747 76.6982 115.182 80.5839C114.904 82.5216 114.489 84.4372 113.941 86.3166C112.813 90.0484 111.18 93.6085 109.087 96.898C105.313 102.718 100.139 107.499 94.0398 110.803C93.1662 111.279 92.2771 111.713 91.3725 112.116C90.4678 112.519 89.5891 112.855 88.6948 113.207C87.8005 113.558 86.8856 113.838 85.9655 114.086C84.1593 114.603 82.32 114.997 80.4602 115.264C79.5401 115.378 78.6303 115.502 77.7206 115.554C76.8108 115.605 75.9113 115.657 75.0171 115.667C74.1228 115.678 73.306 115.636 72.4324 115.621C71.5589 115.605 70.6956 115.502 69.8478 115.393C66.5867 115.018 63.3827 114.251 60.3054 113.109C58.2107 112.323 56.1815 111.372 54.2368 110.266C53.5028 109.847 52.7894 109.408 52.0967 108.958C47.5835 105.971 43.7033 102.124 40.6779 97.6372C38.2386 94.0497 36.4018 90.0879 35.2399 85.9082C34.7943 84.3642 34.4489 82.7929 34.2061 81.2043C34.0124 80.0386 33.8795 78.8635 33.808 77.684C33.7201 76.7018 33.7201 75.9523 33.6995 75.456C33.6788 74.9598 33.6736 74.7272 33.6736 74.7272V74.6341C33.6736 74.6341 33.6736 74.3912 33.6995 73.926C33.7253 73.4607 33.6995 72.7629 33.8028 71.8066C33.8339 71.3672 33.8597 70.902 33.9217 70.354C33.9838 69.8061 34.082 69.0514 34.1957 68.3225C34.4357 66.7079 34.781 65.1106 35.2295 63.541C36.4026 59.3607 38.2518 55.4004 40.7038 51.8172Z" fill="#DFE3E8"/>
<path d="M57.1987 47.0615C53.5766 49.6472 50.4846 52.9041 48.0906 56.6556C46.3014 59.4904 44.9443 62.5758 44.0638 65.8103L44.0017 66.0325C43.7086 67.1007 43.4756 68.1845 43.3039 69.2788C43.2263 69.7647 43.1591 70.2248 43.1023 70.6487C43.0454 71.0726 43.0092 71.6153 42.9782 72.0289C42.9782 72.1995 42.9782 72.3597 42.9472 72.5148C42.8852 73.2901 42.8903 73.9156 42.8748 74.2981C42.8748 74.4532 42.8748 74.5617 42.8748 74.6289V75.2958C42.8748 75.6887 42.8748 76.2728 42.9472 77.043C42.9961 77.9606 43.0927 78.8751 43.2367 79.7827C43.421 81.0329 43.6817 82.2706 44.0172 83.489C44.8978 86.7774 46.2693 89.9142 48.0854 92.7936C50.478 96.5462 53.5703 99.8034 57.1936 102.388C61.5055 105.418 66.4587 107.411 71.6674 108.213H71.8586C72.5513 108.317 73.275 108.374 73.9987 108.446C74.7224 108.518 75.4978 108.555 76.1646 108.549C76.8314 108.544 77.643 108.549 78.3874 108.508C79.1317 108.467 79.8709 108.415 80.6153 108.327C82.1305 108.162 83.6317 107.887 85.1074 107.505C85.8621 107.324 86.5961 107.081 87.3456 106.849C88.0952 106.616 88.8292 106.332 89.5529 106.032C95.6451 103.547 100.872 99.3265 104.585 93.8946C106.508 91.1075 107.998 88.0454 109.005 84.8124C111.072 78.2214 111.072 71.1554 109.005 64.5645C108 61.3388 106.514 58.2837 104.595 55.5028C100.882 50.0821 95.6586 45.8709 89.5736 43.3914C88.8447 43.0812 88.0952 42.8331 87.3508 42.5694C86.6064 42.3058 85.8569 42.0939 85.1022 41.9182C83.6763 41.5453 82.2251 41.2775 80.7601 41.1169H80.6153C79.8916 41.0342 79.1473 40.9567 78.4029 40.936C78.0307 40.936 77.6585 40.905 77.2863 40.8998H76.1336C75.4358 40.8998 74.7017 40.967 73.978 41.0032C73.2543 41.0394 72.541 41.1376 71.8431 41.241C66.5655 42.0126 61.5435 44.0154 57.1832 47.0874L57.1987 47.0615ZM44.653 54.4018C47.3138 50.4646 50.7209 47.0874 54.6813 44.4614C55.2861 44.0634 55.9064 43.6808 56.5474 43.3138C60.7504 40.8936 65.3994 39.3481 70.2148 38.7701C70.954 38.6718 71.6984 38.6201 72.4479 38.5633C73.1975 38.5064 73.9573 38.4857 74.7327 38.5013H75.9268C76.3248 38.5013 76.7332 38.5426 77.1416 38.5685C77.8136 38.5995 78.4856 38.677 79.1835 38.7545L79.6073 38.8115C80.8767 38.988 82.1362 39.2295 83.3809 39.5351C83.7685 39.6281 84.1511 39.7264 84.5336 39.835C85.3555 40.0521 86.1567 40.3519 86.9631 40.6103C87.7695 40.8688 88.5604 41.2151 89.3358 41.577C90.1112 41.9388 90.9848 42.3472 91.7963 42.7762C97.2164 45.7108 101.81 49.9632 105.154 55.141C106.991 58.0456 108.426 61.1861 109.418 64.4766C109.9 66.134 110.265 67.8234 110.509 69.5321C111.013 72.9599 111.013 76.4428 110.509 79.8705C110.265 81.5793 109.9 83.2686 109.418 84.9261C108.425 88.2178 106.99 91.3599 105.154 94.2668C101.798 99.4657 97.1842 103.733 91.7395 106.673C90.9572 107.097 90.1629 107.486 89.3565 107.841C88.5708 108.203 87.7592 108.498 86.9579 108.808C86.1567 109.118 85.34 109.366 84.5181 109.583C82.9068 110.04 81.266 110.385 79.6073 110.617C78.7906 110.715 77.979 110.819 77.1674 110.865C76.3559 110.912 75.5598 110.948 74.7689 110.953C73.978 110.958 73.2647 110.917 72.5203 110.896C71.7759 110.876 70.9695 110.782 70.2458 110.684C67.3851 110.341 64.5755 109.657 61.8769 108.648C60.0393 107.953 58.259 107.114 56.5526 106.141C55.9116 105.768 55.2861 105.386 54.6762 104.988C50.7183 102.36 47.3132 98.9833 44.653 95.0474C42.4843 91.8692 40.85 88.3578 39.8146 84.6521C39.4153 83.2819 39.1079 81.8865 38.8945 80.4754C38.7197 79.4401 38.6006 78.3961 38.5379 77.348C38.4655 76.4744 38.4603 75.7972 38.4396 75.3682C38.419 74.9391 38.3983 74.7117 38.3983 74.7117V74.6135C38.3983 74.6135 38.3983 74.4015 38.3983 73.988C38.3983 73.5744 38.3983 72.9541 38.4913 72.1271C38.5223 71.7342 38.5379 71.3258 38.5947 70.8348C38.6516 70.3437 38.7394 69.682 38.8428 69.0307C39.0552 67.5964 39.3661 66.1784 39.7733 64.7868C40.8218 61.0819 42.4702 57.5737 44.653 54.4018Z" fill="#DFE3E8"/>
<path d="M59.8247 50.9901C56.7256 53.2248 54.0831 56.0323 52.0399 59.2608C50.5123 61.697 49.3556 64.3468 48.6075 67.1232C48.6075 67.1904 48.5713 67.2524 48.5558 67.3196C48.3017 68.2355 48.1032 69.166 47.9613 70.1059C47.889 70.5246 47.8321 70.9123 47.7856 71.2741C47.7391 71.636 47.7081 72.1115 47.6822 72.4631C47.6822 72.6078 47.6822 72.7473 47.6563 72.8817C47.6098 73.5589 47.6047 74.0965 47.5943 74.4325C47.5943 74.5669 47.5943 74.6651 47.5943 74.7117V75.2389C47.5943 75.5749 47.5943 76.0815 47.6563 76.738C47.6936 77.5264 47.7782 78.3118 47.9097 79.09C48.0599 80.1593 48.2792 81.2177 48.5661 82.2587C49.318 85.0755 50.4872 87.764 52.0347 90.2348C54.0779 93.4634 56.7205 96.2708 59.8195 98.5056C61.6181 99.7826 63.555 100.852 65.5935 101.695C67.7288 102.577 69.9598 103.207 72.2412 103.571H72.4066C72.9959 103.659 73.6265 103.711 74.252 103.778C74.8775 103.845 75.5443 103.876 76.1078 103.876C76.6712 103.876 77.3794 103.876 78.0204 103.851C78.6618 103.834 79.3019 103.784 79.9381 103.701C81.2443 103.57 82.5387 103.341 83.8099 103.013C84.4612 102.863 85.097 102.656 85.7432 102.46C86.3893 102.264 87.0252 102.026 87.6506 101.762C90.2225 100.708 92.6368 99.304 94.8255 97.5906C97.0546 95.7878 99.0192 93.6806 100.662 91.3307C102.327 88.9246 103.62 86.2809 104.497 83.489C106.292 77.7928 106.292 71.6822 104.497 65.986C103.623 63.2004 102.332 60.5634 100.667 58.165C97.4559 53.4773 92.9284 49.8457 87.6558 47.7283C87.0251 47.4647 86.3738 47.2527 85.7328 47.0253C85.0919 46.7978 84.4405 46.6221 83.784 46.4722C82.5567 46.1567 81.3074 45.9338 80.0467 45.8053H79.9226C79.3023 45.7381 78.6614 45.6762 78.0152 45.6606H76.0767C75.4823 45.6606 74.8516 45.7278 74.2313 45.764C73.611 45.8002 72.9907 45.8829 72.3963 45.976C67.866 46.6632 63.5601 48.4036 59.8247 51.0573V50.9901ZM48.6023 56.9864C50.8996 53.6033 53.8313 50.698 57.2349 48.4313C57.7518 48.085 58.2688 47.7542 58.8425 47.4388C62.4523 45.3491 66.4438 44.0027 70.5819 43.4792C71.2177 43.3913 71.8586 43.3396 72.5048 43.2879C73.1509 43.2362 73.8074 43.2104 74.4743 43.2207H75.5081C75.8596 43.2207 76.2163 43.2518 76.573 43.2725C77.1623 43.2725 77.7516 43.3551 78.3667 43.4223L78.7389 43.4689C79.8557 43.6141 80.9636 43.8212 82.0575 44.0892C82.3987 44.1667 82.7399 44.2494 83.0914 44.3425C83.8151 44.5286 84.5181 44.7715 85.2263 45.0145C85.9345 45.2574 86.6323 45.5314 87.294 45.8622C87.9556 46.193 88.7465 46.529 89.4599 46.896C94.2292 49.4618 98.2686 53.1971 101.199 57.7514C102.781 60.2736 104.019 62.9961 104.88 65.8464C105.292 67.2826 105.604 68.7455 105.815 70.2247C106.249 73.1916 106.249 76.2059 105.815 79.1727C105.605 80.652 105.292 82.1149 104.88 83.551C104.018 86.4026 102.78 89.1267 101.199 91.6512C98.2574 96.211 94.2032 99.9468 89.4185 102.507C88.731 102.879 88.028 103.215 87.3146 103.54C86.6013 103.866 85.9086 104.114 85.2004 104.378C84.4922 104.641 83.7737 104.864 83.05 105.05C81.634 105.445 80.1916 105.739 78.7337 105.929C78.0152 106.016 77.3018 106.099 76.5937 106.135C75.8855 106.172 75.1876 106.203 74.495 106.197C73.8023 106.192 73.2027 106.161 72.5617 106.135C71.9207 106.11 71.2384 106.032 70.5922 105.944C68.1398 105.637 65.7318 105.043 63.4173 104.176C61.8397 103.573 60.3118 102.847 58.8477 102.005C58.2894 101.685 57.7518 101.354 57.2298 101.007C53.8287 98.7394 50.899 95.8342 48.6023 92.4524C46.7009 89.6816 45.2688 86.6167 44.3636 83.3804C44.0134 82.1939 43.7439 80.985 43.5572 79.762C43.4028 78.8587 43.2992 77.9475 43.247 77.0326C43.185 76.2676 43.1798 75.6835 43.1591 75.2958V74.6444C43.1591 74.6444 43.1591 74.4584 43.1591 74.1275C43.1591 73.7967 43.1591 73.2384 43.2418 72.5147C43.2418 72.1736 43.2832 71.822 43.3349 71.3878C43.3866 70.9536 43.4641 70.354 43.5468 69.837C43.7345 68.5828 44.0073 67.3428 44.3636 66.1256C45.2619 62.8659 46.6942 59.7777 48.6023 56.9864Z" fill="#DFE3E8"/>
<path d="M62.4507 54.9135C59.8775 56.7881 57.6846 59.1354 55.9892 61.83C54.7226 63.8696 53.7645 66.0854 53.1461 68.4052C53.1461 68.4621 53.1461 68.5189 53.1047 68.5706C52.8858 69.3349 52.7132 70.1117 52.5878 70.8968C52.531 71.2483 52.4844 71.574 52.4431 71.8738C52.4017 72.1736 52.381 72.5716 52.3604 72.8663C52.3604 72.9852 52.3604 73.104 52.3604 73.2126C52.3242 73.7915 52.319 74.2464 52.3087 74.5049C52.3087 74.6238 52.3087 74.7014 52.3087 74.7324V75.1252C52.3087 75.4044 52.3087 75.8282 52.3604 76.3813C52.392 77.038 52.4628 77.6922 52.5723 78.3405C52.6874 79.2278 52.8601 80.1067 53.0892 80.9716C53.7144 83.3236 54.6866 85.5693 55.9736 87.6347C57.6691 90.3293 59.862 92.6766 62.4352 94.5511C63.9322 95.6268 65.5468 96.5286 67.2477 97.2391C69.0283 97.9885 70.8895 98.5297 72.7943 98.8519H72.9339C73.4249 98.9295 73.9677 98.9812 74.4846 99.0329C75.0016 99.0846 75.5702 99.1207 76.0354 99.1311C76.5006 99.1414 77.1054 99.1311 77.643 99.1311C78.1806 99.1311 78.7131 99.0794 79.2507 99.0174C80.3487 98.9162 81.4374 98.7312 82.5073 98.4642C83.0242 98.335 83.5876 98.1696 84.1304 98.0093C84.6732 97.8491 85.2108 97.6475 85.738 97.4304C87.9052 96.5548 89.9419 95.386 91.7912 93.9567C93.6731 92.4443 95.3347 90.6766 96.7278 88.7047C98.1392 86.6796 99.2355 84.4523 99.9792 82.0985C101.499 77.3 101.499 72.1492 99.9792 67.3507C99.235 65.0029 98.1406 62.781 96.7329 60.76C95.34 58.7865 93.6784 57.017 91.7963 55.5028C89.947 54.0735 87.9103 52.9047 85.7432 52.0291C85.2263 51.812 84.6628 51.6311 84.1201 51.4502C83.5773 51.2693 83.0242 51.1193 82.4763 50.9901C81.443 50.7398 80.3924 50.567 79.3334 50.4732H79.23C78.7017 50.4077 78.1701 50.3715 77.6378 50.3647C77.369 50.3647 77.1209 50.3647 76.8263 50.3647H76.0044C75.4875 50.3647 74.9705 50.4267 74.4536 50.468C73.9367 50.5094 73.4198 50.5766 72.9028 50.6489C70.9497 50.9675 69.0411 51.5158 67.2167 52.2824C65.5362 52.9817 63.9379 53.864 62.4507 54.9135ZM52.5516 59.5658C54.4863 56.7348 56.9423 54.2981 59.7885 52.3858C60.2228 52.0964 60.6725 51.8223 61.1325 51.5535C64.1522 49.7927 67.4899 48.6456 70.954 48.1781C71.471 48.1005 72.0241 48.0488 72.5668 48.0023C73.1096 47.9558 73.6627 47.9299 74.2262 47.9299H75.0998L76.0096 47.961C76.5265 47.961 77.0434 48.023 77.5603 48.0798L77.8808 48.1212C78.8443 48.2398 79.8004 48.4124 80.7445 48.6382C81.0444 48.7054 81.3338 48.7725 81.6233 48.85C82.254 49.0103 82.8639 49.2119 83.4687 49.4186C84.0735 49.6254 84.6835 49.8736 85.2728 50.1424C85.8621 50.4112 86.5237 50.7161 87.144 51.0314C91.2633 53.2298 94.7486 56.4498 97.2654 60.3826C98.5962 62.5211 99.639 64.8258 100.367 67.237C100.713 68.4513 100.976 69.6879 101.153 70.9381C101.525 73.4452 101.525 75.9936 101.153 78.5007C100.977 79.7511 100.714 80.9879 100.367 82.2019C99.639 84.6131 98.5962 86.9178 97.2654 89.0563C94.7418 92.9998 91.2455 96.2273 87.113 98.4281C86.5186 98.7434 85.9138 99.0328 85.2986 99.3016C84.6835 99.5704 84.0787 99.8186 83.4687 100.015C82.8588 100.211 82.2333 100.423 81.6078 100.584C80.3846 100.916 79.1391 101.159 77.8808 101.312C77.2605 101.385 76.6505 101.447 76.0406 101.473C75.4306 101.499 74.8361 101.519 74.2468 101.509C73.6575 101.499 73.1613 101.473 72.6237 101.442C72.0861 101.411 71.5072 101.343 70.9592 101.266C67.4946 100.794 64.1571 99.6434 61.1377 97.8801C60.6725 97.6165 60.2227 97.3632 59.7834 97.0479C56.9368 95.1361 54.4806 92.6992 52.5465 89.8678C50.9197 87.5011 49.697 84.8809 48.928 82.114C48.6271 81.0973 48.3974 80.061 48.2405 79.0124C48.1035 78.2396 48.012 77.4595 47.9665 76.676C47.92 76.0195 47.9097 75.5181 47.8942 75.1873C47.8786 74.8564 47.8942 74.722 47.8942 74.722V74.1637C47.8942 73.8536 47.8942 73.4091 47.9665 72.8043C47.9665 72.5096 47.9975 72.2201 48.044 71.8376C48.0906 71.455 48.1578 70.9743 48.2302 70.4884C48.3881 69.4154 48.6213 68.3548 48.928 67.3145C49.7002 64.5526 50.9246 61.9378 52.5516 59.5762V59.5658Z" fill="#DFE3E8"/>
<path d="M65.0715 58.8422C63.0267 60.364 61.2855 62.2559 59.9384 64.4197C58.9356 66.0618 58.1781 67.8416 57.6898 69.7027C57.6898 69.7493 57.664 69.7957 57.6536 69.8422C57.4863 70.4554 57.3585 71.0787 57.2711 71.7083C57.2246 71.9875 57.1833 72.2253 57.1522 72.4889C57.1212 72.7525 57.1109 73.0472 57.0902 73.2798C57.0902 73.3832 57.0902 73.4762 57.0902 73.5641C57.0902 74.0449 57.054 74.4015 57.0489 74.598C57.0489 74.6962 57.0489 74.7582 57.0489 74.7737C57.0489 74.7892 57.0489 74.722 57.0489 74.722V75.0322C57.0489 75.2493 57.0488 75.5905 57.0954 76.035C57.1115 76.5554 57.1668 77.0738 57.2608 77.5858C57.3541 78.2963 57.4975 78.9993 57.6898 79.6896C58.1793 81.565 58.9404 83.3588 59.9488 85.014C61.2976 87.1751 63.0385 89.065 65.0818 90.5863C66.281 91.4606 67.5745 92.1976 68.9381 92.7833C70.3655 93.3995 71.8588 93.8505 73.3888 94.1273H73.4973C73.885 94.1893 74.3192 94.2358 74.7483 94.2823C75.1773 94.3289 75.6219 94.3599 75.9837 94.3754C76.3456 94.3909 76.8418 94.3754 77.2812 94.3754C77.7148 94.3709 78.1479 94.3432 78.5786 94.2927C79.4672 94.2239 80.3488 94.0839 81.215 93.8739C81.6543 93.7757 82.0937 93.6517 82.5331 93.5173C82.9725 93.3829 83.4119 93.233 83.8409 93.0676C87.4657 91.6729 90.5895 89.2243 92.8095 86.0375C93.9646 84.3958 94.8639 82.5884 95.4768 80.677C96.7243 76.7732 96.7243 72.5777 95.4768 68.674C94.8618 66.765 93.9626 64.9597 92.8095 63.3187C90.5911 60.1316 87.4666 57.6842 83.8409 56.2937C83.4067 56.1232 82.957 55.9732 82.5124 55.8337C82.0679 55.6941 81.6233 55.5752 81.1736 55.4718C80.3392 55.2732 79.4906 55.1401 78.6355 55.0738H78.5528C78.1273 55.0238 77.6993 54.9979 77.2708 54.9963H75.9424C75.5547 54.9963 75.136 55.0583 74.7121 55.0945C74.2882 55.1307 73.8695 55.1927 73.4766 55.2547C71.9113 55.5311 70.3832 55.9873 68.9225 56.6142C67.5611 57.2136 66.2697 57.9608 65.0715 58.8422ZM56.4906 62.1608C58.0585 59.883 60.0377 57.9178 62.3266 56.3661C62.6781 56.1335 63.04 55.906 63.4122 55.6889C64.4042 55.1055 65.4413 54.6025 66.5137 54.1847C68.0623 53.5753 69.6751 53.1435 71.3211 52.8976C71.7501 52.8304 72.1843 52.7787 72.6237 52.7373C73.0631 52.696 73.5128 52.6649 73.9677 52.6546H75.4823C75.901 52.6546 76.33 52.696 76.7849 52.7321L77.0486 52.7684C77.8623 52.8544 78.6701 52.989 79.4678 53.1715C79.7159 53.2232 79.9847 53.2801 80.207 53.3421C80.7239 53.4714 81.2408 53.6316 81.7577 53.8074C82.2746 53.9831 82.7916 54.1795 83.2723 54.4018C83.753 54.6241 84.3061 54.8774 84.8489 55.1358C88.3186 56.9659 91.2499 59.6709 93.3523 62.9827C94.4242 64.7393 95.2667 66.6259 95.8593 68.5965C96.1363 69.5894 96.347 70.5996 96.49 71.6205C96.8028 73.6763 96.8028 75.7677 96.49 77.8236C96.3475 78.8445 96.1368 79.8547 95.8593 80.8475C95.2667 82.8181 94.4242 84.7047 93.3523 86.4613C91.2472 89.7791 88.3102 92.488 84.8334 94.3186C84.3303 94.5839 83.8134 94.8268 83.2827 95.0474C82.7657 95.2645 82.2488 95.4557 81.7319 95.6367C81.215 95.8176 80.698 95.9675 80.1811 96.1019C79.1505 96.3701 78.1019 96.5636 77.0434 96.6809C76.5265 96.7377 76.0096 96.7791 75.4926 96.7997C74.9757 96.8204 74.4898 96.7997 73.9987 96.7997C73.5076 96.7997 73.12 96.7584 72.6909 96.7222C72.2619 96.686 71.7811 96.6292 71.3366 96.562C68.5388 96.1493 65.8476 95.1978 63.4122 93.7602C63.04 93.5431 62.673 93.3157 62.3215 93.0831C60.0351 91.5301 58.0577 89.565 56.4906 87.2884C55.1219 85.3373 54.0941 83.1683 53.4511 80.8734C53.1918 80.0281 52.9982 79.164 52.8721 78.2888C52.7582 77.6477 52.6823 77.0004 52.6447 76.3503C52.6085 75.7972 52.5981 75.3785 52.5826 75.1045C52.5671 74.8306 52.5826 74.7272 52.5826 74.7272V74.2464C52.5826 73.9983 52.5826 73.6313 52.6447 73.1402C52.6447 72.8973 52.6447 72.6647 52.7067 72.339C52.7687 72.0134 52.8049 71.6205 52.8669 71.2173C52.9892 70.3223 53.1846 69.4389 53.4511 68.5758C54.0941 66.281 55.1219 64.1118 56.4906 62.1608Z" fill="#DFE3E8"/>
<path d="M61.7476 74.7117C61.7476 74.7117 61.7477 75.0529 61.7942 75.6938C61.8042 76.0877 61.8456 76.4801 61.9182 76.8673C61.9881 77.3907 62.0934 77.9089 62.2336 78.418C62.5901 79.8225 63.1472 81.1683 63.8877 82.4138C64.8873 84.0467 66.1787 85.4817 67.6974 86.6474C69.5504 88.021 71.6819 88.9721 73.9419 89.4336C74.5363 89.5318 75.3685 89.6249 75.901 89.6663C76.5609 89.6998 77.2223 89.6894 77.8808 89.6352C79.2616 89.5436 80.6216 89.251 81.918 88.7668C83.2771 88.2529 84.5604 87.5574 85.7328 86.6991C86.9216 85.7684 87.9757 84.6777 88.8654 83.458C89.7598 82.192 90.4569 80.7977 90.9331 79.3226C91.9119 76.3178 91.9119 73.0798 90.9331 70.0749C90.4569 68.5998 89.7598 67.2055 88.8654 65.9395C87.9743 64.721 86.9203 63.6304 85.7328 62.6984C84.5592 61.842 83.2762 61.1466 81.918 60.6307C80.6323 60.1474 79.2824 59.8565 77.9118 59.7674C77.2241 59.71 76.5334 59.698 75.8441 59.7313C75.2807 59.7778 74.5828 59.8605 73.9832 59.9639C71.8981 60.3545 69.9192 61.182 68.1765 62.3919C66.4339 63.6017 64.967 65.1666 63.8722 66.9837C63.1317 68.2292 62.5746 69.575 62.2181 70.9795C62.0797 71.4766 61.976 71.9826 61.9079 72.4941C61.8769 72.706 61.8459 72.9024 61.8148 73.0782C61.7838 73.2539 61.8148 73.5021 61.7787 73.6778C61.7476 74.4222 61.7322 74.815 61.7322 74.815L61.7476 74.7117ZM57.3021 74.598C57.3021 74.598 57.3021 74.1999 57.3693 73.4607C57.3693 73.2643 57.3693 73.0885 57.4158 72.8197C57.4624 72.5509 57.4985 72.2459 57.5502 71.9255C57.6427 71.2118 57.7984 70.5077 58.0155 69.8216C58.5315 67.9989 59.3568 66.2783 60.4553 64.7351C61.8426 62.7377 63.6358 61.0555 65.7176 59.7985C68.1437 58.3522 70.8839 57.515 73.7041 57.3586C74.4588 57.3586 75.1463 57.3586 75.9785 57.3896C76.7098 57.4546 77.4365 57.5634 78.1547 57.7153C79.6778 58.0313 81.1507 58.553 82.5331 59.266C85.3532 60.7277 87.7307 62.9178 89.4185 65.6087C90.2353 66.9819 90.8794 68.4507 91.3363 69.9818C92.2186 73.0821 92.2186 76.367 91.3363 79.4673C90.8794 80.9984 90.2353 82.4673 89.4185 83.8405C87.78 86.4837 85.465 88.6411 82.7132 90.0897C79.9614 91.5383 76.8725 92.2255 73.7661 92.0802C71.1303 91.9536 68.5591 91.2225 66.251 89.9434C63.9429 88.6643 61.9599 86.8715 60.4553 84.7038C59.358 83.1579 58.5329 81.4359 58.0155 79.6121C57.8054 78.9367 57.6515 78.2451 57.5554 77.5444C57.4579 77.0324 57.3957 76.5142 57.3693 75.9936C57.328 75.151 57.3021 74.7013 57.3021 74.7013V74.598Z" fill="#DFE3E8"/>
</svg>
