<svg width="138" height="138" viewBox="0 0 138 138" fill="none" xmlns="http://www.w3.org/2000/svg">
<path d="M0.855469 69.0127C0.855469 76.9225 36.316 81.822 69.1719 81.822C102.028 81.822 137.488 76.9225 137.488 69.0127C137.488 61.1029 102.028 56.2034 69.1719 56.2034C36.316 56.2034 0.855469 61.1029 0.855469 69.0127ZM136.065 69.0127C136.065 74.3891 107.458 80.3988 69.1719 80.3988C30.8862 80.3988 2.27873 74.3891 2.27873 69.0127C2.27873 63.6363 30.8862 57.6266 69.1719 57.6266C107.458 57.6266 136.065 63.6363 136.065 69.0127Z" fill="#DFE3E8"/>
<path d="M0.855469 69.0127C0.855469 78.4311 31.5018 86.0918 69.1719 86.0918C106.842 86.0918 137.488 78.4311 137.488 69.0127C137.488 59.5943 106.842 51.9336 69.1719 51.9336C31.5018 51.9336 0.855469 59.5943 0.855469 69.0127ZM136.065 69.0127C136.065 76.4172 108.593 84.6685 69.1719 84.6685C29.7512 84.6685 2.27873 76.4172 2.27873 69.0127C2.27873 61.6082 29.7512 53.3568 69.1719 53.3568C108.593 53.3568 136.065 61.6082 136.065 69.0127Z" fill="#DFE3E8"/>
<path d="M0.855469 69.0127C0.855469 80.7866 31.5018 90.3616 69.1719 90.3616C106.842 90.3616 137.488 80.7866 137.488 69.0127C137.488 57.2388 106.842 47.6638 69.1719 47.6638C31.5018 47.6638 0.855469 57.2388 0.855469 69.0127ZM136.065 69.0127C136.065 78.6197 109.187 88.9383 69.1719 88.9383C29.157 88.9383 2.27873 78.6197 2.27873 69.0127C2.27873 59.4057 29.157 49.0871 69.1719 49.0871C109.187 49.0871 136.065 59.4057 136.065 69.0127Z" fill="#DFE3E8"/>
<path d="M0.855469 69.0127C0.855469 83.1385 31.5018 94.6313 69.1719 94.6313C106.842 94.6313 137.488 83.1385 137.488 69.0127C137.488 54.8869 106.842 43.394 69.1719 43.394C31.5018 43.394 0.855469 54.8869 0.855469 69.0127ZM136.065 69.0127C136.065 82.128 105.429 93.2081 69.1719 93.2081C32.9144 93.2081 2.27873 82.128 2.27873 69.0127C2.27873 55.8974 32.9144 44.8173 69.1719 44.8173C105.429 44.8173 136.065 55.8974 136.065 69.0127Z" fill="#DFE3E8"/>
<path d="M0.855469 69.0127C0.855469 85.494 31.4982 98.9011 69.1719 98.9011C106.846 98.9011 137.488 85.494 137.488 69.0127C137.488 52.5314 106.846 39.1243 69.1719 39.1243C31.4982 39.1243 0.855469 52.5314 0.855469 69.0127ZM136.065 69.0127C136.065 84.7077 106.059 97.4779 69.1719 97.4779C32.2846 97.4779 2.27873 84.7077 2.27873 69.0127C2.27873 53.3177 32.2846 40.5475 69.1719 40.5475C106.059 40.5475 136.065 53.3177 136.065 69.0127Z" fill="#DFE3E8"/>
<path d="M0.855469 69.0127C0.855469 87.846 31.4982 103.171 69.1719 103.171C106.846 103.171 137.488 87.846 137.488 69.0127C137.488 50.1794 106.846 34.8545 69.1719 34.8545C31.4982 34.8545 0.855469 50.1794 0.855469 69.0127ZM136.065 69.0127C136.065 87.0632 106.059 101.748 69.1719 101.748C32.2846 101.748 2.27873 87.0632 2.27873 69.0127C2.27873 50.9622 32.2846 36.2777 69.1719 36.2777C106.059 36.2777 136.065 50.9622 136.065 69.0127Z" fill="#DFE3E8"/>
<path d="M0.855469 69.0127C0.855469 90.2015 31.5018 107.441 69.1719 107.441C106.842 107.441 137.488 90.2015 137.488 69.0127C137.488 47.8239 106.842 30.5847 69.1719 30.5847C31.5018 30.5847 0.855469 47.8239 0.855469 69.0127ZM136.065 69.0127C136.065 89.4187 106.059 106.017 69.1719 106.017C32.2846 106.017 2.27873 89.4187 2.27873 69.0127C2.27873 48.6067 32.2846 32.008 69.1719 32.008C106.059 32.008 136.065 48.6067 136.065 69.0127Z" fill="#DFE3E8"/>
<path d="M0.855469 69.0127C0.855469 92.5569 31.5018 111.71 69.1719 111.71C106.842 111.71 137.488 92.5569 137.488 69.0127C137.488 45.4684 106.842 26.3149 69.1719 26.3149C31.5018 26.3149 0.855469 45.4684 0.855469 69.0127ZM136.065 69.0127C136.065 91.7848 106.059 110.287 69.1719 110.287C32.2846 110.287 2.27873 91.7848 2.27873 69.0127C2.27873 46.2406 32.2846 27.7382 69.1719 27.7382C106.059 27.7382 136.065 46.2406 136.065 69.0127Z" fill="#DFE3E8"/>
<path d="M0.855469 69.0127C0.855469 94.9124 31.5018 115.98 69.1719 115.98C106.842 115.98 137.488 94.9124 137.488 69.0127C137.488 43.1129 106.842 22.0452 69.1719 22.0452C31.5018 22.0452 0.855469 43.1129 0.855469 69.0127ZM136.065 69.0127C136.065 94.1261 106.059 114.557 69.1719 114.557C32.2846 114.557 2.27873 94.1261 2.27873 69.0127C2.27873 43.8993 32.2846 23.4684 69.1719 23.4684C106.059 23.4684 136.065 43.8993 136.065 69.0127Z" fill="#DFE3E8"/>
<path d="M0.855469 69.0127C0.855469 97.2644 31.5018 120.25 69.1719 120.25C106.842 120.25 137.488 97.2644 137.488 69.0127C137.488 40.761 106.842 17.7754 69.1719 17.7754C31.5018 17.7754 0.855469 40.761 0.855469 69.0127ZM136.065 69.0127C136.065 96.4816 106.059 118.827 69.1719 118.827C32.2846 118.827 2.27873 96.4816 2.27873 69.0127C2.27873 41.5438 32.2846 19.1986 69.1719 19.1986C106.059 19.1986 136.065 41.5438 136.065 69.0127Z" fill="#DFE3E8"/>
<path d="M0.855469 69.0127C0.855469 99.6127 31.4982 124.52 69.1719 124.52C106.846 124.52 137.488 99.6127 137.488 69.0127C137.488 38.4126 106.846 13.5056 69.1719 13.5056C31.4982 13.5056 0.855469 38.4126 0.855469 69.0127ZM136.065 69.0127C136.065 98.8335 106.059 123.097 69.1719 123.097C32.2846 123.097 2.27873 98.8335 2.27873 69.0127C2.27873 39.1919 32.2846 14.9289 69.1719 14.9289C106.059 14.9289 136.065 39.1919 136.065 69.0127Z" fill="#DFE3E8"/>
<path d="M0.855469 69.0127C0.855469 101.975 31.4982 128.79 69.1719 128.79C106.846 128.79 137.488 101.975 137.488 69.0127C137.488 36.05 106.846 9.23584 69.1719 9.23584C31.4982 9.23584 0.855469 36.05 0.855469 69.0127ZM136.065 69.0127C136.065 101.189 106.059 127.366 69.1719 127.366C32.2846 127.366 2.27873 101.189 2.27873 69.0127C2.27873 36.8364 32.2846 10.6591 69.1719 10.6591C106.059 10.6591 136.065 36.8364 136.065 69.0127Z" fill="#DFE3E8"/>
<path d="M0.855469 69.0127C0.855469 104.327 31.4982 133.059 69.1719 133.059C106.846 133.059 137.488 104.327 137.488 69.0127C137.488 33.6981 106.846 4.96606 69.1719 4.96606C31.4982 4.96606 0.855469 33.6981 0.855469 69.0127ZM136.065 69.0127C136.065 103.527 106.059 131.636 69.1719 131.636C32.2846 131.636 2.27873 103.527 2.27873 69.0127C2.27873 34.4987 32.2846 6.38932 69.1719 6.38932C106.059 6.38932 136.065 34.4987 136.065 69.0127Z" fill="#DFE3E8"/>
<path d="M0.855469 69.0127C0.855469 106.729 31.4555 137.329 69.1719 137.329C106.888 137.329 137.488 106.729 137.488 69.0127C137.488 31.2963 106.888 0.696289 69.1719 0.696289C31.4555 0.696289 0.901725 31.2963 0.855469 69.0127ZM136.065 69.0127C136.065 105.953 106.113 135.906 69.1719 135.906C32.2312 135.906 2.27873 105.95 2.27873 69.0127C2.27873 32.0756 32.2276 2.11955 69.1719 2.11955C106.116 2.11955 136.019 32.0863 136.065 69.0127Z" fill="#DFE3E8"/>
<circle cx="68.6451" cy="69.0127" r="67.8165" stroke="#DFE3E8"/>
</svg>
