<svg width="250" height="250" viewBox="0 0 250 250" fill="none" xmlns="http://www.w3.org/2000/svg">
<path d="M179 13L179 237" stroke="#DEE3E8"/>
<circle cx="125" cy="125" r="124.5" fill="#22272D" stroke="#DEE3E8"/>
<path d="M117.5 249.5V0.5M63.5 233H187.5" stroke="#DEE3E8"/>
<path d="M152 247L152 4" stroke="#DEE3E8"/>
<path d="M87.5 202.5C81.5 182.5 69.5 171 49.5 167.5C29.5 163.999 14.6925 173.062 11 175M115 202.5C112.5 187.5 103.812 167.5 90 159C70.5 147 60 145.5 47.5 144.5C35 143.5 15 145.5 3.5 151.5" stroke="#DEE3E8"/>
<path d="M222 203L28 203" stroke="#DEE3E8"/>
<path d="M8.00034 84C13.2003 91.2 22.5003 98 26.5003 100.5C41.3337 106.833 76.6003 112.9 99.0003 86.5C121.4 60.1 114.667 18.6667 108 1.5L179.5 237M136 2C145.5 25.5 142.5 69 126.5 93C110.5 117 86.5003 128 55.5003 129.5C30.7003 130.7 9.16701 118.667 1.50034 112.5L132 249M204.5 29.5H45.0003M226.5 54H23.0003M0.5 129.5H249.5M2 144H248" stroke="#DEE3E8"/>
<path d="M179.5 14V236.5" stroke="#DEE3E8"/>
</svg>
