<svg width="139" height="139" viewBox="0 0 139 139" fill="none" xmlns="http://www.w3.org/2000/svg">
<path d="M86.7289 25.8296L83.3544 25.7718L83.2725 30.1874L86.8012 30.1247L86.7289 25.8296Z" fill="#DFE3E8"/>
<path d="M86.6132 19.4857L83.4653 19.4279L83.3882 23.8435L86.6903 23.7857L86.6132 19.4857Z" fill="#DFE3E8"/>
<path d="M93.6368 57.6599L89.1247 57.5828L89.0524 61.7912L93.7042 61.7092L93.6368 57.6599Z" fill="#DFE3E8"/>
<path d="M80.0427 6.68705L77.3528 6.63885L77.2709 11.2714L80.1247 11.2184L80.0427 6.68705Z" fill="#DFE3E8"/>
<path d="M86.3866 6.79793L83.6919 6.74972L83.6148 11.1557L86.4637 11.1075L86.3866 6.79793Z" fill="#DFE3E8"/>
<path d="M86.8397 32.1735L83.2388 32.106L83.1616 36.5313L86.9169 36.4638L86.8397 32.1735Z" fill="#DFE3E8"/>
<path d="M86.9506 38.5174L83.1279 38.4499L83.0507 42.8752L87.0277 42.8029L86.9506 38.5174Z" fill="#DFE3E8"/>
<path d="M87.2929 57.5491L82.7904 57.4671L82.7085 61.902L87.37 61.8201L87.2929 57.5491Z" fill="#DFE3E8"/>
<path d="M79.927 0.343161L77.4637 0.294956L77.3817 4.92754L80.0138 4.87933L79.927 0.343161Z" fill="#DFE3E8"/>
<path d="M87.1772 51.2052L82.9013 51.128L82.8194 55.563L87.2543 55.4858L87.1772 51.2052Z" fill="#DFE3E8"/>
<path d="M87.0663 44.8613L83.0122 44.789L82.9351 49.2191L87.1386 49.142L87.0663 44.8613Z" fill="#DFE3E8"/>
<path d="M86.4975 13.1418L83.581 13.0888L83.5039 17.4996L86.5794 17.4466L86.4975 13.1418Z" fill="#DFE3E8"/>
<path d="M99.9758 57.7756L95.4686 57.6937L95.3963 61.6803L100.048 61.5935L99.9758 57.7756Z" fill="#DFE3E8"/>
<path d="M74.2339 101.706L70.4738 101.638L70.5606 106.512L74.1519 106.449L74.2339 101.706Z" fill="#DFE3E8"/>
<path d="M92.8462 13.2575L89.9201 13.2045L89.843 17.3888L92.9185 17.3309L92.8462 13.2575Z" fill="#DFE3E8"/>
<path d="M99.865 51.4317L95.5795 51.3546L95.5071 55.3364L99.9324 55.2593L99.865 51.4317Z" fill="#DFE3E8"/>
<path d="M93.5211 51.316L89.2404 51.2437L89.1681 55.4473L93.5934 55.3702L93.5211 51.316Z" fill="#DFE3E8"/>
<path d="M99.7541 45.0878L95.6903 45.0155L95.6228 48.9925L99.8216 48.9154L99.7541 45.0878Z" fill="#DFE3E8"/>
<path d="M93.4102 44.977L89.3561 44.9047L89.279 49.1034L93.4825 49.0311L93.4102 44.977Z" fill="#DFE3E8"/>
<path d="M93.2945 38.6331L89.4669 38.5608L89.3898 42.7595L93.3668 42.692L93.2945 38.6331Z" fill="#DFE3E8"/>
<path d="M92.957 19.5966L89.8044 19.5436L89.7321 23.7326L93.0294 23.6748L92.957 19.5966Z" fill="#DFE3E8"/>
<path d="M93.0679 25.9405L89.6935 25.8826L89.6212 30.0717L93.1451 30.009L93.0679 25.9405Z" fill="#DFE3E8"/>
<path d="M93.1836 32.2844L89.5778 32.2217L89.5055 36.4156L93.2559 36.3529L93.1836 32.2844Z" fill="#DFE3E8"/>
<path d="M74.0411 25.603L70.6763 25.5404L70.5847 30.414L74.123 30.3513L74.0411 25.603Z" fill="#DFE3E8"/>
<path d="M74.6051 57.3225L70.1075 57.2454L70.0207 62.1334L74.687 62.0515L74.6051 57.3225Z" fill="#DFE3E8"/>
<path d="M74.3785 44.6347L70.334 44.5624L70.2473 49.4457L74.4653 49.3685L74.3785 44.6347Z" fill="#DFE3E8"/>
<path d="M80.1584 13.0261L77.2419 12.9779L77.1552 17.6153L80.2355 17.5575L80.1584 13.0261Z" fill="#DFE3E8"/>
<path d="M74.2628 38.2908L70.4449 38.2233L70.3581 43.1018L74.3496 43.0295L74.2628 38.2908Z" fill="#DFE3E8"/>
<path d="M74.1519 31.9469L70.5606 31.8843L70.4738 36.7579L74.2339 36.6904L74.1519 31.9469Z" fill="#DFE3E8"/>
<path d="M74.123 108.05L70.5847 107.982L70.6763 112.856L74.0411 112.793L74.123 108.05Z" fill="#DFE3E8"/>
<path d="M73.5879 138.169L73.6699 133.406L71.0378 133.358L71.1246 138.212L73.5879 138.169Z" fill="#DFE3E8"/>
<path d="M99.6384 38.7439L95.806 38.6765L95.7385 42.6486L99.7107 42.5763L99.6384 38.7439Z" fill="#DFE3E8"/>
<path d="M74.0121 114.389L70.7004 114.326L70.7872 119.195L73.9254 119.137L74.0121 114.389Z" fill="#DFE3E8"/>
<path d="M73.7856 127.067L70.927 127.014L71.0137 131.873L73.6988 131.825L73.7856 127.067Z" fill="#DFE3E8"/>
<path d="M73.8965 120.728L70.8161 120.67L70.8981 125.534L73.8097 125.481L73.8965 120.728Z" fill="#DFE3E8"/>
<path d="M74.4894 50.9786L70.2232 50.9015L70.1364 55.7895L74.5762 55.7076L74.4894 50.9786Z" fill="#DFE3E8"/>
<path d="M73.9254 19.2591L70.7872 19.2061L70.7004 24.0701L74.0121 24.0122L73.9254 19.2591Z" fill="#DFE3E8"/>
<path d="M80.4958 32.0578L76.8997 32L76.8177 36.647L80.573 36.5795L80.4958 32.0578Z" fill="#DFE3E8"/>
<path d="M80.7224 44.7504L76.6731 44.6781L76.5912 49.33L80.8044 49.2576L80.7224 44.7504Z" fill="#DFE3E8"/>
<path d="M80.3801 25.7187L77.0154 25.6561L76.9334 30.2983L80.4621 30.2356L80.3801 25.7187Z" fill="#DFE3E8"/>
<path d="M80.2693 19.3748L77.1262 19.317L77.0443 23.9544L80.3512 23.8965L80.2693 19.3748Z" fill="#DFE3E8"/>
<path d="M80.6115 38.4017L76.7888 38.3342L76.702 42.9861L80.6887 42.9138L80.6115 38.4017Z" fill="#DFE3E8"/>
<path d="M73.6988 6.57136L71.0137 6.52315L70.927 11.3823L73.7856 11.3293L73.6988 6.57136Z" fill="#DFE3E8"/>
<path d="M73.8097 12.9153L70.8981 12.8622L70.8161 17.7262L73.8965 17.6683L73.8097 12.9153Z" fill="#DFE3E8"/>
<path d="M73.5879 0.227467L71.1246 0.184082L71.0378 5.03841L73.6699 4.99021L73.5879 0.227467Z" fill="#DFE3E8"/>
<path d="M80.8333 51.0943L76.5622 51.0172L76.4755 55.6738L80.9152 55.5967L80.8333 51.0943Z" fill="#DFE3E8"/>
<path d="M80.949 57.4334L76.4465 57.3514L76.3646 62.0177L81.0309 61.9358L80.949 57.4334Z" fill="#DFE3E8"/>
<path d="M92.7305 6.91362L90.031 6.86541L89.9586 11.0449L92.8028 10.9918L92.7305 6.91362Z" fill="#DFE3E8"/>
<path d="M124.797 27.0974C124.643 26.8949 124.484 26.7021 124.315 26.4996L121.374 26.4514L121.321 29.5077L124.826 29.445L124.797 27.0974Z" fill="#DFE3E8"/>
<path d="M128.774 32.9207H127.617L127.564 35.76L130.374 35.707C129.863 34.7525 129.328 33.827 128.774 32.9207Z" fill="#DFE3E8"/>
<path d="M121.452 23.024V23.1638H121.577L121.452 23.024Z" fill="#DFE3E8"/>
<path d="M111.878 14.0529C111.68 13.8987 111.487 13.7396 111.285 13.5709L108.937 13.5275L108.875 17.032L111.936 16.979L111.878 14.0529Z" fill="#DFE3E8"/>
<path d="M134.877 45.7145H133.73L133.681 48.3321L135.745 48.2935C135.475 47.4162 135.181 46.5629 134.877 45.7145Z" fill="#DFE3E8"/>
<path d="M115.219 16.8103V16.9356H115.358L115.219 16.8103Z" fill="#DFE3E8"/>
<path d="M118.443 26.3936L115.05 26.3358L114.992 29.6186L118.501 29.5607L118.443 26.3936Z" fill="#DFE3E8"/>
<path d="M118.333 20.0545L115.165 19.9967L115.108 23.2795L118.39 23.2168L118.333 20.0545Z" fill="#DFE3E8"/>
<path d="M125.356 58.2288L120.825 58.1468L120.772 61.2272L125.404 61.1452L125.356 58.2288Z" fill="#DFE3E8"/>
<path d="M136.82 52.0922L133.614 52.0343L133.57 54.6567L137.398 54.5892C137.244 53.7504 137.032 52.9117 136.82 52.0922Z" fill="#DFE3E8"/>
<path d="M125.241 51.8849L120.941 51.8077L120.883 54.8833L125.294 54.8061L125.241 51.8849Z" fill="#DFE3E8"/>
<path d="M29.4314 13.5419L27.0789 13.5853L26.486 14.0674L26.433 17.0079L29.494 17.061L29.4314 13.5419Z" fill="#DFE3E8"/>
<path d="M105.457 9.60352C104.551 9.05398 103.63 8.52369 102.695 8.01271L102.642 10.8183L105.481 10.7652L105.457 9.60352Z" fill="#DFE3E8"/>
<path d="M16.9123 23.024L16.7966 23.1638H16.9171L16.9123 23.024Z" fill="#DFE3E8"/>
<path d="M10.7516 32.9014H9.58984C9.03547 33.8077 8.50521 34.7332 7.99422 35.6684L10.7998 35.7214L10.7516 32.9014Z" fill="#DFE3E8"/>
<path d="M99.5275 32.4001L95.9217 32.3374L95.8494 36.3047L99.595 36.2372L99.5275 32.4001Z" fill="#DFE3E8"/>
<path d="M16.975 26.4514L14.0392 26.4996C13.885 26.7021 13.7211 26.8949 13.5572 27.0974L13.5138 29.445L17.0183 29.5077L16.975 26.4514Z" fill="#DFE3E8"/>
<path d="M23.1453 16.8103C23.101 16.853 23.0543 16.8932 23.0055 16.9308H23.1501L23.1453 16.8103Z" fill="#DFE3E8"/>
<path d="M92.6678 3.50547C91.8194 3.20177 90.9661 2.90769 90.1032 2.63774L90.0695 4.70097L92.6871 4.65277L92.6678 3.50547Z" fill="#DFE3E8"/>
<path d="M35.674 8.01271C34.7388 8.52369 33.8133 9.05398 32.907 9.60352V10.7652L35.7415 10.8183L35.674 8.01271Z" fill="#DFE3E8"/>
<path d="M86.2902 1.56276C85.4675 1.35708 84.6351 1.16428 83.7931 0.984313L83.7256 4.81183L86.348 4.76364L86.2902 1.56276Z" fill="#DFE3E8"/>
<path d="M54.5756 0.984313C53.7368 1.16428 52.9028 1.35708 52.0737 1.56276L52.0158 4.76364L54.643 4.81183L54.5756 0.984313Z" fill="#DFE3E8"/>
<path d="M48.2606 2.63774C47.3977 2.90769 46.5444 3.20177 45.7008 3.50547L45.6767 4.65277L48.2943 4.70097L48.2606 2.63774Z" fill="#DFE3E8"/>
<path d="M118.559 32.7423L114.939 32.6748L114.881 35.9673L118.612 35.8998L118.559 32.7423Z" fill="#DFE3E8"/>
<path d="M106.098 45.1987L102.034 45.1264L101.967 48.8768L106.161 48.8045L106.098 45.1987Z" fill="#DFE3E8"/>
<path d="M105.645 19.8232L102.487 19.7701L102.42 23.5013L105.707 23.4434L105.645 19.8232Z" fill="#DFE3E8"/>
<path d="M105.871 32.5109L102.261 32.4483L102.193 36.189L105.939 36.1264L105.871 32.5109Z" fill="#DFE3E8"/>
<path d="M106.209 51.5474L101.919 51.4655L101.851 55.2207L106.276 55.1436L106.209 51.5474Z" fill="#DFE3E8"/>
<path d="M105.756 26.1719L102.372 26.1092L102.309 29.85L105.818 29.7873L105.756 26.1719Z" fill="#DFE3E8"/>
<path d="M105.982 38.8548L102.145 38.7873L102.078 42.5329L106.05 42.4654L105.982 38.8548Z" fill="#DFE3E8"/>
<path d="M99.4166 26.0562L96.0326 25.9983L95.9603 29.9608L99.4841 29.8982L99.4166 26.0562Z" fill="#DFE3E8"/>
<path d="M106.325 57.8865L101.808 57.8046L101.74 61.5646L106.387 61.4827L106.325 57.8865Z" fill="#DFE3E8"/>
<path d="M99.3009 19.7123L96.1435 19.6593L96.076 23.617L99.3684 23.5591L99.3009 19.7123Z" fill="#DFE3E8"/>
<path d="M99.1852 13.3684L96.2592 13.3154L96.1868 17.2731L99.2576 17.22L99.1852 13.3684Z" fill="#DFE3E8"/>
<path d="M99.0744 7.02931L96.37 6.97629L96.3025 10.9292L99.1419 10.881L99.0744 7.02931Z" fill="#DFE3E8"/>
<path d="M118.897 51.7692L114.601 51.6969L114.539 54.9941L118.954 54.917L118.897 51.7692Z" fill="#DFE3E8"/>
<path d="M119.012 58.1131L114.486 58.0359L114.428 61.338L119.07 61.2561L119.012 58.1131Z" fill="#DFE3E8"/>
<path d="M112.1 26.2827L108.711 26.2201L108.648 29.7343L112.162 29.6716L112.1 26.2827Z" fill="#DFE3E8"/>
<path d="M111.989 19.9388L108.826 19.8858L108.764 23.3904L112.047 23.3325L111.989 19.9388Z" fill="#DFE3E8"/>
<path d="M118.786 45.4301L114.712 45.353L114.655 48.6551L118.839 48.5779L118.786 45.4301Z" fill="#DFE3E8"/>
<path d="M118.67 39.0814L114.823 39.0139L114.765 42.3064L118.728 42.2389L118.67 39.0814Z" fill="#DFE3E8"/>
<path d="M112.668 58.0022L108.147 57.9202L108.084 61.4537L112.726 61.3718L112.668 58.0022Z" fill="#DFE3E8"/>
<path d="M112.553 51.6583L108.258 51.5812L108.195 55.1098L112.615 55.0327L112.553 51.6583Z" fill="#DFE3E8"/>
<path d="M105.534 13.4841L102.598 13.4311L102.531 17.1622L105.597 17.1043L105.534 13.4841Z" fill="#DFE3E8"/>
<path d="M112.442 45.3144L108.373 45.2421L108.311 48.7659L112.5 48.6936L112.442 45.3144Z" fill="#DFE3E8"/>
<path d="M112.215 32.6266L108.6 32.564L108.537 36.0782L112.273 36.0107L112.215 32.6266Z" fill="#DFE3E8"/>
<path d="M112.326 38.9705L108.484 38.903L108.421 42.4221L112.389 42.3498L112.326 38.9705Z" fill="#DFE3E8"/>
<path d="M93.4825 89.3697L89.279 89.2926L89.3561 93.4962L93.4102 93.4239L93.4825 89.3697Z" fill="#DFE3E8"/>
<path d="M112.273 102.385L108.537 102.318L108.6 105.837L112.215 105.769L112.273 102.385Z" fill="#DFE3E8"/>
<path d="M112.162 108.724L108.648 108.662L108.711 112.176L112.1 112.118L112.162 108.724Z" fill="#DFE3E8"/>
<path d="M106.435 64.2304L101.692 64.1484L101.624 67.9133L106.498 67.8217L106.435 64.2304Z" fill="#DFE3E8"/>
<path d="M118.39 115.179L115.108 115.117L115.165 118.404L118.333 118.346L118.39 115.179Z" fill="#DFE3E8"/>
<path d="M112.047 115.063L108.764 115.006L108.826 118.515L111.989 118.457L112.047 115.063Z" fill="#DFE3E8"/>
<path d="M106.435 74.1656L106.498 70.5743L101.624 70.4875L101.692 74.2476L106.435 74.1656Z" fill="#DFE3E8"/>
<path d="M112.779 64.3461L108.036 64.2593L107.968 67.7976L112.842 67.7109L112.779 64.3461Z" fill="#DFE3E8"/>
<path d="M112.5 89.7072L108.311 89.6349L108.373 93.1587L112.442 93.0816L112.5 89.7072Z" fill="#DFE3E8"/>
<path d="M112.779 74.0547L112.842 70.69L107.968 70.5984L108.036 74.1367L112.779 74.0547Z" fill="#DFE3E8"/>
<path d="M112.726 77.029L108.084 76.9471L108.147 80.4758L112.668 80.3938L112.726 77.029Z" fill="#DFE3E8"/>
<path d="M112.615 83.3681L108.195 83.2862L108.258 86.8148L112.553 86.7425L112.615 83.3681Z" fill="#DFE3E8"/>
<path d="M112.389 96.0463L108.421 95.974L108.484 99.493L112.326 99.4255L112.389 96.0463Z" fill="#DFE3E8"/>
<path d="M105.597 121.292L102.531 121.239L102.598 124.97L105.534 124.917L105.597 121.292Z" fill="#DFE3E8"/>
<path d="M105.707 114.953L102.42 114.895L102.487 118.626L105.645 118.573L105.707 114.953Z" fill="#DFE3E8"/>
<path d="M99.9324 83.1415L95.5071 83.0644L95.5795 87.0414L99.865 86.9643L99.9324 83.1415Z" fill="#DFE3E8"/>
<path d="M100.048 76.8025L95.3963 76.7157L95.4686 80.7023L99.9758 80.6204L100.048 76.8025Z" fill="#DFE3E8"/>
<path d="M100.159 70.4634L95.2806 70.3718L95.3529 74.3633L100.092 74.2765L100.159 70.4634Z" fill="#DFE3E8"/>
<path d="M106.05 95.9354L102.078 95.8631L102.145 99.6087L105.982 99.5412L106.05 95.9354Z" fill="#DFE3E8"/>
<path d="M106.276 83.2524L101.851 83.1753L101.919 86.9305L106.209 86.8534L106.276 83.2524Z" fill="#DFE3E8"/>
<path d="M106.161 89.5915L101.967 89.5192L102.034 93.2696L106.098 93.1973L106.161 89.5915Z" fill="#DFE3E8"/>
<path d="M106.387 76.9134L101.74 76.8314L101.808 80.5915L106.325 80.5095L106.387 76.9134Z" fill="#DFE3E8"/>
<path d="M105.939 102.274L102.193 102.207L102.261 105.948L105.871 105.885L105.939 102.274Z" fill="#DFE3E8"/>
<path d="M105.818 108.614L102.309 108.551L102.372 112.287L105.756 112.229L105.818 108.614Z" fill="#DFE3E8"/>
<path d="M100.092 64.1195L95.3529 64.0327L95.2806 68.0194L100.159 67.9374L100.092 64.1195Z" fill="#DFE3E8"/>
<path d="M125.404 77.2556L120.772 77.1688L120.825 80.2492L125.356 80.1721L125.404 77.2556Z" fill="#DFE3E8"/>
<path d="M131.406 96.3837L127.453 96.3162L127.506 99.1555L131.358 99.0881L131.406 96.3837Z" fill="#DFE3E8"/>
<path d="M131.522 90.0446L127.342 89.9723L127.391 92.8165L131.474 92.7442L131.522 90.0446Z" fill="#DFE3E8"/>
<path d="M125.467 73.8234L125.52 70.9117L120.656 70.8298L120.714 73.9101L125.467 73.8234Z" fill="#DFE3E8"/>
<path d="M125.467 64.5727L120.714 64.4859L120.656 67.5711L125.52 67.4843L125.467 64.5727Z" fill="#DFE3E8"/>
<path d="M131.633 83.7056L127.227 83.6284L127.28 86.4774L131.584 86.4003L131.633 83.7056Z" fill="#DFE3E8"/>
<path d="M138.087 77.4774L133.46 77.3954L133.503 80.0275L138.039 79.9407L138.087 77.4774Z" fill="#DFE3E8"/>
<path d="M138.155 73.6016L138.198 71.1431L133.344 71.0515L133.392 73.6836L138.155 73.6016Z" fill="#DFE3E8"/>
<path d="M131.811 73.7125L131.859 71.0274L127 70.9406L127.053 73.7993L131.811 73.7125Z" fill="#DFE3E8"/>
<path d="M131.743 77.3665L127.111 77.2845L127.164 80.1383L131.7 80.0564L131.743 77.3665Z" fill="#DFE3E8"/>
<path d="M131.811 64.6835L127.053 64.6016L127 67.4602L131.859 67.3686L131.811 64.6835Z" fill="#DFE3E8"/>
<path d="M125.067 96.2728L121.109 96.2005L121.167 99.2712L125.014 99.1989L125.067 96.2728Z" fill="#DFE3E8"/>
<path d="M118.954 83.479L114.539 83.4019L114.601 86.704L118.897 86.6268L118.954 83.479Z" fill="#DFE3E8"/>
<path d="M118.839 89.8181L114.655 89.7458L114.712 93.043L118.786 92.9707L118.839 89.8181Z" fill="#DFE3E8"/>
<path d="M118.728 96.1571L114.765 96.0896L114.823 99.3821L118.67 99.3146L118.728 96.1571Z" fill="#DFE3E8"/>
<path d="M125.294 83.5947L120.883 83.5127L120.941 86.5931L125.241 86.5111L125.294 83.5947Z" fill="#DFE3E8"/>
<path d="M119.07 77.1399L114.428 77.058L114.486 80.3649L119.012 80.2829L119.07 77.1399Z" fill="#DFE3E8"/>
<path d="M118.612 102.501L114.881 102.434L114.939 105.721L118.559 105.659L118.612 102.501Z" fill="#DFE3E8"/>
<path d="M118.501 108.84L114.992 108.777L115.05 112.06L118.443 112.002L118.501 108.84Z" fill="#DFE3E8"/>
<path d="M125.178 89.9338L120.998 89.8566L121.051 92.9273L125.13 92.8599L125.178 89.9338Z" fill="#DFE3E8"/>
<path d="M124.956 102.612L121.225 102.544L121.278 105.61L124.903 105.548L124.956 102.612Z" fill="#DFE3E8"/>
<path d="M119.123 64.457L114.37 64.375L114.312 67.6819L119.181 67.5952L119.123 64.457Z" fill="#DFE3E8"/>
<path d="M119.123 73.9391L119.181 70.8008L114.312 70.7141L114.37 74.0258L119.123 73.9391Z" fill="#DFE3E8"/>
<path d="M86.8012 108.271L83.2725 108.209L83.3544 112.629L86.7289 112.566L86.8012 108.271Z" fill="#DFE3E8"/>
<path d="M81.0599 74.6188L81.1418 70.1211L76.2537 70.0344L76.3357 74.7007L81.0599 74.6188Z" fill="#DFE3E8"/>
<path d="M81.0309 76.4602L76.3646 76.3783L76.4465 81.0446L80.949 80.9626L81.0309 76.4602Z" fill="#DFE3E8"/>
<path d="M80.9152 82.8041L76.4755 82.7222L76.5622 87.3837L80.8333 87.3065L80.9152 82.8041Z" fill="#DFE3E8"/>
<path d="M80.8044 89.1432L76.5912 89.0661L76.6731 93.7227L80.7224 93.6504L80.8044 89.1432Z" fill="#DFE3E8"/>
<path d="M81.0599 63.7821L76.3357 63.6953L76.2537 68.3616L81.1418 68.2749L81.0599 63.7821Z" fill="#DFE3E8"/>
<path d="M80.6887 95.4822L76.702 95.4099L76.7888 100.062L80.6115 99.9895L80.6887 95.4822Z" fill="#DFE3E8"/>
<path d="M74.3496 95.3666L70.3581 95.2991L70.4449 100.173L74.2628 100.105L74.3496 95.3666Z" fill="#DFE3E8"/>
<path d="M86.9169 101.932L83.1616 101.87L83.2388 106.29L86.8397 106.223L86.9169 101.932Z" fill="#DFE3E8"/>
<path d="M86.4637 127.293L83.6148 127.24L83.6919 131.646L86.3866 131.598L86.4637 127.293Z" fill="#DFE3E8"/>
<path d="M86.6903 114.615L83.3882 114.552L83.4653 118.968L86.6132 118.91L86.6903 114.615Z" fill="#DFE3E8"/>
<path d="M86.5794 120.949L83.5039 120.896L83.581 125.307L86.4975 125.254L86.5794 120.949Z" fill="#DFE3E8"/>
<path d="M74.7208 74.7344L74.8027 70.0103L69.905 69.9187L69.9966 74.8164L74.7208 74.7344Z" fill="#DFE3E8"/>
<path d="M87.0277 95.5979L83.0507 95.5208L83.1279 99.9461L86.9506 99.8786L87.0277 95.5979Z" fill="#DFE3E8"/>
<path d="M74.7208 63.6664L69.9966 63.5796L69.905 68.4773L74.8027 68.3906L74.7208 63.6664Z" fill="#DFE3E8"/>
<path d="M74.687 76.3493L70.0207 76.2674L70.1075 81.1555L74.6051 81.0735L74.687 76.3493Z" fill="#DFE3E8"/>
<path d="M80.573 101.821L76.8177 101.754L76.8997 106.401L80.4958 106.338L80.573 101.821Z" fill="#DFE3E8"/>
<path d="M74.5762 82.6884L70.1364 82.6113L70.2232 87.4945L74.4894 87.4222L74.5762 82.6884Z" fill="#DFE3E8"/>
<path d="M74.4653 89.0275L70.2473 88.9504L70.334 93.8384L74.3785 93.7613L74.4653 89.0275Z" fill="#DFE3E8"/>
<path d="M80.3512 114.499L77.0443 114.442L77.1262 119.084L80.2693 119.026L80.3512 114.499Z" fill="#DFE3E8"/>
<path d="M79.927 138.053L80.0138 133.521L77.3817 133.473L77.4637 138.101L79.927 138.053Z" fill="#DFE3E8"/>
<path d="M80.4621 108.16L76.9334 108.098L77.0154 112.74L80.3801 112.682L80.4621 108.16Z" fill="#DFE3E8"/>
<path d="M80.2355 120.839L77.1552 120.786L77.2419 125.423L80.1584 125.37L80.2355 120.839Z" fill="#DFE3E8"/>
<path d="M80.1247 127.178L77.2709 127.125L77.3528 131.757L80.0427 131.714L80.1247 127.178Z" fill="#DFE3E8"/>
<path d="M92.9185 121.065L89.843 121.012L89.9201 125.192L92.8462 125.143L92.9185 121.065Z" fill="#DFE3E8"/>
<path d="M93.7476 64.0038L89.0138 63.9219L88.9415 68.1351L93.8199 68.0483L93.7476 64.0038Z" fill="#DFE3E8"/>
<path d="M99.0744 131.372L99.1419 127.52L96.3025 127.467L96.37 131.42L99.0744 131.372Z" fill="#DFE3E8"/>
<path d="M93.7476 74.3922L93.8199 70.3477L88.9415 70.2609L89.0138 74.479L93.7476 74.3922Z" fill="#DFE3E8"/>
<path d="M87.1386 89.2541L82.9351 89.1817L83.0122 93.607L87.0663 93.5347L87.1386 89.2541Z" fill="#DFE3E8"/>
<path d="M93.7042 76.6868L89.0524 76.6048L89.1247 80.8132L93.6368 80.7361L93.7042 76.6868Z" fill="#DFE3E8"/>
<path d="M99.4841 108.498L95.9603 108.435L96.0326 112.403L99.4166 112.34L99.4841 108.498Z" fill="#DFE3E8"/>
<path d="M99.2576 121.181L96.1868 121.123L96.2592 125.081L99.1852 125.028L99.2576 121.181Z" fill="#DFE3E8"/>
<path d="M99.595 102.159L95.8494 102.091L95.9217 106.063L99.5275 106.001L99.595 102.159Z" fill="#DFE3E8"/>
<path d="M99.7107 95.8197L95.7385 95.7522L95.806 99.7244L99.6384 99.6521L99.7107 95.8197Z" fill="#DFE3E8"/>
<path d="M4.63426 45.6808H3.48699C3.18329 46.5292 2.88921 47.3825 2.61926 48.2405L4.68248 48.2791L4.63426 45.6808Z" fill="#DFE3E8"/>
<path d="M99.3684 114.837L96.076 114.779L96.1435 118.742L99.3009 118.684L99.3684 114.837Z" fill="#DFE3E8"/>
<path d="M93.5934 83.0259L89.1681 82.9487L89.2404 87.1571L93.5211 87.08L93.5934 83.0259Z" fill="#DFE3E8"/>
<path d="M87.4037 74.5031L87.4809 70.2368L82.5976 70.1501L82.6747 74.5898L87.4037 74.5031Z" fill="#DFE3E8"/>
<path d="M87.4037 63.8929L82.6747 63.8062L82.5976 68.2508L87.4809 68.1592L87.4037 63.8929Z" fill="#DFE3E8"/>
<path d="M87.2543 82.915L82.8194 82.833L82.9013 87.268L87.1772 87.1908L87.2543 82.915Z" fill="#DFE3E8"/>
<path d="M87.37 76.5759L82.7085 76.4891L82.7904 80.9289L87.2929 80.8518L87.37 76.5759Z" fill="#DFE3E8"/>
<path d="M92.8028 127.409L89.9586 127.356L90.031 131.535L92.7305 131.487L92.8028 127.409Z" fill="#DFE3E8"/>
<path d="M93.2559 102.048L89.5055 101.98L89.5778 106.174L93.1836 106.112L93.2559 102.048Z" fill="#DFE3E8"/>
<path d="M93.3668 95.704L89.3898 95.6365L89.4669 99.8352L93.2945 99.7678L93.3668 95.704Z" fill="#DFE3E8"/>
<path d="M93.1451 108.387L89.6212 108.324L89.6935 112.513L93.0679 112.456L93.1451 108.387Z" fill="#DFE3E8"/>
<path d="M93.0294 114.726L89.7321 114.668L89.8044 118.857L92.957 118.799L93.0294 114.726Z" fill="#DFE3E8"/>
<path d="M99.8216 89.4806L95.6228 89.4035L95.6903 93.3805L99.7541 93.3082L99.8216 89.4806Z" fill="#DFE3E8"/>
<path d="M61.4401 108.098L57.9066 108.16L57.9885 112.682L61.3581 112.74L61.4401 108.098Z" fill="#DFE3E8"/>
<path d="M36.6285 76.8314L31.9815 76.9134L32.0489 80.5095L36.561 80.5915L36.6285 76.8314Z" fill="#DFE3E8"/>
<path d="M36.5176 83.1753L32.0972 83.2524L32.1598 86.8534L36.4501 86.9305L36.5176 83.1753Z" fill="#DFE3E8"/>
<path d="M36.4019 89.5192L32.208 89.5915L32.2707 93.1973L36.3344 93.2696L36.4019 89.5192Z" fill="#DFE3E8"/>
<path d="M36.6767 74.2476L36.7442 70.4875L31.8706 70.5743L31.9333 74.1656L36.6767 74.2476Z" fill="#DFE3E8"/>
<path d="M36.2911 95.8631L32.3237 95.9354L32.3864 99.5412L36.2236 99.6087L36.2911 95.8631Z" fill="#DFE3E8"/>
<path d="M36.6767 64.1484L31.9333 64.2304L31.8706 67.8217L36.7442 67.9085L36.6767 64.1484Z" fill="#DFE3E8"/>
<path d="M35.8379 121.239L32.772 121.292L32.8395 124.917L35.7704 124.97L35.8379 121.239Z" fill="#DFE3E8"/>
<path d="M30.3376 64.2593L25.5894 64.3461L25.5267 67.7109L30.4003 67.7976L30.3376 64.2593Z" fill="#DFE3E8"/>
<path d="M36.1754 102.207L32.4346 102.27L32.4973 105.885L36.1127 105.948L36.1754 102.207Z" fill="#DFE3E8"/>
<path d="M41.9986 131.42L42.0709 127.467L39.2268 127.52L39.2943 131.372L41.9986 131.42Z" fill="#DFE3E8"/>
<path d="M30.3376 74.1367L30.4003 70.5984L25.5267 70.69L25.5894 74.0547L30.3376 74.1367Z" fill="#DFE3E8"/>
<path d="M35.9536 114.895L32.6612 114.953L32.7286 118.573L35.8861 118.626L35.9536 114.895Z" fill="#DFE3E8"/>
<path d="M36.0645 108.551L32.5455 108.614L32.613 112.229L35.997 112.287L36.0645 108.551Z" fill="#DFE3E8"/>
<path d="M48.5257 121.012L45.455 121.065L45.5273 125.143L48.4486 125.192L48.5257 121.012Z" fill="#DFE3E8"/>
<path d="M43.0158 74.3633L43.0881 70.3718L38.2097 70.4634L38.2771 74.2765L43.0158 74.3633Z" fill="#DFE3E8"/>
<path d="M43.0158 64.0327L38.2771 64.1195L38.2097 67.9374L43.0881 68.0194L43.0158 64.0327Z" fill="#DFE3E8"/>
<path d="M42.9724 76.7157L38.3205 76.8025L38.388 80.6204L42.9001 80.7023L42.9724 76.7157Z" fill="#DFE3E8"/>
<path d="M48.41 127.356L45.5659 127.409L45.6382 131.487L48.3377 131.535L48.41 127.356Z" fill="#DFE3E8"/>
<path d="M42.8615 83.0644L38.4362 83.1415L38.5037 86.9643L42.7892 87.0414L42.8615 83.0644Z" fill="#DFE3E8"/>
<path d="M42.1818 121.123L39.1111 121.181L39.1834 125.028L42.1095 125.081L42.1818 121.123Z" fill="#DFE3E8"/>
<path d="M30.2846 76.9471L25.6424 77.029L25.7051 80.3938L30.2219 80.4758L30.2846 76.9471Z" fill="#DFE3E8"/>
<path d="M42.2927 114.779L39.0002 114.837L39.0677 118.684L42.2252 118.742L42.2927 114.779Z" fill="#DFE3E8"/>
<path d="M42.4084 108.435L38.8894 108.498L38.9568 112.34L42.3361 112.403L42.4084 108.435Z" fill="#DFE3E8"/>
<path d="M42.7458 89.4035L38.5471 89.4806L38.6146 93.3082L42.6783 93.3805L42.7458 89.4035Z" fill="#DFE3E8"/>
<path d="M42.5241 102.091L38.7737 102.159L38.8412 105.996L42.4518 106.063L42.5241 102.091Z" fill="#DFE3E8"/>
<path d="M42.635 95.7522L38.6628 95.8197L38.7303 99.6521L42.5626 99.7244L42.635 95.7522Z" fill="#DFE3E8"/>
<path d="M30.1737 83.2862L25.7581 83.3681L25.8159 86.7425L30.1111 86.8148L30.1737 83.2862Z" fill="#DFE3E8"/>
<path d="M17.3703 89.8566L13.1908 89.9338L13.2438 92.8599L17.3172 92.9273L17.3703 89.8566Z" fill="#DFE3E8"/>
<path d="M17.486 83.5127L13.0751 83.5947L13.1281 86.5111L17.4329 86.5931L17.486 83.5127Z" fill="#DFE3E8"/>
<path d="M48.6414 114.668L45.3393 114.726L45.4164 118.799L48.5643 118.857L48.6414 114.668Z" fill="#DFE3E8"/>
<path d="M17.6016 77.1688L12.9642 77.2556L13.0125 80.1721L17.5438 80.2492L17.6016 77.1688Z" fill="#DFE3E8"/>
<path d="M17.6547 64.4859L12.9016 64.5727L12.8486 67.4843L17.7125 67.5711L17.6547 64.4859Z" fill="#DFE3E8"/>
<path d="M23.2658 115.117L19.983 115.179L20.0409 118.346L23.2032 118.404L23.2658 115.117Z" fill="#DFE3E8"/>
<path d="M17.6547 73.9101L17.7125 70.8298L12.8486 70.9117L12.9016 73.8234L17.6547 73.9101Z" fill="#DFE3E8"/>
<path d="M11.3156 73.7993L11.3686 70.9406L6.50948 71.0274L6.55769 73.7125L11.3156 73.7993Z" fill="#DFE3E8"/>
<path d="M11.2578 77.2845L6.62517 77.3665L6.67338 80.0564L11.2047 80.1383L11.2578 77.2845Z" fill="#DFE3E8"/>
<path d="M11.3156 64.5967L6.55769 64.6835L6.50948 67.3686L11.3686 67.4554L11.3156 64.5967Z" fill="#DFE3E8"/>
<path d="M17.1485 102.544L13.4174 102.612L13.4704 105.543L17.0907 105.61L17.1485 102.544Z" fill="#DFE3E8"/>
<path d="M17.2594 96.2005L13.3017 96.2728L13.3547 99.1989L17.2064 99.2712L17.2594 96.2005Z" fill="#DFE3E8"/>
<path d="M23.3767 108.777L19.8721 108.84L19.9252 112.002L23.3189 112.06L23.3767 108.777Z" fill="#DFE3E8"/>
<path d="M29.7206 108.662L26.2064 108.724L26.2691 112.118L29.6579 112.176L29.7206 108.662Z" fill="#DFE3E8"/>
<path d="M23.4876 102.434L19.7565 102.501L19.8095 105.659L23.4297 105.721L23.4876 102.434Z" fill="#DFE3E8"/>
<path d="M29.6049 115.006L26.3221 115.063L26.3799 118.457L29.5471 118.515L29.6049 115.006Z" fill="#DFE3E8"/>
<path d="M30.058 89.6349L25.869 89.7072L25.9268 93.0816L29.9954 93.1587L30.058 89.6349Z" fill="#DFE3E8"/>
<path d="M29.9472 95.974L25.9846 96.0463L26.0425 99.4255L29.8845 99.493L29.9472 95.974Z" fill="#DFE3E8"/>
<path d="M23.9986 64.375L19.2455 64.457L19.1924 67.5952L24.0564 67.6819L23.9986 64.375Z" fill="#DFE3E8"/>
<path d="M29.8363 102.318L26.0955 102.385L26.1582 105.769L29.7688 105.837L29.8363 102.318Z" fill="#DFE3E8"/>
<path d="M23.6033 96.0896L19.6408 96.1571L19.6986 99.3146L23.5454 99.3821L23.6033 96.0896Z" fill="#DFE3E8"/>
<path d="M23.719 89.7458L19.5299 89.8181L19.5829 92.9707L23.6611 93.043L23.719 89.7458Z" fill="#DFE3E8"/>
<path d="M23.9986 74.0258L24.0564 70.7141L19.1924 70.8008L19.2455 73.9391L23.9986 74.0258Z" fill="#DFE3E8"/>
<path d="M23.8298 83.4019L19.4142 83.479L19.472 86.6268L23.772 86.704L23.8298 83.4019Z" fill="#DFE3E8"/>
<path d="M23.9407 77.058L19.3033 77.1399L19.3612 80.2829L23.8829 80.3649L23.9407 77.058Z" fill="#DFE3E8"/>
<path d="M68.2371 82.6113L63.7925 82.6884L63.8793 87.4222L68.1455 87.4945L68.2371 82.6113Z" fill="#DFE3E8"/>
<path d="M67.6683 114.326L64.3613 114.389L64.4433 119.137L67.5815 119.195L67.6683 114.326Z" fill="#DFE3E8"/>
<path d="M67.5574 120.67L64.4722 120.728L64.559 125.481L67.4706 125.534L67.5574 120.67Z" fill="#DFE3E8"/>
<path d="M67.4465 127.014L64.5879 127.067L64.6699 131.825L67.3549 131.873L67.4465 127.014Z" fill="#DFE3E8"/>
<path d="M68.1214 88.9504L63.9082 89.0275L63.9902 93.7613L68.0346 93.8336L68.1214 88.9504Z" fill="#DFE3E8"/>
<path d="M67.8948 101.638L64.1348 101.706L64.2215 106.449L67.8081 106.512L67.8948 101.638Z" fill="#DFE3E8"/>
<path d="M68.0105 95.2991L64.0191 95.3666L64.1058 100.105L67.9238 100.173L68.0105 95.2991Z" fill="#DFE3E8"/>
<path d="M67.784 107.982L64.2456 108.045L64.3324 112.793L67.6972 112.856L67.784 107.982Z" fill="#DFE3E8"/>
<path d="M62.0041 76.3783L57.3426 76.4602L57.4197 80.9626L61.9221 81.0446L62.0041 76.3783Z" fill="#DFE3E8"/>
<path d="M61.8884 82.7222L57.4534 82.7993L57.5354 87.3065L61.8112 87.3837L61.8884 82.7222Z" fill="#DFE3E8"/>
<path d="M67.244 138.212L67.3308 133.358L64.6988 133.406L64.7807 138.169L67.244 138.212Z" fill="#DFE3E8"/>
<path d="M62.0378 74.7007L62.1198 70.0344L57.2269 70.1211L57.3088 74.6188L62.0378 74.7007Z" fill="#DFE3E8"/>
<path d="M62.0378 63.6953L57.3088 63.7821L57.2269 68.2749L62.1198 68.3616L62.0378 63.6953Z" fill="#DFE3E8"/>
<path d="M138.039 58.4553L133.503 58.3734L133.46 61.0006L138.087 60.9186L138.039 58.4553Z" fill="#DFE3E8"/>
<path d="M131.584 51.9957L127.28 51.9186L127.227 54.7724L131.633 54.6905L131.584 51.9957Z" fill="#DFE3E8"/>
<path d="M131.358 39.3128L127.506 39.2405L127.453 42.0846L131.406 42.0123L131.358 39.3128Z" fill="#DFE3E8"/>
<path d="M131.7 58.3396L127.164 58.2577L127.111 61.1115L131.743 61.0295L131.7 58.3396Z" fill="#DFE3E8"/>
<path d="M48.7523 108.324L45.2284 108.387L45.3007 112.456L48.6752 112.513L48.7523 108.324Z" fill="#DFE3E8"/>
<path d="M124.903 32.8532L121.278 32.7857L121.225 35.8516L124.956 35.7841L124.903 32.8532Z" fill="#DFE3E8"/>
<path d="M125.014 39.1971L121.167 39.1248L121.109 42.1955L125.067 42.1232L125.014 39.1971Z" fill="#DFE3E8"/>
<path d="M4.74998 52.0343L1.54428 52.0922C1.33699 52.9165 1.14899 53.7504 0.970626 54.5892L4.79335 54.6567L4.74998 52.0343Z" fill="#DFE3E8"/>
<path d="M11.1421 83.6284L6.73605 83.7056L6.78425 86.4003L11.089 86.4774L11.1421 83.6284Z" fill="#DFE3E8"/>
<path d="M68.348 76.2674L63.6816 76.3493L63.7636 81.0735L68.2612 81.1555L68.348 76.2674Z" fill="#DFE3E8"/>
<path d="M138.155 64.7944L133.392 64.7124L133.344 67.3445L138.198 67.2577L138.155 64.7944Z" fill="#DFE3E8"/>
<path d="M61.7775 89.0661L57.5691 89.1432L57.6463 93.6504L61.6955 93.7227L61.7775 89.0661Z" fill="#DFE3E8"/>
<path d="M68.3769 63.5796L63.6527 63.6664L63.5659 68.3857L68.4588 68.4773L68.3769 63.5796Z" fill="#DFE3E8"/>
<path d="M131.474 45.6519L127.391 45.5795L127.342 48.4237L131.522 48.3514L131.474 45.6519Z" fill="#DFE3E8"/>
<path d="M61.6666 95.4099L57.68 95.4822L57.762 99.9895L61.5799 100.062L61.6666 95.4099Z" fill="#DFE3E8"/>
<path d="M49.3549 63.9219L44.621 64.0038L44.5487 68.0483L49.432 68.1351L49.3549 63.9219Z" fill="#DFE3E8"/>
<path d="M54.8696 120.896L51.7941 120.949L51.8712 125.254L54.7925 125.307L54.8696 120.896Z" fill="#DFE3E8"/>
<path d="M54.7587 127.24L51.9049 127.293L51.9821 131.598L54.6768 131.646L54.7587 127.24Z" fill="#DFE3E8"/>
<path d="M55.207 101.87L51.4518 101.932L51.5338 106.223L55.1299 106.29L55.207 101.87Z" fill="#DFE3E8"/>
<path d="M54.9805 114.552L51.6832 114.615L51.7555 118.91L54.9033 118.968L54.9805 114.552Z" fill="#DFE3E8"/>
<path d="M55.0962 108.209L51.5675 108.271L51.6446 112.566L55.0142 112.629L55.0962 108.209Z" fill="#DFE3E8"/>
<path d="M48.8632 101.98L45.1127 102.048L45.185 106.112L48.7908 106.174L48.8632 101.98Z" fill="#DFE3E8"/>
<path d="M48.9788 95.6365L45.0019 95.704L45.0742 99.7678L48.9017 99.8352L48.9788 95.6365Z" fill="#DFE3E8"/>
<path d="M49.0897 89.2926L44.8862 89.3697L44.9633 93.4239L49.0174 93.4962L49.0897 89.2926Z" fill="#DFE3E8"/>
<path d="M49.3163 76.6048L44.6644 76.6868L44.7319 80.7361L49.244 80.8132L49.3163 76.6048Z" fill="#DFE3E8"/>
<path d="M49.2054 82.9487L44.7753 83.0259L44.8476 87.08L49.1283 87.1571L49.2054 82.9487Z" fill="#DFE3E8"/>
<path d="M49.3549 74.479L49.432 70.2609L44.5487 70.3477L44.621 74.3922L49.3549 74.479Z" fill="#DFE3E8"/>
<path d="M55.3227 95.5208L51.3409 95.5931L51.4181 99.8786L55.2408 99.9461L55.3227 95.5208Z" fill="#DFE3E8"/>
<path d="M60.905 138.101L60.9869 133.473L58.3597 133.521L58.4417 138.053L60.905 138.101Z" fill="#DFE3E8"/>
<path d="M61.0978 127.125L58.244 127.178L58.326 131.714L61.0159 131.757L61.0978 127.125Z" fill="#DFE3E8"/>
<path d="M61.3244 114.442L58.0174 114.499L58.0994 119.026L61.2424 119.084L61.3244 114.442Z" fill="#DFE3E8"/>
<path d="M125.13 45.541L121.051 45.4687L120.998 48.5394L125.178 48.4671L125.13 45.541Z" fill="#DFE3E8"/>
<path d="M61.5509 101.754L57.7909 101.821L57.8728 106.338L61.469 106.401L61.5509 101.754Z" fill="#DFE3E8"/>
<path d="M61.2135 120.786L58.1331 120.839L58.2151 125.37L61.1315 125.423L61.2135 120.786Z" fill="#DFE3E8"/>
<path d="M55.5493 82.833L51.1144 82.915L51.1915 87.1908L55.4722 87.268L55.5493 82.833Z" fill="#DFE3E8"/>
<path d="M55.4336 89.1817L51.2301 89.2541L51.3024 93.5347L55.3565 93.607L55.4336 89.1817Z" fill="#DFE3E8"/>
<path d="M55.6602 76.4891L51.0035 76.5759L51.0806 80.8518L55.583 80.9289L55.6602 76.4891Z" fill="#DFE3E8"/>
<path d="M55.6939 63.8062L50.9649 63.8929L50.8878 68.1592L55.7759 68.2508L55.6939 63.8062Z" fill="#DFE3E8"/>
<path d="M55.6939 74.5898L55.7759 70.1501L50.8878 70.2368L50.9649 74.5031L55.6939 74.5898Z" fill="#DFE3E8"/>
<path d="M68.3769 74.8164L68.4588 69.9187L63.5659 70.0103L63.6527 74.7344L68.3769 74.8164Z" fill="#DFE3E8"/>
<path d="M61.3581 25.6561L57.9885 25.7187L57.9066 30.2356L61.4401 30.2983L61.3581 25.6561Z" fill="#DFE3E8"/>
<path d="M61.1315 12.9779L58.2151 13.0261L58.1331 17.5575L61.2135 17.6153L61.1315 12.9779Z" fill="#DFE3E8"/>
<path d="M61.469 32L57.8728 32.0578L57.7909 36.5795L61.5509 36.647L61.469 32Z" fill="#DFE3E8"/>
<path d="M61.2424 19.317L58.0994 19.3748L58.0174 23.8965L61.3244 23.9544L61.2424 19.317Z" fill="#DFE3E8"/>
<path d="M61.5799 38.3342L57.762 38.4017L57.68 42.9138L61.6666 42.9861L61.5799 38.3342Z" fill="#DFE3E8"/>
<path d="M61.6955 44.6781L57.6463 44.7504L57.5691 49.2576L61.7775 49.33L61.6955 44.6781Z" fill="#DFE3E8"/>
<path d="M61.0159 6.63885L58.326 6.68705L58.244 11.2184L61.0978 11.2714L61.0159 6.63885Z" fill="#DFE3E8"/>
<path d="M68.0346 44.5624L63.9902 44.6347L63.9082 49.3685L68.1214 49.4457L68.0346 44.5624Z" fill="#DFE3E8"/>
<path d="M68.1455 50.9015L63.8793 50.9786L63.7925 55.7076L68.2371 55.7895L68.1455 50.9015Z" fill="#DFE3E8"/>
<path d="M61.8112 51.0172L57.5354 51.0943L57.4534 55.5967L61.8884 55.6738L61.8112 51.0172Z" fill="#DFE3E8"/>
<path d="M67.9238 38.2233L64.1058 38.2908L64.0191 43.0295L68.0105 43.1018L67.9238 38.2233Z" fill="#DFE3E8"/>
<path d="M67.8081 31.8843L64.2215 31.9469L64.1348 36.6904L67.8948 36.7579L67.8081 31.8843Z" fill="#DFE3E8"/>
<path d="M68.2612 57.2454L63.7636 57.3225L63.6816 62.0515L68.348 62.1334L68.2612 57.2454Z" fill="#DFE3E8"/>
<path d="M60.905 0.294956L58.4417 0.343161L58.3597 4.87933L60.9869 4.92272L60.905 0.294956Z" fill="#DFE3E8"/>
<path d="M55.4722 51.128L51.1915 51.2052L51.1144 55.4858L55.5493 55.563L55.4722 51.128Z" fill="#DFE3E8"/>
<path d="M55.583 57.4671L51.0806 57.5491L51.0035 61.8201L55.6602 61.902L55.583 57.4671Z" fill="#DFE3E8"/>
<path d="M55.3565 44.789L51.3024 44.8613L51.2301 49.142L55.4336 49.2191L55.3565 44.789Z" fill="#DFE3E8"/>
<path d="M48.4486 13.2045L45.5273 13.2527L45.455 17.3309L48.5257 17.3888L48.4486 13.2045Z" fill="#DFE3E8"/>
<path d="M48.3377 6.86541L45.6382 6.91362L45.5659 10.9918L48.41 11.0449L48.3377 6.86541Z" fill="#DFE3E8"/>
<path d="M61.9221 57.3514L57.4197 57.4334L57.3426 61.9358L62.0041 62.0177L61.9221 57.3514Z" fill="#DFE3E8"/>
<path d="M55.2408 38.4499L51.4181 38.5174L51.3409 42.8029L55.3227 42.8752L55.2408 38.4499Z" fill="#DFE3E8"/>
<path d="M54.7925 13.0888L51.8712 13.1418L51.7941 17.4466L54.8696 17.4996L54.7925 13.0888Z" fill="#DFE3E8"/>
<path d="M54.6768 6.74972L51.9821 6.79793L51.9049 11.1075L54.7587 11.1557L54.6768 6.74972Z" fill="#DFE3E8"/>
<path d="M54.9033 19.4279L51.7555 19.4857L51.6832 23.7857L54.9805 23.8435L54.9033 19.4279Z" fill="#DFE3E8"/>
<path d="M55.0142 25.7718L51.6446 25.8296L51.5675 30.1247L55.0962 30.1874L55.0142 25.7718Z" fill="#DFE3E8"/>
<path d="M55.1299 32.106L51.5338 32.1735L51.4518 36.4638L55.207 36.5313L55.1299 32.106Z" fill="#DFE3E8"/>
<path d="M128.774 105.48C129.328 104.569 129.863 103.644 130.374 102.713L127.564 102.66L127.617 105.499L128.774 105.48Z" fill="#DFE3E8"/>
<path d="M48.2606 135.763L48.2943 133.7L45.6767 133.743L45.7008 134.895C46.5493 135.199 47.3977 135.488 48.2606 135.763Z" fill="#DFE3E8"/>
<path d="M35.674 130.388L35.7222 127.583L32.8877 127.631V128.793C33.8133 129.347 34.7388 129.877 35.674 130.388Z" fill="#DFE3E8"/>
<path d="M27.0789 124.811L29.4314 124.854L29.494 121.35L26.433 121.407L26.486 124.348L27.0789 124.811Z" fill="#DFE3E8"/>
<path d="M23.1501 121.465H22.9959L23.1357 121.586L23.1501 121.465Z" fill="#DFE3E8"/>
<path d="M54.5756 137.412L54.643 133.584L52.0158 133.632L52.0737 136.833C52.8835 137.045 53.7368 137.233 54.5756 137.412Z" fill="#DFE3E8"/>
<path d="M67.6972 25.5404L64.3324 25.603L64.2456 30.3513L67.784 30.414L67.6972 25.5404Z" fill="#DFE3E8"/>
<path d="M16.9171 115.232H16.7966L16.9123 115.367L16.9171 115.232Z" fill="#DFE3E8"/>
<path d="M92.6678 134.895V133.743L90.0502 133.7L90.084 135.763C90.9613 135.483 91.8226 135.194 92.6678 134.895Z" fill="#DFE3E8"/>
<path d="M4.63426 92.7056L4.68248 90.0832L2.61926 90.1217C2.88921 90.9846 3.18329 91.8379 3.48699 92.6863L4.63426 92.7056Z" fill="#DFE3E8"/>
<path d="M4.79335 83.7634L0.970626 83.8309C1.14417 84.6649 1.33699 85.5036 1.54428 86.3279L4.74998 86.3858L4.79335 83.7634Z" fill="#DFE3E8"/>
<path d="M17.0328 108.888L13.5282 108.951L13.5716 111.299C13.7211 111.501 13.885 111.699 14.0537 111.896L16.9894 111.949L17.0328 108.888Z" fill="#DFE3E8"/>
<path d="M10.7516 105.499L10.7998 102.66L7.99422 102.713C8.50521 103.644 9.03547 104.569 9.58984 105.48L10.7516 105.499Z" fill="#DFE3E8"/>
<path d="M86.2902 136.833L86.348 133.632L83.7256 133.584L83.7931 137.412C84.6319 137.233 85.4659 137.045 86.2902 136.833Z" fill="#DFE3E8"/>
<path d="M67.244 0.184082L64.7807 0.227467L64.6988 4.99021L67.3308 5.03841L67.244 0.184082Z" fill="#DFE3E8"/>
<path d="M137.398 83.8116L133.57 83.7441L133.614 86.3665L136.82 86.3087C137.032 85.4844 137.244 84.6504 137.398 83.8116Z" fill="#DFE3E8"/>
<path d="M67.3549 6.52315L64.6699 6.57136L64.5879 11.3293L67.4465 11.3823L67.3549 6.52315Z" fill="#DFE3E8"/>
<path d="M67.4706 12.8622L64.559 12.9153L64.4722 17.6683L67.5574 17.7262L67.4706 12.8622Z" fill="#DFE3E8"/>
<path d="M134.877 92.6863C135.181 91.8379 135.475 90.9846 135.745 90.1217L133.681 90.0832L133.73 92.7056L134.877 92.6863Z" fill="#DFE3E8"/>
<path d="M67.5815 19.2061L64.4433 19.2591L64.3613 24.0122L67.6683 24.0701L67.5815 19.2061Z" fill="#DFE3E8"/>
<path d="M121.572 115.237H121.447V115.377C121.49 115.329 121.529 115.28 121.572 115.237Z" fill="#DFE3E8"/>
<path d="M115.358 121.465H115.219V121.586C115.267 121.548 115.314 121.508 115.358 121.465Z" fill="#DFE3E8"/>
<path d="M48.5643 19.5436L45.4164 19.5966L45.3393 23.67L48.6414 23.7326L48.5643 19.5436Z" fill="#DFE3E8"/>
<path d="M111.285 124.811C111.487 124.661 111.68 124.497 111.878 124.329L111.936 121.388L108.875 121.33L108.937 124.835L111.285 124.811Z" fill="#DFE3E8"/>
<path d="M105.457 128.793V127.631L102.618 127.583L102.671 130.388C103.622 129.877 104.551 129.345 105.457 128.793Z" fill="#DFE3E8"/>
<path d="M124.797 111.299L124.84 108.951L121.336 108.888L121.389 111.949L124.329 111.896C124.484 111.723 124.643 111.501 124.797 111.299Z" fill="#DFE3E8"/>
<path d="M48.7908 32.2217L45.185 32.2844L45.1127 36.3529L48.8632 36.4156L48.7908 32.2217Z" fill="#DFE3E8"/>
<path d="M23.6611 45.353L19.5829 45.4301L19.5299 48.5779L23.719 48.6551L23.6611 45.353Z" fill="#DFE3E8"/>
<path d="M23.772 51.6969L19.472 51.7692L19.4142 54.917L23.8298 54.9941L23.772 51.6969Z" fill="#DFE3E8"/>
<path d="M23.5454 39.0139L19.6986 39.0814L19.6408 42.2389L23.6033 42.3064L23.5454 39.0139Z" fill="#DFE3E8"/>
<path d="M23.4297 32.6748L19.8095 32.7423L19.7565 35.895L23.4876 35.9673L23.4297 32.6748Z" fill="#DFE3E8"/>
<path d="M17.0907 32.7857L13.4704 32.8532L13.4174 35.7841L17.1485 35.8516L17.0907 32.7857Z" fill="#DFE3E8"/>
<path d="M23.8829 58.0359L19.3612 58.1131L19.3033 61.2561L23.9407 61.338L23.8829 58.0359Z" fill="#DFE3E8"/>
<path d="M29.9954 45.2421L25.9268 45.3144L25.869 48.6888L30.058 48.7659L29.9954 45.2421Z" fill="#DFE3E8"/>
<path d="M30.1111 51.5812L25.8159 51.6583L25.7581 55.0327L30.1737 55.1098L30.1111 51.5812Z" fill="#DFE3E8"/>
<path d="M17.2064 39.1248L13.3547 39.1971L13.3017 42.1232L17.2594 42.1955L17.2064 39.1248Z" fill="#DFE3E8"/>
<path d="M23.2032 19.9967L20.0409 20.0545L19.983 23.2168L23.2658 23.2795L23.2032 19.9967Z" fill="#DFE3E8"/>
<path d="M30.2219 57.9202L25.7051 58.0022L25.6424 61.3718L30.2846 61.4537L30.2219 57.9202Z" fill="#DFE3E8"/>
<path d="M23.3189 26.3358L19.9252 26.3936L19.8721 29.5607L23.3767 29.6186L23.3189 26.3358Z" fill="#DFE3E8"/>
<path d="M11.089 51.9186L6.78425 51.9957L6.73605 54.6905L11.1421 54.7724L11.089 51.9186Z" fill="#DFE3E8"/>
<path d="M4.91387 77.3954L0.281284 77.4774L0.329489 79.9407L4.86566 80.0275L4.91387 77.3954Z" fill="#DFE3E8"/>
<path d="M4.86566 58.3734L0.329489 58.4553L0.281284 60.9186L4.91387 61.0006L4.86566 58.3734Z" fill="#DFE3E8"/>
<path d="M4.97653 73.6836L5.02474 71.0515L0.17041 71.1431L0.213795 73.6016L4.97653 73.6836Z" fill="#DFE3E8"/>
<path d="M11.2047 58.2577L6.67338 58.3396L6.62517 61.0295L11.2578 61.1115L11.2047 58.2577Z" fill="#DFE3E8"/>
<path d="M4.97653 64.7124L0.213795 64.7944L0.17041 67.2577L5.02474 67.3445L4.97653 64.7124Z" fill="#DFE3E8"/>
<path d="M10.9155 96.3162L6.96262 96.3837L7.01082 99.0881L10.8673 99.1555L10.9155 96.3162Z" fill="#DFE3E8"/>
<path d="M10.8673 39.2405L7.01082 39.3128L6.96262 42.0123L10.9155 42.0846L10.8673 39.2405Z" fill="#DFE3E8"/>
<path d="M29.8845 38.903L26.0425 38.9705L25.9846 42.3498L29.9472 42.4221L29.8845 38.903Z" fill="#DFE3E8"/>
<path d="M17.4329 51.8077L13.1281 51.8849L13.0751 54.8061L17.486 54.8833L17.4329 51.8077Z" fill="#DFE3E8"/>
<path d="M17.5438 58.1468L13.0125 58.2288L12.9642 61.1452L17.6016 61.2272L17.5438 58.1468Z" fill="#DFE3E8"/>
<path d="M17.3172 45.4687L13.2438 45.541L13.1908 48.4671L17.3703 48.5394L17.3172 45.4687Z" fill="#DFE3E8"/>
<path d="M10.9782 45.5795L6.89995 45.6519L6.84692 48.3514L11.0312 48.4237L10.9782 45.5795Z" fill="#DFE3E8"/>
<path d="M36.561 57.8046L32.0489 57.8865L31.9815 61.4827L36.6285 61.5646L36.561 57.8046Z" fill="#DFE3E8"/>
<path d="M42.4518 32.3374L38.8412 32.4001L38.7737 36.2372L42.5241 36.3047L42.4518 32.3374Z" fill="#DFE3E8"/>
<path d="M42.3361 25.9983L38.9568 26.0562L38.8894 29.8982L42.4084 29.9608L42.3361 25.9983Z" fill="#DFE3E8"/>
<path d="M42.7892 51.3546L38.5037 51.4317L38.4362 55.2593L42.8615 55.3364L42.7892 51.3546Z" fill="#DFE3E8"/>
<path d="M42.5626 38.6765L38.7303 38.7439L38.6628 42.5763L42.635 42.6486L42.5626 38.6765Z" fill="#DFE3E8"/>
<path d="M42.1095 13.3154L39.1834 13.3684L39.1111 17.22L42.1818 17.2731L42.1095 13.3154Z" fill="#DFE3E8"/>
<path d="M42.6783 45.0155L38.6146 45.0878L38.5471 48.9154L42.7458 48.9925L42.6783 45.0155Z" fill="#DFE3E8"/>
<path d="M42.2252 19.6544L39.0677 19.7123L39.0002 23.5591L42.2927 23.617L42.2252 19.6544Z" fill="#DFE3E8"/>
<path d="M48.9017 38.5608L45.0742 38.6331L45.0019 42.692L48.9788 42.7595L48.9017 38.5608Z" fill="#DFE3E8"/>
<path d="M49.0174 44.8998L44.9633 44.977L44.8862 49.0311L49.0897 49.1034L49.0174 44.8998Z" fill="#DFE3E8"/>
<path d="M11.0312 89.9723L6.84692 90.0446L6.89995 92.7442L10.9782 92.8165L11.0312 89.9723Z" fill="#DFE3E8"/>
<path d="M49.1283 51.2437L44.8476 51.316L44.7753 55.3702L49.2054 55.4473L49.1283 51.2437Z" fill="#DFE3E8"/>
<path d="M41.9986 6.97629L39.2943 7.02449L39.2268 10.881L42.0709 10.9292L41.9986 6.97629Z" fill="#DFE3E8"/>
<path d="M49.244 57.5828L44.7319 57.6599L44.6644 61.7092L49.3163 61.7912L49.244 57.5828Z" fill="#DFE3E8"/>
<path d="M42.9001 57.6937L38.388 57.7756L38.3205 61.5935L42.9724 61.6803L42.9001 57.6937Z" fill="#DFE3E8"/>
<path d="M36.4501 51.4655L32.1598 51.5474L32.0972 55.1436L36.5176 55.2207L36.4501 51.4655Z" fill="#DFE3E8"/>
<path d="M48.6752 25.8826L45.3007 25.9405L45.2284 30.009L48.7523 30.0717L48.6752 25.8826Z" fill="#DFE3E8"/>
<path d="M29.5471 19.8858L26.3799 19.9388L26.3221 23.3325L29.6049 23.3904L29.5471 19.8858Z" fill="#DFE3E8"/>
<path d="M29.6579 26.2201L26.2691 26.2827L26.2064 29.6716L29.7206 29.7343L29.6579 26.2201Z" fill="#DFE3E8"/>
<path d="M36.3344 45.1264L32.2707 45.1987L32.208 48.8045L36.4019 48.8768L36.3344 45.1264Z" fill="#DFE3E8"/>
<path d="M35.8861 19.7701L32.7286 19.8232L32.6612 23.4434L35.9536 23.5013L35.8861 19.7701Z" fill="#DFE3E8"/>
<path d="M29.7688 32.564L26.1582 32.6266L26.0955 36.0107L29.8363 36.0782L29.7688 32.564Z" fill="#DFE3E8"/>
<path d="M36.2236 38.7873L32.3864 38.8548L32.3237 42.4654L36.2911 42.5329L36.2236 38.7873Z" fill="#DFE3E8"/>
<path d="M35.7704 13.4311L32.8395 13.4841L32.772 17.1043L35.8379 17.1622L35.7704 13.4311Z" fill="#DFE3E8"/>
<path d="M35.997 26.1092L32.613 26.1719L32.5455 29.7873L36.0645 29.85L35.997 26.1092Z" fill="#DFE3E8"/>
<path d="M36.1127 32.4483L32.4973 32.5109L32.4346 36.1264L36.1754 36.189L36.1127 32.4483Z" fill="#DFE3E8"/>
</svg>
