<svg xmlns="http://www.w3.org/2000/svg" style="display: none;">
  <symbol id="logo" fill="none" xmlns="http://www.w3.org/2000/svg" viewBox="0 0 199 64">
    <path d="M21.1034 33.3793L16.8276 29.1034C16.5517 29.3793 16.2759 29.7931 15.8621 29.931L21.931 36C21.6552 35.0345 21.3793 34.2069 21.1034 33.3793ZM13.5172 24.1379C12.1379 24.1379 10.8966 25.2414 10.8966 26.7586C10.8966 28.2759 12 29.3793 13.5172 29.3793C15.0345 29.3793 16.1379 28.2759 16.1379 26.7586C16.1379 25.2414 15.0345 24.1379 13.5172 24.1379ZM19.5862 11.5862L16.4138 8.41379C16 8.55172 15.7241 8.82759 15.3103 9.10345L19.1724 12.9655C19.1724 12.4138 19.4483 12 19.5862 11.5862ZM18.2069 20.4138L11.1724 13.3793C10.8966 13.7931 10.7586 14.069 10.4828 14.4828L18.2069 22.2069C18.2069 21.6552 18.2069 20.9655 18.2069 20.4138ZM38.4828 28.2759L41.6552 25.1034C41.6552 24.5517 41.5172 24 41.3793 23.5862L37.5172 27.4483C37.7931 27.7241 38.2069 28 38.3448 28.4138L38.4828 28.2759ZM33.3793 12.9655L35.4483 10.8966C35.1724 10.6207 34.7586 10.3448 34.4828 10.069L32.4138 12.1379C32.8276 12.4138 33.1034 12.6897 33.3793 12.9655ZM29.7931 18.2069C31.1724 18.2069 32.4138 17.1034 32.4138 15.5862C32.4138 14.069 31.3103 12.9655 29.7931 12.9655C28.2759 12.9655 27.1724 14.069 27.1724 15.5862C27.1724 17.1034 28.2759 18.2069 29.7931 18.2069ZM22.8966 42.069H7.58621C7.58621 42.4828 7.86207 42.8965 7.86207 43.3103H22.8966C22.8966 42.8965 22.8966 42.4828 22.8966 42.069ZM32.4138 30.7586C32.4138 32.1379 33.5172 33.3793 35.0345 33.3793C36.5517 33.3793 37.6552 32.2759 37.6552 30.7586C37.6552 29.2414 36.5517 28.1379 35.0345 28.1379C33.5172 28.1379 32.4138 29.2414 32.4138 30.7586ZM40.5517 6.62069C34.7586 0.827587 27.8621 0 24.2759 0C20.6897 0 13.7931 0.827586 8.13793 6.75862C2.75862 12.4138 0 20.8276 0 32C0 43.1724 2.75862 51.5862 8.13793 57.2414C13.7931 63.0345 20.6897 64 24.2759 64C27.8621 64 34.7586 63.1724 40.4138 57.2414C45.7931 51.5862 48.5517 43.1724 48.5517 32C48.5517 20.8276 45.7931 12.4138 40.4138 6.75862L40.5517 6.62069ZM24.4138 62.4828C14.6207 62.4828 1.37931 55.7241 1.37931 31.8621C1.37931 8 14.4828 1.24138 24.2759 1.24138C34.069 1.24138 47.3103 8 47.3103 31.8621C47.3103 55.7241 34.2069 62.4828 24.2759 62.4828H24.4138ZM11.1724 23.3103L8 20.1379C8 20.5517 7.72414 21.1034 7.58621 21.5172L10.2069 24.1379C10.4828 23.7241 10.7586 23.4483 11.0345 23.1724L11.1724 23.3103ZM27.7241 38.8966L32.4138 34.2069C32 33.931 31.7241 33.6552 31.4483 33.3793L27.4483 37.3793C27.0345 35.3103 26.3448 33.3793 25.6552 31.5862C25.6552 31.4483 25.5172 31.1724 25.3793 31.0345L39.5862 16.8276C39.4483 16.4138 39.1724 16 39.0345 15.5862L24.8276 29.7931C24.1379 27.7241 23.4483 25.5172 23.3103 22.8966L27.0345 19.1724C26.7586 18.8965 26.3448 18.6207 26.2069 18.2069L23.3103 21.1034C23.3103 19.4483 23.5862 17.5172 24 15.3103C24.6897 12.2759 26.069 8.82759 27.3103 6.62069H25.931C25.931 6.48276 21.2414 12.9655 20.8276 20C20.6897 22.6207 20.9655 25.2414 21.6552 27.8621C22.3448 30.4828 22.6207 31.0345 23.1724 32.5517C24.8276 37.1034 26.3448 41.2414 24.6897 48.9655C24 52 22.8965 54.8965 21.6552 57.2414C21.931 57.2414 22.4828 57.2414 22.7586 57.3793C23.0345 57.5172 23.1724 57.3793 23.1724 57.3793C25.1034 54.6207 25.5172 54.3448 27.3103 49.5172C27.8621 49.931 28.5517 50.3448 29.1034 50.7586C29.2414 51.5862 29.931 53.7931 31.8621 55.5862C32.2759 55.4483 32.6897 55.1724 33.1034 54.8965C31.7241 53.7931 31.0345 52.5517 30.7586 51.5862C32.4138 52.4138 33.931 52.8276 35.3103 53.2414C35.5862 52.9655 35.7241 52.8276 36 52.6897C36.1379 52.5517 36.2759 52.4138 36.4138 52.1379C33.7931 51.5862 30.3448 50.4828 27.5862 48C27.8621 46.2069 28 44.6897 28 43.1724H40.8276C40.8276 42.7586 41.1034 42.3448 41.1034 41.931H27.8621C27.8621 40.8276 27.8621 39.8621 27.5862 38.8966H27.7241ZM15.7241 45.1034C13.6552 46.2069 11.3103 46.7586 9.37931 47.0345C9.51724 47.4483 9.7931 47.8621 9.93103 48.2759C12.5517 47.8621 15.5862 47.0345 18.069 45.2414H15.7241V45.1034ZM22.7586 45.6552C19.5862 49.2414 15.0345 50.7586 11.8621 51.3103C12.1379 51.7241 12.5517 52.1379 12.8276 52.4138C14.4828 52.1379 16.2759 51.5862 18.2069 50.6207C17.7931 51.7241 16.9655 53.3793 15.1724 54.4828C15.5862 54.7586 16 55.0345 16.2759 55.1724C18.7586 53.3793 19.5862 50.6207 19.7241 49.7931C20.5517 49.2414 21.5172 48.5517 22.3448 47.8621C22.4828 47.0345 22.6207 46.3448 22.7586 45.6552ZM29.5172 45.1034C32.1379 47.5862 35.7241 48.5517 38.6207 48.8276C38.8966 48.4138 39.0345 48 39.3103 47.5862C36.8276 47.3103 33.931 46.6207 31.5862 45.1034H29.5172ZM80.6886 20.5517V31.5862C80.6886 36.5517 78.7575 39.0345 74.7575 38.8966C71.7231 38.8966 69.3782 37.2414 68.5506 34.3448L70.0679 33.931C70.7575 36.1379 72.5506 37.3793 74.6196 37.3793C77.792 37.3793 79.0334 35.4483 79.0334 31.5862V20.5517H80.6886ZM96.2748 19.8621L86.0679 38.7586H87.861L90.2058 34.2069H102.068L104.413 38.7586H106.206L96.1368 19.8621H96.2748ZM91.0334 32.6897L96.1368 22.8966L101.24 32.6897H90.8955H91.0334ZM165.516 19.8621L155.309 38.7586H157.102L159.447 34.2069H171.309L173.654 38.7586H175.447L165.378 19.8621H165.516ZM160.275 32.6897L165.378 22.8966L170.482 32.6897H160.137H160.275ZM127.309 20.4138L114.344 37.1034H127.309V38.6207H111.447L124.413 21.931H112.275V20.4138H127.447H127.309ZM136.689 37.1034H149.102V38.6207H135.033V20.4138H149.102V21.931H136.689V28H145.93V29.5172H136.689V37.1034ZM198.206 20.4138V38.6207H196.551L183.309 22.7586V38.6207H181.654V20.4138H183.309L196.551 36.2759V20.4138H198.206Z" fill="url(#goldWave)"></path>
    <defs>
      <linearGradient id="goldWave" x1="198" y1="32" x2="-1.25918e-05" y2="32" gradientUnits="userSpaceOnUse">
        <stop stop-color="#BC9B57"></stop>
        <stop offset="0.464505" stop-color="#FBE8B5"></stop>
        <stop offset="1" stop-color="#BC9B57"></stop>
      </linearGradient>
    </defs>
  </symbol>
  <symbol id="ico-lang" width="28" height="13" viewBox="0 0 28 13" fill="none" xmlns="http://www.w3.org/2000/svg">
      <path d="M0.939922 7.014C0.939922 6.79 0.958589 6.552 0.995922 6.3C1.04259 6.03867 1.10792 5.76333 1.19192 5.474C1.28526 5.17533 1.39726 4.86267 1.52792 4.536L2.53592 4.928C2.44259 5.18933 2.35859 5.43667 2.28392 5.67C2.21859 5.90333 2.16726 6.12267 2.12992 6.328C2.10192 6.53333 2.08792 6.72933 2.08792 6.916C2.08792 7.308 2.17192 7.63933 2.33992 7.91C2.51726 8.19 2.75992 8.41867 3.06792 8.596C3.37592 8.77333 3.72592 8.904 4.11792 8.988C4.51926 9.072 4.94392 9.114 5.39192 9.114C5.93326 9.114 6.43726 9.06733 6.90392 8.974C7.37992 8.88067 7.79526 8.74533 8.14992 8.568C8.51392 8.4 8.79859 8.204 9.00392 7.98C9.20926 7.76533 9.31192 7.532 9.31192 7.28C9.31192 7.15867 9.26526 7.04667 9.17192 6.944C9.07859 6.84133 8.93859 6.74333 8.75192 6.65C8.56526 6.55667 8.34126 6.468 8.07992 6.384C7.81859 6.29067 7.51992 6.19733 7.18392 6.104L7.44992 4.942C7.93526 5.12867 8.36459 5.28733 8.73792 5.418C9.11126 5.53933 9.43792 5.63733 9.71792 5.712C9.99792 5.78667 10.2406 5.84267 10.4459 5.88C10.6513 5.908 10.8239 5.922 10.9639 5.922C11.1599 5.922 11.2999 5.978 11.3839 6.09C11.4773 6.19267 11.5239 6.31867 11.5239 6.468C11.5239 6.61733 11.4586 6.75733 11.3279 6.888C11.1973 7.00933 11.0293 7.07 10.8239 7.07C10.7679 7.07 10.7119 7.07 10.6559 7.07C10.5999 7.07 10.5393 7.07 10.4739 7.07C10.4179 7.07 10.3619 7.07 10.3059 7.07C10.3246 7.154 10.3386 7.21933 10.3479 7.266C10.3573 7.322 10.3619 7.392 10.3619 7.476C10.3619 7.82133 10.2406 8.15733 9.99792 8.484C9.76459 8.81067 9.41926 9.10467 8.96192 9.366C8.50459 9.63667 7.94926 9.85133 7.29592 10.01C6.65192 10.1687 5.91459 10.248 5.08392 10.248C4.34659 10.248 3.66059 10.1267 3.02592 9.884C2.40059 9.65067 1.89659 9.296 1.51392 8.82C1.13126 8.344 0.939922 7.742 0.939922 7.014ZM6.09192 12.894C5.89592 12.894 5.72792 12.824 5.58792 12.684C5.45726 12.5533 5.39192 12.3947 5.39192 12.208C5.39192 12.0213 5.45726 11.858 5.58792 11.718C5.72792 11.578 5.89592 11.508 6.09192 11.508C6.27859 11.508 6.43726 11.578 6.56792 11.718C6.70792 11.858 6.77792 12.0213 6.77792 12.208C6.77792 12.3947 6.70792 12.5533 6.56792 12.684C6.43726 12.824 6.27859 12.894 6.09192 12.894ZM4.17392 12.894C3.97792 12.894 3.80992 12.824 3.66992 12.684C3.53926 12.5533 3.47392 12.3947 3.47392 12.208C3.47392 12.0213 3.53926 11.858 3.66992 11.718C3.80992 11.578 3.97792 11.508 4.17392 11.508C4.36059 11.508 4.51926 11.578 4.64992 11.718C4.78992 11.858 4.85992 12.0213 4.85992 12.208C4.85992 12.3947 4.78992 12.5533 4.64992 12.684C4.51926 12.824 4.36059 12.894 4.17392 12.894ZM10.9285 7.07L11.0685 5.922C11.5258 5.922 11.8898 5.894 12.1605 5.838C12.4312 5.782 12.6272 5.67 12.7485 5.502C12.8698 5.32467 12.9305 5.06333 12.9305 4.718C12.9305 4.48467 12.8932 4.20933 12.8185 3.892C12.7438 3.56533 12.6458 3.22 12.5245 2.856C12.4032 2.492 12.2725 2.13267 12.1325 1.778L13.2665 1.358C13.3878 1.65667 13.4998 1.99733 13.6025 2.38C13.7145 2.76267 13.8078 3.14067 13.8825 3.514C13.9572 3.88733 13.9945 4.214 13.9945 4.494C13.9945 4.86733 13.9525 5.19867 13.8685 5.488C13.7938 5.768 13.6772 6.01067 13.5185 6.216C13.3598 6.412 13.1545 6.57533 12.9025 6.706C12.6598 6.82733 12.3752 6.92067 12.0485 6.986C11.7218 7.042 11.3485 7.07 10.9285 7.07ZM12.4265 9.674C12.2305 9.674 12.0625 9.604 11.9225 9.464C11.7918 9.33333 11.7265 9.17467 11.7265 8.988C11.7265 8.80133 11.7918 8.638 11.9225 8.498C12.0625 8.358 12.2305 8.288 12.4265 8.288C12.6132 8.288 12.7718 8.358 12.9025 8.498C13.0425 8.638 13.1125 8.80133 13.1125 8.988C13.1125 9.17467 13.0425 9.33333 12.9025 9.464C12.7718 9.604 12.6132 9.674 12.4265 9.674ZM14.8443 10.248L14.4383 9.184C15.1196 8.96 15.6843 8.70333 16.1323 8.414C16.5896 8.12467 16.9489 7.81667 17.2103 7.49C17.4809 7.16333 17.6723 6.832 17.7843 6.496C17.8963 6.15067 17.9523 5.81933 17.9523 5.502C17.9523 5.04467 17.8496 4.58267 17.6443 4.116C17.4483 3.64 17.2289 3.192 16.9863 2.772L18.0083 2.254C18.1856 2.58067 18.3396 2.90267 18.4703 3.22C18.6103 3.53733 18.7316 3.836 18.8343 4.116C18.9463 4.396 19.0349 4.65267 19.1003 4.886C19.2309 5.28733 19.3989 5.56267 19.6043 5.712C19.8189 5.852 20.1083 5.922 20.4723 5.922C20.6683 5.922 20.8083 5.978 20.8923 6.09C20.9856 6.19267 21.0323 6.31867 21.0323 6.468C21.0323 6.61733 20.9669 6.75733 20.8363 6.888C20.7056 7.00933 20.5376 7.07 20.3323 7.07C19.9216 7.07 19.5856 7 19.3243 6.86C19.0723 6.71067 18.8809 6.51933 18.7503 6.286C18.6196 6.04333 18.5309 5.79133 18.4843 5.53L18.9323 5.782C18.9323 6.398 18.7923 6.958 18.5123 7.462C18.2416 7.97533 17.8916 8.41867 17.4623 8.792C17.0329 9.17467 16.5849 9.48733 16.1183 9.73C15.6516 9.97267 15.2269 10.1453 14.8443 10.248ZM20.4391 7.07L20.5791 5.922C21.1671 5.922 21.6197 5.91733 21.9371 5.908C22.2637 5.89867 22.5017 5.88933 22.6511 5.88C22.8004 5.86133 22.9031 5.852 22.9591 5.852C22.7911 5.75867 22.5951 5.614 22.3711 5.418C22.1471 5.21267 21.9511 4.956 21.7831 4.648C21.6151 4.33067 21.5311 3.95733 21.5311 3.528C21.5311 2.996 21.6524 2.52933 21.8951 2.128C22.1471 1.72667 22.4877 1.414 22.9171 1.19C23.3557 0.966 23.8551 0.854 24.4151 0.854C24.6297 0.854 24.8584 0.872666 25.1011 0.91C25.3437 0.947333 25.5771 1.00333 25.8011 1.078L25.5631 2.156C25.3764 2.10933 25.1804 2.072 24.9751 2.044C24.7697 2.016 24.5831 2.002 24.4151 2.002C24.0791 2.002 23.7804 2.06733 23.5191 2.198C23.2577 2.31933 23.0524 2.492 22.9031 2.716C22.7537 2.94 22.6791 3.21067 22.6791 3.528C22.6791 3.77067 22.7304 3.99467 22.8331 4.2C22.9357 4.396 23.0711 4.57333 23.2391 4.732C23.4071 4.89067 23.5937 5.02133 23.7991 5.124C24.0044 5.22667 24.2051 5.306 24.4011 5.362C24.6064 5.418 24.7884 5.44133 24.9471 5.432C25.0591 5.39467 25.1617 5.362 25.2551 5.334C25.3484 5.306 25.4511 5.27333 25.5631 5.236C25.6844 5.18933 25.8291 5.12867 25.9971 5.054C26.1744 4.97933 26.3984 4.88133 26.6691 4.76L27.0611 5.782C26.4357 6.034 25.7964 6.258 25.1431 6.454C24.4991 6.65 23.7944 6.804 23.0291 6.916C22.2731 7.01867 21.4097 7.07 20.4391 7.07Z" fill="currentColor"></path>
  </symbol>
</svg>