<svg xmlns="http://www.w3.org/2000/svg" style="display: none;">
  <symbol id="logo" fill="none" xmlns="http://www.w3.org/2000/svg" viewBox="0 0 199 64">
    <path d="M21.1034 33.3793L16.8276 29.1034C16.5517 29.3793 16.2759 29.7931 15.8621 29.931L21.931 36C21.6552 35.0345 21.3793 34.2069 21.1034 33.3793ZM13.5172 24.1379C12.1379 24.1379 10.8966 25.2414 10.8966 26.7586C10.8966 28.2759 12 29.3793 13.5172 29.3793C15.0345 29.3793 16.1379 28.2759 16.1379 26.7586C16.1379 25.2414 15.0345 24.1379 13.5172 24.1379ZM19.5862 11.5862L16.4138 8.41379C16 8.55172 15.7241 8.82759 15.3103 9.10345L19.1724 12.9655C19.1724 12.4138 19.4483 12 19.5862 11.5862ZM18.2069 20.4138L11.1724 13.3793C10.8966 13.7931 10.7586 14.069 10.4828 14.4828L18.2069 22.2069C18.2069 21.6552 18.2069 20.9655 18.2069 20.4138ZM38.4828 28.2759L41.6552 25.1034C41.6552 24.5517 41.5172 24 41.3793 23.5862L37.5172 27.4483C37.7931 27.7241 38.2069 28 38.3448 28.4138L38.4828 28.2759ZM33.3793 12.9655L35.4483 10.8966C35.1724 10.6207 34.7586 10.3448 34.4828 10.069L32.4138 12.1379C32.8276 12.4138 33.1034 12.6897 33.3793 12.9655ZM29.7931 18.2069C31.1724 18.2069 32.4138 17.1034 32.4138 15.5862C32.4138 14.069 31.3103 12.9655 29.7931 12.9655C28.2759 12.9655 27.1724 14.069 27.1724 15.5862C27.1724 17.1034 28.2759 18.2069 29.7931 18.2069ZM22.8966 42.069H7.58621C7.58621 42.4828 7.86207 42.8965 7.86207 43.3103H22.8966C22.8966 42.8965 22.8966 42.4828 22.8966 42.069ZM32.4138 30.7586C32.4138 32.1379 33.5172 33.3793 35.0345 33.3793C36.5517 33.3793 37.6552 32.2759 37.6552 30.7586C37.6552 29.2414 36.5517 28.1379 35.0345 28.1379C33.5172 28.1379 32.4138 29.2414 32.4138 30.7586ZM40.5517 6.62069C34.7586 0.827587 27.8621 0 24.2759 0C20.6897 0 13.7931 0.827586 8.13793 6.75862C2.75862 12.4138 0 20.8276 0 32C0 43.1724 2.75862 51.5862 8.13793 57.2414C13.7931 63.0345 20.6897 64 24.2759 64C27.8621 64 34.7586 63.1724 40.4138 57.2414C45.7931 51.5862 48.5517 43.1724 48.5517 32C48.5517 20.8276 45.7931 12.4138 40.4138 6.75862L40.5517 6.62069ZM24.4138 62.4828C14.6207 62.4828 1.37931 55.7241 1.37931 31.8621C1.37931 8 14.4828 1.24138 24.2759 1.24138C34.069 1.24138 47.3103 8 47.3103 31.8621C47.3103 55.7241 34.2069 62.4828 24.2759 62.4828H24.4138ZM11.1724 23.3103L8 20.1379C8 20.5517 7.72414 21.1034 7.58621 21.5172L10.2069 24.1379C10.4828 23.7241 10.7586 23.4483 11.0345 23.1724L11.1724 23.3103ZM27.7241 38.8966L32.4138 34.2069C32 33.931 31.7241 33.6552 31.4483 33.3793L27.4483 37.3793C27.0345 35.3103 26.3448 33.3793 25.6552 31.5862C25.6552 31.4483 25.5172 31.1724 25.3793 31.0345L39.5862 16.8276C39.4483 16.4138 39.1724 16 39.0345 15.5862L24.8276 29.7931C24.1379 27.7241 23.4483 25.5172 23.3103 22.8966L27.0345 19.1724C26.7586 18.8965 26.3448 18.6207 26.2069 18.2069L23.3103 21.1034C23.3103 19.4483 23.5862 17.5172 24 15.3103C24.6897 12.2759 26.069 8.82759 27.3103 6.62069H25.931C25.931 6.48276 21.2414 12.9655 20.8276 20C20.6897 22.6207 20.9655 25.2414 21.6552 27.8621C22.3448 30.4828 22.6207 31.0345 23.1724 32.5517C24.8276 37.1034 26.3448 41.2414 24.6897 48.9655C24 52 22.8965 54.8965 21.6552 57.2414C21.931 57.2414 22.4828 57.2414 22.7586 57.3793C23.0345 57.5172 23.1724 57.3793 23.1724 57.3793C25.1034 54.6207 25.5172 54.3448 27.3103 49.5172C27.8621 49.931 28.5517 50.3448 29.1034 50.7586C29.2414 51.5862 29.931 53.7931 31.8621 55.5862C32.2759 55.4483 32.6897 55.1724 33.1034 54.8965C31.7241 53.7931 31.0345 52.5517 30.7586 51.5862C32.4138 52.4138 33.931 52.8276 35.3103 53.2414C35.5862 52.9655 35.7241 52.8276 36 52.6897C36.1379 52.5517 36.2759 52.4138 36.4138 52.1379C33.7931 51.5862 30.3448 50.4828 27.5862 48C27.8621 46.2069 28 44.6897 28 43.1724H40.8276C40.8276 42.7586 41.1034 42.3448 41.1034 41.931H27.8621C27.8621 40.8276 27.8621 39.8621 27.5862 38.8966H27.7241ZM15.7241 45.1034C13.6552 46.2069 11.3103 46.7586 9.37931 47.0345C9.51724 47.4483 9.7931 47.8621 9.93103 48.2759C12.5517 47.8621 15.5862 47.0345 18.069 45.2414H15.7241V45.1034ZM22.7586 45.6552C19.5862 49.2414 15.0345 50.7586 11.8621 51.3103C12.1379 51.7241 12.5517 52.1379 12.8276 52.4138C14.4828 52.1379 16.2759 51.5862 18.2069 50.6207C17.7931 51.7241 16.9655 53.3793 15.1724 54.4828C15.5862 54.7586 16 55.0345 16.2759 55.1724C18.7586 53.3793 19.5862 50.6207 19.7241 49.7931C20.5517 49.2414 21.5172 48.5517 22.3448 47.8621C22.4828 47.0345 22.6207 46.3448 22.7586 45.6552ZM29.5172 45.1034C32.1379 47.5862 35.7241 48.5517 38.6207 48.8276C38.8966 48.4138 39.0345 48 39.3103 47.5862C36.8276 47.3103 33.931 46.6207 31.5862 45.1034H29.5172ZM80.6886 20.5517V31.5862C80.6886 36.5517 78.7575 39.0345 74.7575 38.8966C71.7231 38.8966 69.3782 37.2414 68.5506 34.3448L70.0679 33.931C70.7575 36.1379 72.5506 37.3793 74.6196 37.3793C77.792 37.3793 79.0334 35.4483 79.0334 31.5862V20.5517H80.6886ZM96.2748 19.8621L86.0679 38.7586H87.861L90.2058 34.2069H102.068L104.413 38.7586H106.206L96.1368 19.8621H96.2748ZM91.0334 32.6897L96.1368 22.8966L101.24 32.6897H90.8955H91.0334ZM165.516 19.8621L155.309 38.7586H157.102L159.447 34.2069H171.309L173.654 38.7586H175.447L165.378 19.8621H165.516ZM160.275 32.6897L165.378 22.8966L170.482 32.6897H160.137H160.275ZM127.309 20.4138L114.344 37.1034H127.309V38.6207H111.447L124.413 21.931H112.275V20.4138H127.447H127.309ZM136.689 37.1034H149.102V38.6207H135.033V20.4138H149.102V21.931H136.689V28H145.93V29.5172H136.689V37.1034ZM198.206 20.4138V38.6207H196.551L183.309 22.7586V38.6207H181.654V20.4138H183.309L196.551 36.2759V20.4138H198.206Z" fill="url(#goldWave)"></path>
    <defs>
      <linearGradient id="goldWave" x1="198" y1="32" x2="-1.25918e-05" y2="32" gradientUnits="userSpaceOnUse">
        <stop stop-color="#BC9B57"></stop>
        <stop offset="0.464505" stop-color="#FBE8B5"></stop>
        <stop offset="1" stop-color="#BC9B57"></stop>
      </linearGradient>
    </defs>
  </symbol>
  <symbol id="ico-lang" width="28" height="13" viewBox="0 0 28 13" fill="none" xmlns="http://www.w3.org/2000/svg">
      <path d="M0.939922 7.014C0.939922 6.79 0.958589 6.552 0.995922 6.3C1.04259 6.03867 1.10792 5.76333 1.19192 5.474C1.28526 5.17533 1.39726 4.86267 1.52792 4.536L2.53592 4.928C2.44259 5.18933 2.35859 5.43667 2.28392 5.67C2.21859 5.90333 2.16726 6.12267 2.12992 6.328C2.10192 6.53333 2.08792 6.72933 2.08792 6.916C2.08792 7.308 2.17192 7.63933 2.33992 7.91C2.51726 8.19 2.75992 8.41867 3.06792 8.596C3.37592 8.77333 3.72592 8.904 4.11792 8.988C4.51926 9.072 4.94392 9.114 5.39192 9.114C5.93326 9.114 6.43726 9.06733 6.90392 8.974C7.37992 8.88067 7.79526 8.74533 8.14992 8.568C8.51392 8.4 8.79859 8.204 9.00392 7.98C9.20926 7.76533 9.31192 7.532 9.31192 7.28C9.31192 7.15867 9.26526 7.04667 9.17192 6.944C9.07859 6.84133 8.93859 6.74333 8.75192 6.65C8.56526 6.55667 8.34126 6.468 8.07992 6.384C7.81859 6.29067 7.51992 6.19733 7.18392 6.104L7.44992 4.942C7.93526 5.12867 8.36459 5.28733 8.73792 5.418C9.11126 5.53933 9.43792 5.63733 9.71792 5.712C9.99792 5.78667 10.2406 5.84267 10.4459 5.88C10.6513 5.908 10.8239 5.922 10.9639 5.922C11.1599 5.922 11.2999 5.978 11.3839 6.09C11.4773 6.19267 11.5239 6.31867 11.5239 6.468C11.5239 6.61733 11.4586 6.75733 11.3279 6.888C11.1973 7.00933 11.0293 7.07 10.8239 7.07C10.7679 7.07 10.7119 7.07 10.6559 7.07C10.5999 7.07 10.5393 7.07 10.4739 7.07C10.4179 7.07 10.3619 7.07 10.3059 7.07C10.3246 7.154 10.3386 7.21933 10.3479 7.266C10.3573 7.322 10.3619 7.392 10.3619 7.476C10.3619 7.82133 10.2406 8.15733 9.99792 8.484C9.76459 8.81067 9.41926 9.10467 8.96192 9.366C8.50459 9.63667 7.94926 9.85133 7.29592 10.01C6.65192 10.1687 5.91459 10.248 5.08392 10.248C4.34659 10.248 3.66059 10.1267 3.02592 9.884C2.40059 9.65067 1.89659 9.296 1.51392 8.82C1.13126 8.344 0.939922 7.742 0.939922 7.014ZM6.09192 12.894C5.89592 12.894 5.72792 12.824 5.58792 12.684C5.45726 12.5533 5.39192 12.3947 5.39192 12.208C5.39192 12.0213 5.45726 11.858 5.58792 11.718C5.72792 11.578 5.89592 11.508 6.09192 11.508C6.27859 11.508 6.43726 11.578 6.56792 11.718C6.70792 11.858 6.77792 12.0213 6.77792 12.208C6.77792 12.3947 6.70792 12.5533 6.56792 12.684C6.43726 12.824 6.27859 12.894 6.09192 12.894ZM4.17392 12.894C3.97792 12.894 3.80992 12.824 3.66992 12.684C3.53926 12.5533 3.47392 12.3947 3.47392 12.208C3.47392 12.0213 3.53926 11.858 3.66992 11.718C3.80992 11.578 3.97792 11.508 4.17392 11.508C4.36059 11.508 4.51926 11.578 4.64992 11.718C4.78992 11.858 4.85992 12.0213 4.85992 12.208C4.85992 12.3947 4.78992 12.5533 4.64992 12.684C4.51926 12.824 4.36059 12.894 4.17392 12.894ZM10.9285 7.07L11.0685 5.922C11.5258 5.922 11.8898 5.894 12.1605 5.838C12.4312 5.782 12.6272 5.67 12.7485 5.502C12.8698 5.32467 12.9305 5.06333 12.9305 4.718C12.9305 4.48467 12.8932 4.20933 12.8185 3.892C12.7438 3.56533 12.6458 3.22 12.5245 2.856C12.4032 2.492 12.2725 2.13267 12.1325 1.778L13.2665 1.358C13.3878 1.65667 13.4998 1.99733 13.6025 2.38C13.7145 2.76267 13.8078 3.14067 13.8825 3.514C13.9572 3.88733 13.9945 4.214 13.9945 4.494C13.9945 4.86733 13.9525 5.19867 13.8685 5.488C13.7938 5.768 13.6772 6.01067 13.5185 6.216C13.3598 6.412 13.1545 6.57533 12.9025 6.706C12.6598 6.82733 12.3752 6.92067 12.0485 6.986C11.7218 7.042 11.3485 7.07 10.9285 7.07ZM12.4265 9.674C12.2305 9.674 12.0625 9.604 11.9225 9.464C11.7918 9.33333 11.7265 9.17467 11.7265 8.988C11.7265 8.80133 11.7918 8.638 11.9225 8.498C12.0625 8.358 12.2305 8.288 12.4265 8.288C12.6132 8.288 12.7718 8.358 12.9025 8.498C13.0425 8.638 13.1125 8.80133 13.1125 8.988C13.1125 9.17467 13.0425 9.33333 12.9025 9.464C12.7718 9.604 12.6132 9.674 12.4265 9.674ZM14.8443 10.248L14.4383 9.184C15.1196 8.96 15.6843 8.70333 16.1323 8.414C16.5896 8.12467 16.9489 7.81667 17.2103 7.49C17.4809 7.16333 17.6723 6.832 17.7843 6.496C17.8963 6.15067 17.9523 5.81933 17.9523 5.502C17.9523 5.04467 17.8496 4.58267 17.6443 4.116C17.4483 3.64 17.2289 3.192 16.9863 2.772L18.0083 2.254C18.1856 2.58067 18.3396 2.90267 18.4703 3.22C18.6103 3.53733 18.7316 3.836 18.8343 4.116C18.9463 4.396 19.0349 4.65267 19.1003 4.886C19.2309 5.28733 19.3989 5.56267 19.6043 5.712C19.8189 5.852 20.1083 5.922 20.4723 5.922C20.6683 5.922 20.8083 5.978 20.8923 6.09C20.9856 6.19267 21.0323 6.31867 21.0323 6.468C21.0323 6.61733 20.9669 6.75733 20.8363 6.888C20.7056 7.00933 20.5376 7.07 20.3323 7.07C19.9216 7.07 19.5856 7 19.3243 6.86C19.0723 6.71067 18.8809 6.51933 18.7503 6.286C18.6196 6.04333 18.5309 5.79133 18.4843 5.53L18.9323 5.782C18.9323 6.398 18.7923 6.958 18.5123 7.462C18.2416 7.97533 17.8916 8.41867 17.4623 8.792C17.0329 9.17467 16.5849 9.48733 16.1183 9.73C15.6516 9.97267 15.2269 10.1453 14.8443 10.248ZM20.4391 7.07L20.5791 5.922C21.1671 5.922 21.6197 5.91733 21.9371 5.908C22.2637 5.89867 22.5017 5.88933 22.6511 5.88C22.8004 5.86133 22.9031 5.852 22.9591 5.852C22.7911 5.75867 22.5951 5.614 22.3711 5.418C22.1471 5.21267 21.9511 4.956 21.7831 4.648C21.6151 4.33067 21.5311 3.95733 21.5311 3.528C21.5311 2.996 21.6524 2.52933 21.8951 2.128C22.1471 1.72667 22.4877 1.414 22.9171 1.19C23.3557 0.966 23.8551 0.854 24.4151 0.854C24.6297 0.854 24.8584 0.872666 25.1011 0.91C25.3437 0.947333 25.5771 1.00333 25.8011 1.078L25.5631 2.156C25.3764 2.10933 25.1804 2.072 24.9751 2.044C24.7697 2.016 24.5831 2.002 24.4151 2.002C24.0791 2.002 23.7804 2.06733 23.5191 2.198C23.2577 2.31933 23.0524 2.492 22.9031 2.716C22.7537 2.94 22.6791 3.21067 22.6791 3.528C22.6791 3.77067 22.7304 3.99467 22.8331 4.2C22.9357 4.396 23.0711 4.57333 23.2391 4.732C23.4071 4.89067 23.5937 5.02133 23.7991 5.124C24.0044 5.22667 24.2051 5.306 24.4011 5.362C24.6064 5.418 24.7884 5.44133 24.9471 5.432C25.0591 5.39467 25.1617 5.362 25.2551 5.334C25.3484 5.306 25.4511 5.27333 25.5631 5.236C25.6844 5.18933 25.8291 5.12867 25.9971 5.054C26.1744 4.97933 26.3984 4.88133 26.6691 4.76L27.0611 5.782C26.4357 6.034 25.7964 6.258 25.1431 6.454C24.4991 6.65 23.7944 6.804 23.0291 6.916C22.2731 7.01867 21.4097 7.07 20.4391 7.07Z" fill="currentColor"></path>
  </symbol>
  <symbol id="ico-ig" width="18" height="18" viewBox="0 0 18 18" fill="none" xmlns="http://www.w3.org/2000/svg">
      <path d="M8.99893 1.78659C11.3265 1.78659 11.6369 1.78658 12.5679 1.86417C13.4213 1.94175 13.8869 2.01935 14.1972 2.17452C14.5851 2.32969 14.8955 2.48487 15.2058 2.79521C15.5162 3.10556 15.6713 3.41589 15.8265 3.80382C15.9817 4.11417 16.0593 4.57969 16.1369 5.43314C16.2144 6.36417 16.2145 6.59693 16.2145 9.00211C16.2145 11.3297 16.2144 11.64 16.1369 12.5711C16.0593 13.4245 15.9817 13.89 15.8265 14.2004C15.6713 14.5883 15.5162 14.8987 15.2058 15.209C14.8955 15.5193 14.5851 15.6745 14.1972 15.8297C13.8869 15.9849 13.4213 16.0624 12.5679 16.14C11.6369 16.2176 11.4041 16.2176 8.99893 16.2176C6.67135 16.2176 6.361 16.2176 5.42997 16.14C4.57652 16.0624 4.111 15.9849 3.80066 15.8297C3.41273 15.6745 3.10238 15.5193 2.79204 15.209C2.48169 14.8987 2.32652 14.5883 2.17134 14.2004C2.01617 13.89 1.93859 13.4245 1.861 12.5711C1.78342 11.64 1.78341 11.4073 1.78341 9.00211C1.78341 6.67452 1.78342 6.36417 1.861 5.43314C1.93859 4.57969 2.01617 4.11417 2.17134 3.80382C2.32652 3.41589 2.48169 3.10556 2.79204 2.79521C3.10238 2.48487 3.41273 2.32969 3.80066 2.17452C4.111 2.01935 4.57652 1.94175 5.42997 1.86417C6.361 1.78658 6.59376 1.78659 8.99893 1.78659ZM8.99893 0.234863C6.59376 0.234863 6.28342 0.234856 5.35238 0.312442C4.42135 0.390029 3.80066 0.467615 3.25755 0.700373C2.71445 0.933132 2.17135 1.24348 1.70583 1.709C1.24031 2.17451 0.92997 2.71762 0.697211 3.26072C0.464453 3.80382 0.30928 4.42451 0.30928 5.35555C0.231694 6.28658 0.231689 6.59693 0.231689 9.00211C0.231689 11.4073 0.231694 11.7176 0.30928 12.6487C0.386867 13.5797 0.464453 14.2004 0.697211 14.7435C0.92997 15.2866 1.24031 15.8297 1.70583 16.2952C2.17135 16.7607 2.71445 17.0711 3.25755 17.3038C3.80066 17.5366 4.42135 17.6918 5.35238 17.6918C6.28342 17.7693 6.59376 17.7693 8.99893 17.7693C11.4041 17.7693 11.7144 17.7693 12.6455 17.6918C13.5765 17.6142 14.1972 17.5366 14.7403 17.3038C15.2834 17.0711 15.8265 16.7607 16.292 16.2952C16.7576 15.8297 17.0679 15.2866 17.3007 14.7435C17.5334 14.2004 17.6886 13.5797 17.6886 12.6487C17.7662 11.7176 17.7662 11.4073 17.7662 9.00211C17.7662 6.59693 17.7662 6.28658 17.6886 5.35555C17.611 4.42451 17.5334 3.80382 17.3007 3.26072C17.0679 2.71762 16.7576 2.17451 16.292 1.709C15.8265 1.24348 15.2834 0.933132 14.7403 0.700373C14.1972 0.467615 13.5765 0.312442 12.6455 0.312442C11.6369 0.234856 11.3265 0.234863 8.99893 0.234863Z" fill="#FEFCF7"></path>
      <path d="M8.99903 4.50684C6.51627 4.50684 4.49902 6.52408 4.49902 9.00684C4.49902 11.4896 6.51627 13.5068 8.99903 13.5068C11.4818 13.5068 13.499 11.4896 13.499 9.00684C13.499 6.52408 11.4818 4.50684 8.99903 4.50684ZM8.99903 11.8775C7.36972 11.8775 6.05075 10.5586 6.05075 8.92925C6.05075 7.29994 7.36972 5.98097 8.99903 5.98097C10.6283 5.98097 11.9473 7.29994 11.9473 8.92925C11.8697 10.6361 10.5507 11.8775 8.99903 11.8775Z" fill="#FEFCF7"></path>
      <path d="M14.6631 4.26833C14.6631 4.81143 14.1976 5.35453 13.5769 5.35453C13.0338 5.35453 12.4907 4.88902 12.4907 4.26833C12.4907 3.64764 12.9562 3.18213 13.5769 3.18213C14.1976 3.25972 14.6631 3.72523 14.6631 4.26833Z" fill="#FEFCF7"></path>
  </symbol>
  <symbol id="ico-yt" width="19" height="12" viewBox="0 0 19 12" fill="none" xmlns="http://www.w3.org/2000/svg">
      <path d="M17.6562 1.90625C17.4688 1.15625 16.875 0.5625 16.1562 0.375C14.8125 0 9.5 0 9.5 0C9.5 0 4.15625 0 2.8125 0.375C2.09375 0.5625 1.5 1.15625 1.3125 1.90625C0.9375 3.21875 0.9375 6.03125 0.9375 6.03125C0.9375 6.03125 0.9375 8.8125 1.3125 10.1562C1.5 10.9062 2.09375 11.4688 2.8125 11.6562C4.15625 12 9.5 12 9.5 12C9.5 12 14.8125 12 16.1562 11.6562C16.875 11.4688 17.4688 10.9062 17.6562 10.1562C18.0312 8.8125 18.0312 6.03125 18.0312 6.03125C18.0312 6.03125 18.0312 3.21875 17.6562 1.90625ZM7.75 8.5625V3.5L12.1875 6.03125L7.75 8.5625Z" fill="#FEFCF7"></path>
  </symbol>
  <symbol id="ico-x" xmlns="http://www.w3.org/2000/svg" width="1000.78" height="936.69" viewBox="0 0 1000.78 936.69">
      <g>
          <path d="M283.94,167.31,670.33,683.95,281.5,1104h87.51L709.43,736.24,984.48,1104h297.8L874.15,558.3l361.92-390.99h-87.51L835.05,506.01,581.74,167.31Zm128.69,64.46H549.44l604.13,807.76H1016.76Z" fill="#fff"></path>
      </g>
  </symbol>
  <symbol id="ico-snb1" width="64" height="64" viewBox="0 0 64 64" fill="none" xmlns="http://www.w3.org/2000/svg">
      <path d="M10.3509 29.0398L10.2575 29.0352C10.1852 29.0375 10.1082 29.0655 10.0591 29.1239C10.0101 29.1822 9.98912 29.2592 10.0055 29.3339C11.9568 38.7217 20.0165 45.5397 29.605 45.9155H29.7007C29.7731 45.9178 29.8431 45.8875 29.8898 45.8315C29.9388 45.7731 29.9598 45.6961 29.9435 45.6214C28.0062 36.2336 19.9488 29.4156 10.3509 29.0398ZM29.3109 45.0845L11.0722 29.5813C19.8951 30.2442 27.2522 36.4927 29.3133 45.0845H29.3109ZM10.638 29.8661L28.8861 45.374C20.0702 44.7111 12.7107 38.4627 10.638 29.8661V29.8661Z" fill="#FEFCF7"></path>
      <path d="M53.7892 29.124C53.7402 29.0656 53.6655 29.0329 53.5908 29.0353L53.4975 29.0399C43.8996 29.4157 35.8422 36.2337 33.9049 45.6215C33.8885 45.6962 33.9095 45.7732 33.9586 45.8316C34.0052 45.8876 34.0753 45.9203 34.1476 45.9203H34.2433C43.8319 45.5398 51.8916 38.7219 53.8429 29.3364C53.8592 29.2617 53.8382 29.1847 53.7892 29.1263V29.124ZM52.7762 29.5815L34.5351 45.0847C36.5961 36.4928 43.9532 30.2467 52.7762 29.5815V29.5815ZM34.9622 45.3718L53.2104 29.8662C51.14 38.4604 43.7805 44.7112 34.9622 45.3741V45.3718Z" fill="#FEFCF7"></path>
      <path d="M34.0573 35.6544C33.6629 34.7394 32.9113 34.2539 31.8796 34.2539C30.8479 34.2539 30.157 34.7604 29.7765 35.6777C28.99 37.5707 29.8722 40.7241 31.7045 42.561C31.7512 42.6077 31.8142 42.6334 31.8796 42.6334C31.9449 42.6334 32.008 42.6077 32.0546 42.561C32.092 42.5237 32.1247 42.491 32.19 42.435C33.9733 40.5537 34.8276 37.4493 34.0573 35.652V35.6544ZM31.8889 42.0359C30.1687 40.1709 29.6295 37.3303 30.2364 35.8691C30.5445 35.1269 31.0977 34.7511 31.8819 34.7511C32.6662 34.7511 33.2894 35.1199 33.6022 35.8504C34.3001 37.4727 33.5041 40.3039 31.8889 42.0359Z" fill="#FEFCF7"></path>
      <path d="M31.915 20.6539C32.6479 20.6539 33.2431 20.0587 33.2431 19.3258C33.2431 18.5929 32.6479 18 31.915 18C31.1821 18 30.5869 18.5952 30.5869 19.3281C30.5869 20.061 31.1821 20.6562 31.915 20.6562V20.6539ZM31.915 18.4948C32.3725 18.4948 32.746 18.8683 32.746 19.3258C32.746 19.7833 32.3725 20.1567 31.915 20.1567C31.4575 20.1567 31.0841 19.7833 31.0841 19.3258C31.0841 18.8683 31.4575 18.4948 31.915 18.4948Z" fill="#FEFCF7"></path>
      <path d="M31.915 26.3545C32.6479 26.3545 33.2431 25.7593 33.2431 25.0264C33.2431 24.2934 32.6479 23.6982 31.915 23.6982C31.1821 23.6982 30.5869 24.2934 30.5869 25.0264C30.5869 25.7593 31.1821 26.3545 31.915 26.3545ZM31.915 24.1954C32.3725 24.1954 32.746 24.5689 32.746 25.0264C32.746 25.4838 32.3725 25.8573 31.915 25.8573C31.4575 25.8573 31.0841 25.4838 31.0841 25.0264C31.0841 24.5689 31.4575 24.1954 31.915 24.1954V24.1954Z" fill="#FEFCF7"></path>
      <path d="M31.915 32.0537C32.6479 32.0537 33.2431 31.4585 33.2431 30.7256C33.2431 29.9927 32.6479 29.3975 31.915 29.3975C31.1821 29.3975 30.5869 29.9927 30.5869 30.7256C30.5869 31.4585 31.1821 32.0537 31.915 32.0537ZM31.915 29.8946C32.3725 29.8946 32.746 30.2681 32.746 30.7256C32.746 31.1831 32.3725 31.5565 31.915 31.5565C31.4575 31.5565 31.0841 31.1831 31.0841 30.7256C31.0841 30.2681 31.4575 29.8946 31.915 29.8946Z" fill="#FEFCF7"></path>
      <path d="M11.3291 40.3936C10.5962 40.3936 10.001 40.9888 10.001 41.7217C10.001 42.4546 10.5962 43.0498 11.3291 43.0498C12.062 43.0498 12.6572 42.4546 12.6572 41.7217C12.6572 40.9888 12.062 40.3936 11.3291 40.3936ZM11.3291 42.5526C10.8716 42.5526 10.4981 42.1792 10.4981 41.7217C10.4981 41.2642 10.8716 40.8907 11.3291 40.8907C11.7866 40.8907 12.16 41.2642 12.16 41.7217C12.16 42.1792 11.7866 42.5526 11.3291 42.5526Z" fill="#FEFCF7"></path>
      <path d="M52.5195 40.3936C51.7866 40.3936 51.1914 40.9888 51.1914 41.7217C51.1914 42.4546 51.7866 43.0498 52.5195 43.0498C53.2524 43.0498 53.8476 42.4546 53.8476 41.7217C53.8476 40.9888 53.2524 40.3936 52.5195 40.3936ZM52.5195 42.5526C52.062 42.5526 51.6886 42.1792 51.6886 41.7217C51.6886 41.2642 52.062 40.8907 52.5195 40.8907C52.977 40.8907 53.3505 41.2642 53.3505 41.7217C53.3505 42.1792 52.977 42.5526 52.5195 42.5526Z" fill="#FEFCF7"></path>
  </symbol>
  <symbol id="ico-snb2" width="64" height="64" viewBox="0 0 64 64" fill="none" xmlns="http://www.w3.org/2000/svg">
      <path d="M34.1292 33.2901L32.8295 31.9906L34.1157 30.7046C42.3452 30.5724 49 23.8485 49 15.5904C49 14.9912 48.7358 15 48.4122 15H48.032C39.9913 15.1887 33.4416 21.821 33.296 29.858L31.9964 31.1602L30.7075 29.8715C30.5673 21.6512 23.8478 15.0027 15.594 15.0027C14.8971 15.0027 15.0062 15.2669 15.0062 15.5931V15.9733C15.1923 24.0183 21.8362 30.5697 29.877 30.7072L31.1659 31.996L29.8824 33.282H29.7556C21.6232 33.4707 15.0062 40.2513 15.0062 48.4069C15.0062 48.9973 15.2705 48.9973 15.594 48.9973C23.8532 48.9973 30.5753 42.3461 30.7102 34.1205L31.9991 32.8317L33.2852 34.1178V34.2526C33.474 42.3839 40.2555 49 48.4122 49C48.6356 48.9973 49 48.7358 49 48.4096C49 40.1569 42.3506 33.4357 34.1292 33.2982V33.2901ZM47.8109 16.1863C47.5062 23.4036 41.69 29.219 34.4744 29.5264C34.7791 22.3576 40.6303 16.4774 47.8109 16.1863ZM16.1926 16.1917C23.4083 16.499 29.2244 22.3117 29.5345 29.5264C22.3674 29.219 16.4838 23.3713 16.1926 16.1917ZM16.198 47.803C16.5027 40.6368 22.354 34.754 29.5345 34.4629C29.2298 41.6775 23.4136 47.4929 16.198 47.803ZM34.4717 34.4683C41.6873 34.7756 47.5035 40.5883 47.8136 47.803C40.6465 47.4956 34.7629 41.6479 34.4717 34.4683Z" fill="#FEFCF7"></path>
  </symbol>
  <symbol id="ico-snb3" width="64" height="64" viewBox="0 0 64 64" fill="none" xmlns="http://www.w3.org/2000/svg">
    <path d="M40.6867 26.0121C40.6263 26.0121 40.5693 25.9827 40.533 25.9326C39.8437 24.9721 39.0128 24.1481 38.0592 23.483C38.0074 23.4468 37.9763 23.3863 37.9798 23.3224C37.9815 23.2585 38.016 23.1997 38.0713 23.1669L44.5494 19.2887C44.6237 19.2438 44.7204 19.2559 44.7809 19.3181C44.8431 19.3803 44.8534 19.477 44.8068 19.5495L40.8474 25.924C40.8146 25.9775 40.7558 26.0104 40.6936 26.0138H40.6867V26.0121ZM38.5118 23.3431C39.3272 23.9477 40.0527 24.6664 40.6729 25.4869L44.0743 20.0125L38.5118 23.3431Z" fill="#FEFCF7"></path>
    <path d="M42.5193 33.9616C42.4709 33.9616 42.426 33.9443 42.3897 33.9097C42.3431 33.8666 42.3223 33.8026 42.3327 33.7404C42.4312 33.1686 42.4813 32.583 42.4813 31.9957C42.4813 31.4083 42.4312 30.8314 42.3327 30.2665C42.3223 30.2043 42.3431 30.1386 42.3897 30.0954C42.4363 30.0523 42.502 30.035 42.5642 30.0505L49.8594 31.8834C49.944 31.9041 50.0027 31.9819 50.0027 32.0682C50.0027 32.1546 49.9405 32.2306 49.8559 32.2514L42.5607 33.9564C42.5469 33.9598 42.5314 33.9616 42.5175 33.9616H42.5193ZM42.7507 30.4876C42.8233 30.9851 42.8596 31.4913 42.8596 31.9974C42.8596 32.5036 42.8233 33.0218 42.7507 33.5262L49.0129 32.0613L42.7507 30.4876Z" fill="#FEFCF7"></path>
    <path d="M44.552 44.8277C44.5174 44.8277 44.4829 44.8191 44.4518 44.8001L38.0635 40.832C38.01 40.7992 37.9754 40.7405 37.9737 40.6766C37.972 40.6126 38.0031 40.5522 38.0532 40.5159C39.0067 39.8491 39.8377 39.0251 40.5269 38.0663C40.5649 38.0145 40.6306 37.9817 40.6876 37.9869C40.7515 37.9886 40.8102 38.0231 40.8413 38.0784L44.7109 44.5427C44.7558 44.617 44.7437 44.7137 44.6815 44.7742C44.6453 44.8104 44.5969 44.8277 44.5485 44.8277H44.552ZM38.504 40.6576L43.9905 44.0659L40.6669 38.5155C40.045 39.3343 39.3211 40.0547 38.504 40.6576Z" fill="#FEFCF7"></path>
    <path d="M31.9343 49.9973C31.8479 49.9973 31.7719 49.9368 31.7512 49.8521L30.0271 42.4775C30.0133 42.4153 30.0306 42.3497 30.0738 42.3048C30.117 42.2581 30.1826 42.2374 30.2448 42.2495C31.3901 42.4568 32.6132 42.4654 33.7481 42.2719C33.8086 42.2616 33.8742 42.2823 33.9192 42.3307C33.9623 42.3773 33.9796 42.443 33.9641 42.5052L32.1208 49.8573C32.1001 49.942 32.0241 50.0007 31.9377 50.0007L31.9343 49.9973ZM30.459 42.6658L31.9412 49.0057L33.5253 42.6865C32.5251 42.8265 31.4678 42.8196 30.459 42.6658Z" fill="#FEFCF7"></path>
    <path d="M19.3586 44.7321C19.3085 44.7321 19.2601 44.7131 19.2238 44.6751C19.1617 44.6129 19.1513 44.5161 19.1979 44.4436L23.2178 37.9707C23.2523 37.9171 23.3093 37.8826 23.3733 37.8809C23.432 37.8809 23.4976 37.9102 23.5339 37.962C24.2111 38.9312 25.0455 39.7742 26.0163 40.4686C26.0681 40.5049 26.0975 40.5654 26.0958 40.6293C26.0941 40.6932 26.0595 40.7519 26.0042 40.783L19.4553 44.7044C19.426 44.7217 19.3914 44.7321 19.3586 44.7321ZM23.3905 38.4095L19.9304 43.9806L25.5654 40.6051C24.7345 39.978 24.0038 39.2404 23.3905 38.4095Z" fill="#FEFCF7"></path>
    <path d="M21.6217 33.9843C21.6061 33.9843 21.5906 33.9825 21.575 33.9791L14.1434 32.1134C14.0587 32.0927 14 32.0149 14 31.9286C14 31.8422 14.0622 31.7662 14.1468 31.7454L21.5785 30.0076C21.6407 29.9938 21.7046 30.0111 21.7512 30.0542C21.7979 30.0974 21.8186 30.1613 21.8065 30.2253C21.7046 30.7988 21.6545 31.3948 21.6545 31.9977C21.6545 32.6006 21.7063 33.1914 21.8065 33.7649C21.8186 33.8288 21.7961 33.8927 21.7495 33.9359C21.715 33.9687 21.6683 33.986 21.6199 33.986L21.6217 33.9843ZM14.9916 31.9355L21.3885 33.542C21.3142 33.0359 21.2762 32.5176 21.2762 31.9959C21.2762 31.4742 21.3142 30.9473 21.3902 30.4395L14.9916 31.9355Z" fill="#FEFCF7"></path>
    <path d="M23.3838 26.1086H23.3769C23.313 26.1069 23.2543 26.0724 23.2214 26.0171L19.2897 19.4543C19.2448 19.3801 19.2569 19.2833 19.319 19.2229C19.3812 19.1607 19.4762 19.1503 19.5505 19.197L26.0096 23.2082C26.0631 23.241 26.096 23.2997 26.0994 23.3619C26.1012 23.4258 26.0718 23.4846 26.02 23.5226C25.0543 24.2101 24.2199 25.0531 23.5376 26.0292C23.5013 26.0793 23.4443 26.1104 23.3821 26.1104L23.3838 26.1086ZM20.0152 19.9294L23.3976 25.5766C24.0161 24.7405 24.7451 24.0046 25.5725 23.3809L20.0152 19.9294Z" fill="#FEFCF7"></path>
    <path d="M30.2219 21.753C30.1701 21.753 30.12 21.7322 30.0837 21.6925C30.0405 21.6459 30.0233 21.5802 30.0388 21.518L31.8855 14.1434C31.9062 14.0587 31.9822 14 32.0686 14C32.155 14 32.231 14.0605 32.2517 14.1451L33.9706 21.4973C33.9844 21.5595 33.9671 21.6234 33.9239 21.67C33.8808 21.7167 33.8134 21.7357 33.7546 21.727C32.6335 21.537 31.4104 21.5405 30.253 21.7495C30.2427 21.7512 30.2306 21.753 30.2185 21.753H30.2219ZM32.0634 14.9916L30.4759 21.3297C31.4916 21.1742 32.5489 21.1708 33.5422 21.3107L32.0634 14.9916Z" fill="#FEFCF7"></path>
    <path d="M37.5474 23.1084C37.5129 23.1084 37.4801 23.0997 37.449 23.0807C36.4988 22.5037 35.4675 22.0891 34.3879 21.8473C34.3188 21.8318 34.2652 21.7799 34.2462 21.7126C34.2272 21.6452 34.2479 21.5726 34.2997 21.5243L37.3609 18.6618C37.4161 18.61 37.4956 18.5962 37.563 18.6255C37.6321 18.6549 37.677 18.7223 37.6787 18.7966L37.7357 22.9166C37.7357 22.9857 37.6994 23.0496 37.6407 23.0825C37.6113 23.0997 37.5785 23.1066 37.5474 23.1066V23.1084ZM34.8145 21.5605C35.7007 21.7903 36.5524 22.1341 37.3539 22.5867L37.3073 19.2284L34.8145 21.5605Z" fill="#FEFCF7"></path>
    <path d="M42.3619 29.6653C42.3447 29.6653 42.3291 29.6636 42.3118 29.6584C42.2462 29.6394 42.1944 29.5876 42.1788 29.5202C41.9231 28.4595 41.4982 27.4455 40.916 26.5092C40.8797 26.4505 40.878 26.3762 40.9126 26.3157C40.9471 26.2553 41.0024 26.2224 41.0836 26.2207L45.2175 26.3572C45.2917 26.3589 45.3574 26.4055 45.3868 26.4764C45.4144 26.5455 45.3988 26.6249 45.347 26.6785L42.4984 29.6083C42.4621 29.6463 42.4138 29.6653 42.3619 29.6653ZM41.417 26.6111C41.8713 27.3989 42.222 28.235 42.4604 29.1039L44.777 26.7217L41.417 26.6111Z" fill="#FEFCF7"></path>
    <path d="M41.105 37.7236C41.0376 37.7236 40.9737 37.6874 40.9409 37.6286C40.9063 37.5682 40.9081 37.4956 40.9443 37.4369C41.523 36.4971 41.9428 35.4848 42.1881 34.431C42.2037 34.3637 42.2555 34.3101 42.3229 34.2911C42.3902 34.2721 42.4611 34.2928 42.5094 34.3447L45.3356 37.354C45.3874 37.4092 45.4013 37.4887 45.3719 37.5578C45.3425 37.6269 45.2751 37.6718 45.2009 37.6718L41.1085 37.7236H41.1067H41.105ZM42.4697 34.8543C42.2365 35.718 41.891 36.5524 41.4401 37.3419L44.7655 37.3004L42.4697 34.856V34.8543Z" fill="#FEFCF7"></path>
    <path d="M37.4475 45.3985C37.3991 45.3985 37.3507 45.3795 37.3162 45.3449L34.3484 42.4479C34.2983 42.3995 34.2793 42.3287 34.2983 42.2613C34.3173 42.194 34.3708 42.1439 34.4382 42.1283C35.5109 41.8882 36.5353 41.4702 37.4855 40.8845C37.5442 40.8483 37.6185 40.8465 37.6789 40.8828C37.7394 40.9174 37.7757 40.983 37.7722 41.0521L37.6358 45.2153C37.634 45.2896 37.5874 45.357 37.5183 45.3846C37.4958 45.3933 37.4716 45.3985 37.4475 45.3985ZM34.8562 42.4168L37.273 44.7748L37.3853 41.3855C36.5854 41.8416 35.739 42.1871 34.858 42.4168H34.8562Z" fill="#FEFCF7"></path>
    <path d="M26.5107 45.3768C26.4865 45.3768 26.4606 45.3716 26.4364 45.3612C26.3673 45.3319 26.3224 45.2645 26.3207 45.1902L26.2637 40.9855C26.2637 40.9164 26.2999 40.8525 26.3604 40.8179C26.4209 40.7851 26.4952 40.7851 26.5539 40.8231C27.5144 41.4278 28.5526 41.8631 29.6375 42.117C29.7066 42.1326 29.7601 42.1844 29.7774 42.2518C29.7947 42.3191 29.7739 42.3917 29.7238 42.4383L26.6385 45.325C26.6023 45.3578 26.5556 45.3768 26.509 45.3768H26.5107ZM26.6472 41.3206L26.6938 44.7566L29.2142 42.3986C28.3194 42.1567 27.4591 41.7957 26.6489 41.3206H26.6472Z" fill="#FEFCF7"></path>
    <path d="M23.0555 37.7735H23.0503L18.7834 37.637C18.7091 37.6353 18.6417 37.5887 18.6141 37.5178C18.5864 37.4487 18.602 37.3693 18.6538 37.3157L21.6113 34.2771C21.6596 34.227 21.7305 34.208 21.7978 34.227C21.8635 34.246 21.9153 34.2995 21.9309 34.3669C22.1813 35.4673 22.6132 36.5159 23.2161 37.4833C23.2524 37.542 23.2541 37.6163 23.2196 37.6768C23.185 37.7355 23.1228 37.7718 23.0555 37.7718V37.7735ZM19.2222 37.2725L22.7134 37.3848C22.2401 36.566 21.8808 35.6936 21.6424 34.7867L19.2204 37.2742L19.2222 37.2725Z" fill="#FEFCF7"></path>
    <path d="M21.7325 29.8201C21.6806 29.8201 21.6305 29.7994 21.5943 29.7597L18.6696 26.6364C18.6178 26.5811 18.604 26.5016 18.6334 26.4325C18.6627 26.3634 18.7301 26.3185 18.8044 26.3168L23.0246 26.2598C23.1024 26.2649 23.1576 26.296 23.1922 26.3548C23.2267 26.4152 23.225 26.4878 23.1887 26.5465C22.591 27.5191 22.1626 28.5694 21.9173 29.6681C21.9018 29.7372 21.8499 29.7907 21.7826 29.8098C21.7653 29.8149 21.7497 29.8167 21.7325 29.8167V29.8201ZM19.238 26.6916L21.6305 29.2466C21.8655 28.3397 22.2213 27.4673 22.6929 26.645L19.238 26.6916Z" fill="#FEFCF7"></path>
    <path d="M26.41 23.2196C26.3772 23.2196 26.3461 23.211 26.3168 23.1955C26.2563 23.1609 26.22 23.0953 26.2217 23.0244L26.3634 18.7766C26.3651 18.7023 26.4118 18.6349 26.4809 18.6073C26.5517 18.5796 26.6294 18.5952 26.683 18.647L29.6784 21.5664C29.7285 21.6148 29.7475 21.6856 29.7285 21.753C29.7095 21.8187 29.6577 21.8705 29.5903 21.886C28.502 22.1451 27.4655 22.5839 26.5102 23.1903C26.4791 23.2093 26.4446 23.2196 26.4083 23.2196H26.41ZM26.7262 19.2171L26.6104 22.6858C27.4189 22.2108 28.2774 21.848 29.174 21.6027L26.7262 19.2171Z" fill="#FEFCF7"></path>
    <path d="M29.6681 37.264C29.6249 37.264 29.5783 37.2606 29.5316 37.2554C28.9754 37.188 28.0788 36.6732 27.3861 35.4381C26.3738 33.638 26.4533 31.5512 26.4602 31.4078C26.4619 28.7717 27.8283 26.8594 29.7096 26.8594C31.5908 26.8594 32.071 28.3934 32.071 29.4299C32.071 30.4664 31.5874 31.3716 30.594 32.1109C29.713 32.7674 29.618 33.8902 29.618 34.3429C29.618 35.0684 29.8633 35.8492 30.1 36.1843C30.423 36.6421 30.3263 36.9168 30.1864 37.0671C30.0672 37.1949 29.8858 37.2623 29.6698 37.2623L29.6681 37.264ZM29.7096 27.2377C28.046 27.2377 26.8385 28.9928 26.8385 31.413V31.4217C26.8385 31.4424 26.7452 33.5257 27.7161 35.2532C28.3397 36.364 29.1084 36.8235 29.5766 36.8805C29.7286 36.8995 29.8495 36.8736 29.9082 36.8114C29.9946 36.7181 29.853 36.4953 29.789 36.4037C29.4746 35.9598 29.238 35.0736 29.238 34.3446C29.238 33.6156 29.3485 32.5687 30.3677 31.8104C31.2712 31.1384 31.6927 30.3817 31.6927 29.4333C31.6927 28.4849 31.1935 27.2412 29.7096 27.2412V27.2377Z" fill="#FEFCF7"></path>
    <path d="M33.6662 37.8407C32.0561 37.8407 31.3047 36.3067 31.3047 35.2702C31.3047 34.2337 31.7711 33.4166 32.7748 32.5943C33.6834 31.8515 33.7577 31.0499 33.7577 30.3572C33.7577 29.6645 33.5124 28.8508 33.2757 28.5157C32.9527 28.0579 33.0494 27.7832 33.1894 27.6329C33.3345 27.4792 33.5642 27.4118 33.8424 27.4446C34.3986 27.512 35.2952 28.0268 35.9879 29.262C37.0002 31.062 36.9207 33.1488 36.9156 33.2922C36.9138 35.9283 35.5474 37.8407 33.6644 37.8407H33.6662ZM33.7059 27.8143C33.5971 27.8143 33.5124 27.8402 33.4658 27.8903C33.3794 27.9836 33.5211 28.2065 33.585 28.298C33.8994 28.742 34.136 29.6282 34.136 30.3572C34.136 31.0862 33.9996 32.0795 33.0132 32.8862C32.0924 33.6411 31.6813 34.3753 31.6813 35.2702C31.6813 36.165 32.1805 37.4623 33.6644 37.4623C35.1483 37.4623 36.5372 35.7072 36.5372 33.287V33.2784C36.5372 33.2576 36.6305 31.1743 35.6597 29.4468C35.0361 28.336 34.2673 27.8765 33.7992 27.8195C33.7664 27.8161 33.7353 27.8143 33.7059 27.8143Z" fill="#FEFCF7"></path>
  </symbol>
  <symbol id="ico-snb4" width="64" height="64" viewBox="0 0 64 64" fill="none" xmlns="http://www.w3.org/2000/svg">
      <path d="M31.71 50C31.584 50 31.4721 49.9164 31.4371 49.7962L27.4463 36.2844L20.1487 32.3355C20.0577 32.285 20 32.191 20 32.0864C20 31.9819 20.0577 31.8861 20.1487 31.8374L27.4463 27.8885L31.4371 14.1816C31.5071 13.9395 31.9147 13.9395 31.9847 14.1816L35.9755 27.8902L43.0788 31.8391C43.1681 31.8896 43.2258 31.9837 43.2258 32.0864C43.2258 32.1892 43.1698 32.285 43.0788 32.3338L35.9755 36.2826L31.9847 49.7962C31.9497 49.9164 31.8377 50 31.7118 50H31.71ZM20.8818 32.0847L27.8224 35.8402C27.8889 35.8768 27.9379 35.9377 27.9589 36.0092L31.7083 48.7093L35.4576 36.0092C35.4786 35.9377 35.5276 35.8768 35.5923 35.8419L42.3528 32.0847L35.5923 28.3274C35.5276 28.2909 35.4786 28.2299 35.4576 28.1585L31.7083 15.2772L27.9589 28.1585C27.9379 28.2316 27.8889 28.2926 27.8224 28.3292L20.8818 32.0847Z" fill="#FEFCF7"></path>
      <path d="M31.6676 42.9683C31.5527 42.9683 31.4519 42.8911 31.4204 42.7809L29.1451 34.5975L24.9991 32.3442C24.9172 32.2986 24.8652 32.2135 24.8652 32.1191C24.8652 32.0246 24.9172 31.938 24.9991 31.8939L29.1435 29.6406L31.4204 21.3454C31.4818 21.1218 31.8534 21.1218 31.9149 21.3454L34.1918 29.6437L38.226 31.897C38.3063 31.9427 38.3582 32.0277 38.3582 32.1206C38.3582 32.2135 38.3079 32.3001 38.226 32.3442L34.1918 34.5975L31.9149 42.7825C31.8834 42.8927 31.7826 42.9698 31.6676 42.9698V42.9683ZM25.6588 32.1191L29.4852 34.1991C29.5466 34.2322 29.5907 34.2889 29.6096 34.355L31.6676 41.7558L33.7257 34.355C33.7446 34.2889 33.7887 34.2338 33.8485 34.2007L37.5757 32.1191L33.8485 30.0374C33.7887 30.0043 33.7446 29.9476 33.7257 29.8815L31.6676 22.3815L29.6096 29.8815C29.5907 29.9492 29.5466 30.0059 29.4852 30.039L25.6588 32.1191Z" fill="#FEFCF7"></path>
      <path d="M33.1364 32.0623C33.1364 32.9052 32.4531 33.5885 31.6102 33.5885C30.7672 33.5885 30.084 32.9052 30.084 32.0623C30.084 31.2194 30.7672 30.5361 31.6102 30.5361C32.4531 30.5361 33.1364 31.2194 33.1364 32.0623Z" stroke="white" stroke-width="0.5"></path>
  </symbol>
  <symbol id="ico-snb5" width="64" height="64" viewBox="0 0 64 64" fill="none" xmlns="http://www.w3.org/2000/svg">
      <path d="M18.0738 31.8209C17.9754 31.9193 17.9754 32.08 18.0738 32.1805L31.8171 45.9225C31.8673 45.9727 31.9316 45.9968 31.9959 45.9968C32.0602 45.9968 32.1265 45.9727 32.1747 45.9225L45.924 32.1745C46.0224 32.076 46.0224 31.9153 45.924 31.8149L32.1807 18.0729C32.0823 17.9744 31.9216 17.9744 31.8211 18.0729L18.0718 31.8209H18.0738ZM30.9712 31.0032C28.102 30.8726 25.7492 28.532 25.6246 25.6591C28.5119 25.7897 30.8386 28.1162 30.9712 31.0032ZM26.9828 29.7857L25.1303 31.638L22.0542 28.5622L25.1142 25.5024V25.5526C25.1524 27.2061 25.8657 28.7028 26.9848 29.7857H26.9828ZM27.3626 30.1232C28.3953 30.969 29.7033 31.4854 31.1199 31.5115L31.6242 32.0158L31.1219 32.518H31.0777C29.6833 32.5502 28.4014 33.0645 27.3847 33.8962L25.488 31.9997L27.3626 30.1252V30.1232ZM25.6266 38.3765C25.7572 35.5075 28.098 33.1549 30.9712 33.0303C30.8406 35.9174 28.5139 38.2439 25.6266 38.3765ZM27.0049 34.2338C25.8737 35.3227 25.1544 36.8375 25.1183 38.505L22.0481 35.4352L25.1263 32.3573L27.0029 34.2338H27.0049ZM29.7737 37.0043L31.6403 38.8707L28.5621 41.9486L25.498 38.8847C27.1777 38.8486 28.6907 38.1354 29.7757 37.0043H29.7737ZM30.1132 36.6245C30.9471 35.5979 31.4534 34.2981 31.4795 32.8797L31.9838 32.3754L32.4862 32.8776V32.9259C32.5183 34.3282 33.0387 35.616 33.8765 36.6346L31.9999 38.5111L30.1132 36.6245ZM38.3431 38.3765C35.4739 38.2459 33.1211 35.9053 32.9965 33.0323C35.8838 33.1629 38.2105 35.4894 38.3431 38.3765ZM34.2161 37.0123C35.3091 38.1414 36.8281 38.8546 38.4978 38.8847L35.4357 41.9445L32.3596 38.8687L34.2161 37.0123ZM36.9869 34.2418L38.8715 32.3573L41.9477 35.4332L38.8514 38.5291C38.8213 36.8476 38.112 35.3327 36.9869 34.2418ZM36.6091 33.9023C35.5804 33.0605 34.2744 32.5502 32.8498 32.5241L32.3415 32.0158L32.8438 31.5115C34.2804 31.4874 35.5965 30.969 36.6312 30.1152L38.5119 31.9957L36.6091 33.8982V33.9023ZM38.3451 25.6591C38.2145 28.5461 35.8878 30.8726 33.0005 31.0052C33.1311 28.1362 35.4719 25.7836 38.3451 25.6591ZM37.009 29.7757C38.1341 28.6787 38.8374 27.1538 38.8555 25.4642L41.9517 28.5602L38.8715 31.638L37.007 29.7736L37.009 29.7757ZM38.4516 25.1468C36.806 25.1849 35.3132 25.8901 34.2322 26.9991L32.3596 25.1267L35.4377 22.0468L38.536 25.1448H38.4496L38.4516 25.1468ZM33.8946 27.3808C33.0407 28.4135 32.5203 29.7254 32.4922 31.1478L31.9838 31.6561L31.4815 31.1539C31.4554 29.7274 30.943 28.4195 30.0992 27.3909L32.0019 25.4883L33.8946 27.3808ZM29.7576 27.0132C28.6666 25.8861 27.1476 25.1789 25.4658 25.1528L28.5661 22.0528L31.6423 25.1287L29.7576 27.0132ZM21.6945 28.9238L24.7707 31.9997L21.6925 35.0776L18.6163 32.0017L21.6945 28.9238ZM31.9999 45.3861L28.9238 42.3102L32.0019 39.2323L35.0781 42.3082L31.9999 45.3861ZM42.3093 35.0776L39.2332 32.0017L42.3114 28.9238L45.3875 31.9997L42.3093 35.0776ZM35.0801 21.6912L32.0019 24.7711L28.9258 21.6952L32.0039 18.6173L35.0801 21.6932V21.6912Z" fill="#FEFCF7"></path>
      <path d="M49.9168 31.7984L32.201 14.0827C32.0908 13.9724 31.9109 13.9724 31.7984 14.0827L14.0827 31.7984C13.9724 31.9086 13.9724 32.0885 14.0827 32.201L31.7984 49.9168C31.8547 49.973 31.9266 50 31.9986 50C32.0706 50 32.1448 49.973 32.1988 49.9168L49.9145 32.201C50.0247 32.0908 49.9972 31.9981 49.9145 31.7984H49.9168Z" stroke="#FEFCF7" stroke-width="0.5" stroke-linejoin="round"></path>
  </symbol>
  <symbol id="ico-snb6" width="64" height="64" viewBox="0 0 64 64" fill="none" xmlns="http://www.w3.org/2000/svg">
      <circle cx="21.5945" cy="23.9626" r="2.31128" stroke="#FEFCF7" stroke-width="0.5" stroke-linecap="round" stroke-linejoin="round"></circle>
      <circle cx="42.0652" cy="23.9626" r="2.31128" stroke="#FEFCF7" stroke-width="0.5" stroke-linecap="round" stroke-linejoin="round"></circle>
      <path d="M35.5223 35.7175C41.3335 29.6421 47.6788 28.1445 49.99 28.2546C47.8769 39.6129 37.223 43.1128 32.1602 43.443C27.0973 43.1128 16.1132 39.6128 14 28.2545C16.3113 28.1445 22.6566 29.6421 28.4678 35.7175M35.5223 35.7175C35.2563 37.1674 34.8598 38.3439 34.4714 39.1506M35.5223 35.7175C36.2359 31.8262 36.009 25.9657 32.1602 20C28.5281 25.6131 26.547 29.5753 29.5187 39.1506" stroke="#FEFCF7" stroke-width="0.5" stroke-linecap="round" stroke-linejoin="round"></path>
      <path d="M32.1597 31.5567C33.0715 31.5567 33.8106 30.8176 33.8106 29.9058C33.8106 28.994 33.0715 28.2549 32.1597 28.2549C31.248 28.2549 30.5088 28.994 30.5088 29.9058C30.5088 30.8176 31.248 31.5567 32.1597 31.5567ZM32.1597 31.5567L32.1602 43.4432M41.4056 35.5188L32.1604 43.113M22.5848 35.5186L31.8299 43.1128M23.2452 34.528C23.2452 35.4398 22.5061 36.1789 21.5943 36.1789C20.6825 36.1789 19.9434 35.4398 19.9434 34.528C19.9434 33.6163 20.6825 32.8771 21.5943 32.8771C22.5061 32.8771 23.2452 33.6163 23.2452 34.528ZM44.3769 34.528C44.3769 35.4398 43.6378 36.1789 42.726 36.1789C41.8142 36.1789 41.0751 35.4398 41.0751 34.528C41.0751 33.6163 41.8142 32.8771 42.726 32.8771C43.6378 32.8771 44.3769 33.6163 44.3769 34.528Z" stroke="#FEFCF7" stroke-width="0.5" stroke-linecap="round" stroke-linejoin="round"></path>
  </symbol>
</svg>