<svg viewBox="0 0 80 20" xmlns="http://www.w3.org/2000/svg">
    <symbol id="logo" viewBox="0 0 47 56">
        <path d="M45.9,23.4C45.9,11,35.9,1,23.5,1S1.1,11,1.1,23.4s10,22.4,22.4,22.4V55L39,39.5l0,0C43.2,35.5,45.9,29.7,45.9,23.4z"></path>
        <path d="M32.2,13.6c-0.1-0.8-0.8-1.3-1.4-1c-0.4,0.2-0.5,0.5-0.6,1.1c-0.1,0.6-0.1,19.1,0,19.6c0.2,1.4,1.5,1.6,2,0.4C32.2,33.4,32.3,14.2,32.2,13.6z"></path>
        <path d="M17.7,16.4c1.1-0.4,0.9-0.3,5-0.4c3.3,0,3.7,0,3.9-0.1c1.1-0.4,1.1-1.6,0-1.9c-0.2-0.1-5.8-0.1-6.9-0.1c-5.7,0.4-9.8,5.3-9,11c0.6,4.2,4.4,7.8,8.7,8.1c0.7,0.1,6.5,0.1,6.9,0c1.4-0.2,1.5-1.6,0.2-2c-0.1,0-1-0.1-3.9-0.1c-4.4,0-4.4,0-5.8-0.7C10.9,27.3,11.5,18.5,17.7,16.4z"></path>
    </symbol>
</svg>